<svg width="46" height="45" viewBox="0 0 46 45" fill="none" xmlns="http://www.w3.org/2000/svg">
<path d="M1.2981 12.4267C1.28175 12.5156 1.27253 12.6057 1.26955 12.6958V14.5465C1.27193 15.3091 1.7456 15.9909 2.4601 16.2588V18.9819C2.46337 19.8935 3.18026 20.6428 4.09072 20.6859V36.4173C3.18026 36.4607 2.46337 37.21 2.4601 38.1213V40.8364C1.74411 41.1114 1.27074 41.7983 1.26955 42.5648V44.375C1.26955 44.7125 1.5437 44.9863 1.88118 44.9863H43.1199C43.4573 44.9863 43.7312 44.7125 43.7312 44.375V42.5648C43.73 41.798 43.2566 41.1111 42.5409 40.8364V38.1053C42.5377 37.1936 41.8205 36.4443 40.9103 36.4012V20.6859C41.8205 20.6428 42.5377 19.8935 42.5409 18.9819V16.2588C43.2551 15.9909 43.7288 15.3091 43.7312 14.5465V12.708C43.7285 12.6179 43.719 12.5278 43.7026 12.4389C44.0101 12.5751 44.3696 12.4365 44.5058 12.1291C44.6419 11.8219 44.5034 11.4624 44.1962 11.326L22.7818 0.0707536C22.6031 -0.0235032 22.3896 -0.0235032 22.2109 0.0707536L0.796784 11.3138C0.497958 11.4717 0.383482 11.8413 0.540775 12.1401C0.684687 12.413 1.00938 12.5361 1.2981 12.4267ZM3.68306 17.3186V16.3769H10.7354V17.3105L3.68306 17.3186ZM19.3859 20.6901V36.4173C18.4754 36.4607 17.7585 37.21 17.7553 38.1213V40.7222H11.95V38.1213C11.9467 37.21 11.2298 36.4607 10.3194 36.4173V20.6859C11.2298 20.6428 11.9467 19.8935 11.95 18.9819V16.3769H17.7469V18.978C17.7484 19.8911 18.4659 20.6422 19.3779 20.6859L19.3859 20.6901ZM18.9782 17.3186V16.3769H26.0308V17.3105L18.9782 17.3186ZM34.6813 20.6901V36.4173C33.7709 36.4607 33.0537 37.21 33.0504 38.1213V40.7222H27.2455V38.1213C27.2422 37.21 26.525 36.4607 25.6149 36.4173V20.6859C26.525 20.6428 27.2422 19.8935 27.2455 18.9819V16.3769H33.0424V18.978C33.0436 19.8911 33.7611 20.6422 34.673 20.6859L34.6813 20.6901ZM34.2737 17.3186V16.3769H41.326V17.3105L34.2737 17.3186ZM41.326 39.7888V40.7222H34.2654V39.7888H41.326ZM26.0308 39.7888V40.7222H18.9702V39.7888H26.0308ZM19.9892 19.4752H19.4593C19.189 19.4752 18.9702 19.2563 18.9702 18.986V18.5415H26.0225V18.986C26.0225 19.2563 25.8037 19.4752 25.5334 19.4752H19.9892ZM24.3961 20.6981V36.4093H20.6008V20.6981H24.3961ZM19.9892 37.6322H25.5334C25.8037 37.6322 26.0225 37.8511 26.0225 38.1213V38.5659H18.9702V38.1213C18.9702 37.8511 19.189 37.6322 19.4593 37.6322H19.9892ZM10.7273 39.7888V40.7222H3.67474V39.7888H10.7273ZM3.67474 18.9982V18.5415H10.7273V18.986C10.7273 19.2563 10.5085 19.4752 10.2379 19.4752H4.15167C3.88466 19.4686 3.67236 19.2489 3.67474 18.9819V18.9982ZM9.09673 20.7103V36.4093H5.30535V20.6981L9.09673 20.7103ZM3.67474 38.1338C3.67474 37.8633 3.89358 37.6444 4.16386 37.6444H10.2379C10.5085 37.6444 10.7273 37.8633 10.7273 38.1338V38.5781H3.67474V38.1338ZM42.5082 42.5895V43.7878H2.48449V42.5895C2.48449 42.2404 2.76726 41.9573 3.11633 41.9573H41.8764C42.2204 41.9573 42.5017 42.233 42.5082 42.577V42.5895ZM41.318 38.1338V38.5781H34.2654V38.1338C34.2654 37.8633 34.4842 37.6444 34.7545 37.6444H40.841C41.1018 37.651 41.3114 37.8606 41.318 38.1213V38.1338ZM35.896 36.4215V20.6981H39.6912V36.4093L35.896 36.4215ZM41.318 18.9982C41.318 19.2685 41.0991 19.4873 40.8288 19.4873H34.7587C34.4884 19.4873 34.2695 19.2685 34.2695 18.9982V18.5415H41.3218L41.318 18.9982ZM22.4964 1.29371L40.7063 10.8654H4.28637L22.4964 1.29371ZM2.48449 12.708C2.48449 12.3705 2.75834 12.0967 3.09582 12.0967H41.8969C42.2344 12.0967 42.5082 12.3705 42.5082 12.708V14.5589C42.5082 14.8964 42.2344 15.1703 41.8969 15.1703H3.09582C2.75834 15.1703 2.48449 14.8964 2.48449 14.5589V12.708Z" fill="#1D2128"/>
<path d="M22.5 1.29365L40.71 10.8653H4.29001L22.5 1.29365Z" fill="#1D73F8"/>
</svg>
