<?xml version="1.0" encoding="utf-8"?>
<!-- Generator: Adobe Illustrator 15.1.0, SVG Export Plug-In . SVG Version: 6.00 Build 0)  -->
<!DOCTYPE svg PUBLIC "-//W3C//DTD SVG 1.1//EN" "http://www.w3.org/Graphics/SVG/1.1/DTD/svg11.dtd">
<svg version="1.1" id="Layer_1" xmlns="http://www.w3.org/2000/svg" xmlns:xlink="http://www.w3.org/1999/xlink" x="0px" y="0px"
	 width="67px" height="67px" viewBox="0 0 67 67" enable-background="new 0 0 67 67" xml:space="preserve">
<g>
	<defs>
		<rect id="SVGID_1_" width="67" height="67"/>
	</defs>
	<clipPath id="SVGID_2_">
		<use xlink:href="#SVGID_1_"  overflow="visible"/>
	</clipPath>
	<g clip-path="url(#SVGID_2_)">
		<path fill="#1D73F8" d="M55.681,5.375c-5.119,0-9.164,4.108-9.164,9.228s4.108,9.165,9.164,9.165s9.228-4.108,9.228-9.228
			C64.908,9.42,60.801,5.375,55.681,5.375z M55.681,21.744c-3.981,0-7.204-3.223-7.204-7.205c0-3.982,3.285-7.142,7.204-7.142
			c3.981,0,7.205,3.224,7.205,7.205C62.886,18.584,59.662,21.744,55.681,21.744z"/>
		<path fill="#1D73F8" d="M58.588,15.993c-0.063-0.189-0.063-0.316-0.189-0.506c-0.063-0.126-0.127-0.316-0.253-0.442
			c-0.126-0.126-0.189-0.252-0.315-0.379c-0.127-0.126-0.254-0.253-0.443-0.316c-0.126-0.126-0.315-0.19-0.441-0.253
			c-0.19-0.063-0.316-0.189-0.506-0.253c-0.189-0.063-0.379-0.126-0.506-0.189c-0.063,0-0.189-0.063-0.253-0.126
			c-0.063-0.063-0.189-0.063-0.253-0.126c-0.063-0.063-0.189-0.063-0.252-0.126c-0.064-0.063-0.127-0.126-0.19-0.189
			c-0.063-0.063-0.126-0.126-0.126-0.253c-0.063-0.063-0.063-0.189-0.063-0.253c0-0.126,0-0.189,0-0.316
			c0-0.063,0.063-0.189,0.063-0.253c0.063-0.063,0.063-0.189,0.126-0.252c0.063-0.063,0.126-0.126,0.19-0.19
			c0.063-0.063,0.189-0.126,0.315-0.126c0.126-0.063,0.189-0.063,0.315-0.063c0.063,0,0.127,0,0.189,0c0.064,0,0.127,0,0.19,0
			c0.126,0,0.189,0,0.315,0.063c0.127,0,0.253,0.063,0.316,0.063c0.063,0,0.189,0.063,0.253,0.063c0.126,0,0.189,0.063,0.253,0.063
			l0.315,0.126l0.063-0.379l0.127-1.011v-0.253l-0.254-0.063c-0.063,0-0.189-0.063-0.252-0.063c-0.063,0-0.127-0.063-0.253-0.063
			c-0.063,0-0.19-0.063-0.316-0.063s-0.189-0.063-0.315-0.063h-0.063V8.915V8.599h-0.315h-0.885h-0.316v0.316v0.948h-0.063
			c-0.189,0.063-0.38,0.126-0.569,0.253c-0.189,0.063-0.315,0.19-0.441,0.316c-0.127,0.126-0.254,0.252-0.38,0.442
			c-0.126,0.126-0.189,0.316-0.253,0.505c-0.063,0.189-0.126,0.379-0.189,0.569C52.9,12.138,52.9,12.391,52.9,12.58
			c0,0.19,0,0.316,0.063,0.506c0.063,0.189,0.063,0.316,0.189,0.505c0.063,0.126,0.189,0.316,0.253,0.442
			c0.126,0.126,0.19,0.253,0.315,0.379c0.127,0.126,0.254,0.253,0.443,0.316c0.126,0.126,0.316,0.19,0.442,0.253
			c0.189,0.063,0.379,0.189,0.505,0.253c0.189,0.063,0.38,0.126,0.506,0.189c0.063,0,0.189,0.063,0.253,0.126
			c0.063,0.063,0.19,0.063,0.253,0.126c0.063,0.063,0.127,0.126,0.189,0.126c0.063,0.063,0.127,0.126,0.189,0.189
			c0.063,0.063,0.063,0.126,0.127,0.253c0,0.063,0.063,0.189,0.063,0.316s0,0.189,0,0.316c0,0.063-0.063,0.189-0.126,0.253
			c-0.063,0.063-0.126,0.126-0.189,0.189c-0.063,0.063-0.126,0.126-0.253,0.189c-0.063,0.063-0.189,0.063-0.253,0.126
			c-0.063,0-0.189,0.063-0.315,0.063c-0.063,0-0.127,0-0.254,0c-0.063,0-0.189,0-0.252,0c-0.127,0-0.253,0-0.316,0
			c-0.126,0-0.252-0.063-0.316-0.063c-0.125,0-0.252-0.063-0.379-0.126c-0.126-0.063-0.252-0.063-0.379-0.126
			c-0.063,0-0.127-0.063-0.189-0.063c-0.063,0-0.127-0.063-0.189-0.063l-0.379-0.19l-0.064,0.442l-0.126,1.138v0.19L52.9,18.9
			c0.252-0.063,0.379,0,0.568,0.063c0.127,0.063,0.316,0.126,0.442,0.126c0.126,0.063,0.315,0.063,0.505,0.126
			c0.19,0.063,0.316,0.063,0.506,0.063h0.127v0.948v0.316h0.316h0.885h0.315v-0.316v-1.011h0.063
			c0.189-0.063,0.379-0.126,0.568-0.253c0.189-0.063,0.316-0.189,0.506-0.316c0.127-0.126,0.253-0.252,0.379-0.442
			c0.127-0.126,0.189-0.316,0.316-0.505c0.063-0.19,0.127-0.379,0.189-0.569c0.063-0.189,0.063-0.379,0.063-0.632
			C58.651,16.309,58.651,16.183,58.588,15.993z"/>
		<path fill="#1D73F8" d="M51.256,24.968c-0.315-0.442-1.011-0.505-1.453-0.189l-10.238,8.153l-13.209-5.499
			c-0.316-0.126-0.695-0.063-0.948,0.126L11.25,37.672c-0.442,0.315-0.569,0.947-0.253,1.391c0.19,0.315,0.506,0.441,0.822,0.441
			c0.19,0,0.379-0.063,0.569-0.189l13.715-9.796l13.273,5.499c0.315,0.126,0.758,0.063,1.011-0.127l10.681-8.469
			C51.51,26.105,51.572,25.41,51.256,24.968z"/>
		<path fill="#333333" d="M66.046,59.603h-4.677V30.34c0-0.569-0.442-1.011-1.012-1.011h-9.291c-0.568,0-1.011,0.442-1.011,1.011
			v29.263h-3.413v-19.15c0-0.569-0.441-1.011-1.011-1.011h-9.354c-0.568,0-1.011,0.441-1.011,1.011v19.15h-3.413V38.936
			c0-0.568-0.443-1.012-1.012-1.012h-9.291c-0.569,0-1.011,0.443-1.011,1.012v20.667h-3.413V44.877c0-0.569-0.442-1.012-1.011-1.012
			H6.763c-0.569,0-1.011,0.442-1.011,1.012v14.726h-4.74C0.442,59.603,0,60.045,0,60.613c0,0.569,0.442,1.012,1.011,1.012h5.688
			h9.291h5.562h9.291h5.435h9.291h5.436h9.291h5.688c0.569,0,1.012-0.442,1.012-1.012C67.057,60.045,66.615,59.603,66.046,59.603z
			 M15.042,59.603H7.774V45.888h7.268V59.603z M29.831,59.603h-7.268V39.946h7.268V59.603z M44.557,59.603h-7.268v-18.14h7.268
			V59.603z M59.347,59.603h-7.269V31.351h7.269V59.603z"/>
	</g>
</g>
</svg>
