<?xml version="1.0" encoding="utf-8"?>
<!-- Generator: Adobe Illustrator 15.1.0, SVG Export Plug-In . SVG Version: 6.00 Build 0)  -->
<!DOCTYPE svg PUBLIC "-//W3C//DTD SVG 1.1//EN" "http://www.w3.org/Graphics/SVG/1.1/DTD/svg11.dtd">
<svg version="1.1" id="Layer_1" xmlns="http://www.w3.org/2000/svg" xmlns:xlink="http://www.w3.org/1999/xlink" x="0px" y="0px"
	 width="67px" height="67px" viewBox="0 0 67 67" enable-background="new 0 0 67 67" xml:space="preserve">
<g>
	<defs>
		<rect id="SVGID_1_" x="2" y="2" width="63" height="63"/>
	</defs>
	<clipPath id="SVGID_2_">
		<use xlink:href="#SVGID_1_"  overflow="visible"/>
	</clipPath>
	<g clip-path="url(#SVGID_2_)">
		<path fill="#1D73F8" d="M10.514,34.023c0,1.987,1.616,3.603,3.602,3.603c1.988,0,3.604-1.615,3.604-3.603
			c0-1.986-1.616-3.603-3.604-3.603C12.13,30.421,10.514,32.037,10.514,34.023z M15.874,34.023c0,0.969-0.788,1.757-1.758,1.757
			c-0.968,0-1.756-0.788-1.756-1.757c0-0.968,0.788-1.757,1.756-1.757C15.085,32.267,15.874,33.055,15.874,34.023z"/>
		<path fill="#1D73F8" d="M26.373,34.023c0-1.986-1.615-3.603-3.601-3.603c-1.987,0-3.603,1.616-3.603,3.603
			c0,1.987,1.616,3.603,3.603,3.603C24.758,37.626,26.373,36.011,26.373,34.023z M21.014,34.023c0-0.968,0.788-1.757,1.757-1.757
			c0.968,0,1.755,0.789,1.755,1.757c0,0.969-0.788,1.757-1.755,1.757C21.802,35.78,21.014,34.992,21.014,34.023z"/>
		<path fill="#1D73F8" d="M35.028,34.023c0-1.986-1.616-3.603-3.604-3.603c-1.985,0-3.602,1.616-3.602,3.603
			c0,1.987,1.616,3.603,3.602,3.603C33.413,37.626,35.028,36.011,35.028,34.023z M29.669,34.023c0-0.968,0.788-1.757,1.756-1.757
			c0.969,0,1.758,0.789,1.758,1.757c0,0.969-0.79,1.757-1.758,1.757C30.457,35.78,29.669,34.992,29.669,34.023z"/>
		<path fill="#1D73F8" d="M43.682,34.023c0-1.986-1.615-3.603-3.601-3.603c-1.987,0-3.604,1.616-3.604,3.603
			c0,1.987,1.616,3.603,3.604,3.603C42.066,37.626,43.682,36.011,43.682,34.023z M38.323,34.023c0-0.968,0.788-1.757,1.758-1.757
			c0.968,0,1.755,0.789,1.755,1.757c0,0.969-0.787,1.757-1.755,1.757C39.111,35.78,38.323,34.992,38.323,34.023z"/>
		<path fill="#333333" d="M56.002,2.476H21.953c-4.962,0-8.998,4.036-8.998,8.998v1.455h-1.957C6.036,12.929,2,16.966,2,21.926
			v22.879c0,4.961,4.036,8.997,8.998,8.997h9.62c0.508,0,0.923-0.412,0.923-0.923c0-0.509-0.415-0.922-0.923-0.922h-9.62
			c-3.944,0-7.152-3.208-7.152-7.152V21.926c0-3.943,3.208-7.152,7.152-7.152h34.05c3.943,0,7.151,3.208,7.151,7.152v22.879
			c0,3.944-3.208,7.152-7.151,7.152c-1.051,0-2.033,0.463-2.693,1.269c-3.619,4.424-7.93,7.55-10.908,9.393
			c-0.277,0.172-0.597-0.118-0.451-0.416c1.17-2.388,2.067-4.892,2.667-7.443c0.336-1.431-0.754-2.802-2.228-2.802h-6.509
			c-0.51,0-0.923,0.413-0.923,0.922c0,0.511,0.413,0.923,0.923,0.923h6.509c0.283,0,0.495,0.263,0.431,0.535
			c-0.568,2.416-1.417,4.789-2.527,7.054c-0.956,1.952,1.232,3.939,3.081,2.797c3.097-1.917,7.584-5.173,11.366-9.793
			c0.308-0.376,0.769-0.593,1.264-0.593c4.962,0,8.997-4.036,8.997-8.997v-1.455h1.957c4.961,0,8.998-4.036,8.998-8.999v-9.286
			c0-0.509-0.413-0.923-0.923-0.923s-0.923,0.414-0.923,0.923v9.286c0,3.945-3.209,7.153-7.152,7.153h-1.957V21.926
			c0-4.96-4.035-8.998-8.997-8.998H14.8v-1.455c0-3.944,3.208-7.152,7.152-7.152h34.049c3.943,0,7.152,3.208,7.152,7.152v9.286
			c0,0.51,0.413,0.923,0.923,0.923S65,21.269,65,20.759v-9.286C65,6.512,60.963,2.476,56.002,2.476z"/>
	</g>
</g>
</svg>
