<?xml version="1.0" encoding="utf-8"?>
<!-- Generator: Adobe Illustrator 15.1.0, SVG Export Plug-In . SVG Version: 6.00 Build 0)  -->
<!DOCTYPE svg PUBLIC "-//W3C//DTD SVG 1.1//EN" "http://www.w3.org/Graphics/SVG/1.1/DTD/svg11.dtd">
<svg version="1.1" id="Layer_1" xmlns="http://www.w3.org/2000/svg" xmlns:xlink="http://www.w3.org/1999/xlink" x="0px" y="0px"
	 width="67px" height="67px" viewBox="0 0 67 67" enable-background="new 0 0 67 67" xml:space="preserve">
<g>
	<path fill="#333333" d="M50.646,9.837c-0.31-0.424-0.903-0.519-1.326-0.211c-0.426,0.309-0.521,0.902-0.212,1.327
		c2.394,3.301,3.659,7.208,3.659,11.3c0,3.926-1.161,7.781-3.358,11.147c-3.247,4.978-5.413,8.638-5.916,13.945
		c-0.059,0.632-0.494,1.137-1.07,1.3c-0.04,0.006-0.077,0.015-0.114,0.026c-0.094,0.019-0.19,0.027-0.289,0.027H24.981
		c-0.1,0-0.195-0.009-0.29-0.027c-0.037-0.012-0.074-0.021-0.113-0.026c-0.577-0.163-1.012-0.668-1.071-1.3
		c-0.502-5.308-2.668-8.967-5.917-13.945c-2.197-3.367-3.357-7.222-3.357-11.147c0-10.624,8.643-19.267,19.267-19.267
		c4.902,0,9.574,1.843,13.153,5.189c0.385,0.358,0.984,0.338,1.344-0.045c0.356-0.383,0.337-0.984-0.046-1.342
		c-3.934-3.676-9.064-5.7-14.451-5.7c-11.672,0-21.166,9.495-21.166,21.166c0,4.295,1.268,8.509,3.666,12.186
		c3.094,4.739,5.156,8.212,5.617,13.087c0.114,1.207,0.836,2.21,1.847,2.717v8.913c0,1.181,0.745,2.19,1.788,2.586
		c0.093,2.317,2.008,4.174,4.348,4.174H37.4c2.34,0,4.255-1.856,4.348-4.174c1.043-0.396,1.788-1.405,1.788-2.586v-8.913
		c1.011-0.507,1.733-1.51,1.848-2.717c0.461-4.875,2.522-8.347,5.616-13.087c2.397-3.676,3.666-7.89,3.666-12.186
		C54.666,17.757,53.275,13.464,50.646,9.837z M31.314,54.287h10.322v1.733H25.363v-1.733h2.152c0.525,0,0.95-0.425,0.95-0.949
		s-0.424-0.95-0.95-0.95h-2.152v-1.79h16.273v1.79H31.314c-0.525,0-0.95,0.426-0.95,0.95S30.789,54.287,31.314,54.287z
		 M40.819,60.017c-0.007,0-0.012,0-0.017,0s-0.009,0-0.013,0c-0.014,0-0.027,0.001-0.04,0.001h-14.5
		c-0.012,0-0.026-0.001-0.04-0.001c-0.01,0-0.021,0-0.03,0c-0.454-0.024-0.817-0.402-0.817-0.862V57.92h16.273v1.234
		C41.637,59.614,41.273,59.992,40.819,60.017z M37.4,64.015H29.6c-1.232,0-2.254-0.913-2.426-2.099h12.654
		C39.654,63.102,38.632,64.015,37.4,64.015z"/>
	<path fill="#1D73F8" d="M43.927,27.715c0.033-0.116,0.144-0.198,0.271-0.198h0.769c1.205,0,2.187-0.98,2.187-2.185v-1.407
		c0-1.205-0.981-2.185-2.187-2.185h-0.821c-0.125,0-0.237-0.08-0.271-0.193c-0.216-0.712-0.506-1.405-0.863-2.06
		c-0.06-0.108-0.039-0.246,0.05-0.334l0.59-0.59c0.413-0.413,0.641-0.961,0.641-1.544s-0.228-1.132-0.641-1.545l-0.995-0.996
		c-0.412-0.413-0.961-0.64-1.545-0.64s-1.132,0.227-1.545,0.64l-0.59,0.59c-0.089,0.088-0.227,0.109-0.334,0.051
		c-0.654-0.357-1.348-0.648-2.06-0.864c-0.113-0.035-0.193-0.146-0.193-0.27v-0.823c0-1.205-0.98-2.185-2.185-2.185h-1.408
		c-1.205,0-2.186,0.98-2.186,2.185v0.769c0,0.127-0.081,0.239-0.197,0.272c-0.735,0.208-1.45,0.497-2.125,0.855
		c-0.105,0.056-0.24,0.034-0.328-0.054l-0.525-0.526c-0.413-0.413-0.961-0.64-1.545-0.64c-0.583,0-1.132,0.227-1.545,0.64
		l-0.995,0.996c-0.413,0.413-0.64,0.961-0.64,1.545c0,0.583,0.227,1.132,0.64,1.544l0.471,0.472c0.091,0.09,0.112,0.228,0.051,0.335
		c-0.387,0.689-0.699,1.421-0.929,2.175c-0.034,0.115-0.147,0.195-0.276,0.195h-0.633c-1.205,0-2.186,0.98-2.186,2.185v1.407
		c0,1.205,0.98,2.185,2.186,2.185h0.583c0.128,0,0.241,0.081,0.274,0.196c0.22,0.779,0.529,1.535,0.919,2.246
		c0.056,0.104,0.034,0.24-0.055,0.328l-0.406,0.407c-0.413,0.413-0.64,0.961-0.64,1.544s0.227,1.132,0.64,1.545l0.995,0.994
		c0.413,0.413,0.962,0.641,1.545,0.641c0.584,0,1.132-0.228,1.545-0.641l0.407-0.406c0.088-0.089,0.224-0.11,0.328-0.055
		c0.712,0.391,1.468,0.7,2.246,0.92c0.115,0.033,0.195,0.146,0.195,0.274v0.583c0,1.205,0.98,2.186,2.186,2.186h1.408
		c1.204,0,2.185-0.98,2.185-2.186v-0.633c0-0.129,0.08-0.242,0.194-0.276c0.755-0.229,1.486-0.542,2.176-0.93
		c0.106-0.06,0.244-0.039,0.335,0.052l0.472,0.471c0.413,0.413,0.961,0.641,1.545,0.641s1.133-0.228,1.545-0.641l0.995-0.994
		c0.413-0.413,0.641-0.962,0.641-1.545s-0.228-1.132-0.641-1.544l-0.525-0.526c-0.088-0.088-0.11-0.223-0.054-0.328
		C43.429,29.165,43.717,28.45,43.927,27.715z M42.099,27.196c-0.171,0.605-0.41,1.195-0.706,1.753
		c-0.45,0.849-0.293,1.878,0.39,2.561l0.525,0.526c0.111,0.112,0.111,0.292,0,0.404l-0.996,0.995c-0.11,0.111-0.291,0.112-0.403,0
		l-0.471-0.472c-0.69-0.689-1.764-0.838-2.609-0.363c-0.569,0.32-1.173,0.578-1.796,0.767c-0.909,0.275-1.543,1.137-1.543,2.095
		v0.633c0,0.157-0.128,0.285-0.285,0.285h-1.408c-0.158,0-0.287-0.128-0.287-0.285v-0.583c0-0.974-0.647-1.837-1.575-2.101
		c-0.644-0.183-1.266-0.438-1.854-0.759c-0.323-0.176-0.679-0.262-1.032-0.262c-0.568,0-1.131,0.22-1.551,0.639l-0.407,0.407
		c-0.069,0.068-0.148,0.083-0.202,0.083c-0.054,0-0.133-0.015-0.203-0.083l-0.994-0.995c-0.112-0.112-0.112-0.293,0-0.404
		L25.1,31.63c0.681-0.682,0.836-1.743,0.377-2.583c-0.321-0.587-0.576-1.21-0.759-1.854c-0.264-0.928-1.127-1.576-2.101-1.576
		h-0.583c-0.158,0-0.286-0.128-0.286-0.286v-1.407c0-0.158,0.128-0.286,0.286-0.286h0.633c0.957,0,1.818-0.634,2.094-1.543
		c0.189-0.623,0.446-1.227,0.766-1.795c0.476-0.846,0.327-1.919-0.363-2.608l-0.471-0.472c-0.112-0.111-0.112-0.292,0-0.404
		l0.994-0.995c0.112-0.111,0.292-0.112,0.405,0l0.525,0.526c0.683,0.683,1.712,0.839,2.561,0.388
		c0.559-0.296,1.148-0.533,1.754-0.706c0.929-0.264,1.578-1.127,1.578-2.099v-0.769c0-0.158,0.129-0.285,0.287-0.285h1.408
		c0.157,0,0.285,0.128,0.285,0.285v0.823c0,0.969,0.619,1.808,1.542,2.087c0.589,0.179,1.159,0.418,1.7,0.713
		c0.843,0.46,1.906,0.306,2.587-0.375l0.59-0.589c0.112-0.112,0.293-0.112,0.403,0l0.996,0.995c0.111,0.111,0.111,0.292,0,0.404
		l-0.59,0.589c-0.681,0.681-0.835,1.745-0.375,2.587c0.296,0.541,0.535,1.113,0.713,1.701c0.28,0.922,1.119,1.542,2.089,1.542h0.821
		c0.158,0,0.286,0.128,0.286,0.286v1.408c0,0.157-0.128,0.286-0.286,0.286h-0.769C43.226,25.618,42.363,26.267,42.099,27.196z"/>
	<path fill="#1D73F8" d="M33.5,17.702c-3.819,0-6.927,3.107-6.927,6.927s3.107,6.927,6.927,6.927s6.927-3.107,6.927-6.927
		S37.319,17.702,33.5,17.702z M33.5,29.656c-2.772,0-5.027-2.255-5.027-5.027s2.256-5.027,5.027-5.027
		c2.772,0,5.027,2.255,5.027,5.027S36.272,29.656,33.5,29.656z"/>
</g>
</svg>
