<svg width="90" height="90" viewBox="0 0 90 90" fill="none" xmlns="http://www.w3.org/2000/svg">
<path d="M64.0423 45C53.5255 45 45 53.5255 45 64.0423C45 74.5592 53.5255 83.0847 64.0423 83.0847C74.5592 83.0847 83.0847 74.5592 83.0847 64.0423C83.0726 53.5306 74.5541 45.0121 64.0423 45ZM64.0423 80.1551C55.1435 80.1551 47.9296 72.9412 47.9296 64.0423C47.9296 55.1435 55.1435 47.9296 64.0423 47.9296C72.9412 47.9296 80.1551 55.1435 80.1551 64.0423C80.1447 72.9368 72.9368 80.1447 64.0423 80.1551Z" fill="black"/>
<path d="M68.4366 53.7887H66.9718V50.8591H64.0422V53.7887H62.5891L62.6126 50.8708L59.683 50.8474L59.6595 53.7887H55.2534V56.7183H58.183V71.3663H55.2534V74.2959H59.6595L59.683 77.2372L62.6126 77.2137L62.5891 74.2959H64.0422V77.2255H66.9718V74.2959H68.4366C70.8636 74.2959 72.831 72.3285 72.831 69.9015V66.9719C72.8271 65.8874 72.4199 64.843 71.6884 64.0423C72.4199 63.2416 72.8271 62.1972 72.831 61.1127V58.1831C72.831 55.7561 70.8636 53.7887 68.4366 53.7887ZM69.9014 69.9015C69.9014 70.7104 69.2455 71.3663 68.4366 71.3663H61.1126V65.5071H68.4366C69.2455 65.5071 69.9014 66.1629 69.9014 66.9719V69.9015ZM69.9014 61.1127C69.9014 61.9216 69.2455 62.5775 68.4366 62.5775H61.1126V56.7183H68.4366C69.2455 56.7183 69.9014 57.3742 69.9014 58.1831V61.1127Z" fill="black"/>
<path d="M64.0424 39.1408C50.2896 39.1408 39.1409 50.2896 39.1409 64.0423C39.1409 77.7951 50.2896 88.9439 64.0424 88.9439C77.7952 88.9439 88.9439 77.7951 88.9439 64.0423C88.9286 50.296 77.7888 39.1562 64.0424 39.1408ZM64.0424 86.0143C51.9077 86.0143 42.0705 76.1771 42.0705 64.0423C42.0705 51.9076 51.9077 42.0704 64.0424 42.0704C76.1771 42.0704 86.0143 51.9076 86.0143 64.0423C86.0006 76.1714 76.1715 86.0005 64.0424 86.0143Z" fill="black"/>
<path d="M25.9576 45C36.4745 45 45 36.4745 45 25.9576C45 15.4408 36.4745 6.91528 25.9576 6.91528C15.4408 6.91528 6.91528 15.4408 6.91528 25.9576C6.92737 36.4694 15.4459 44.9879 25.9576 45ZM25.9576 9.84488C34.8565 9.84488 42.0704 17.0588 42.0704 25.9576C42.0704 34.8565 34.8565 42.0704 25.9576 42.0704C17.0588 42.0704 9.84488 34.8565 9.84488 25.9576C9.85531 17.0632 17.0632 9.85531 25.9576 9.84488Z" fill="black"/>
<path d="M25.9577 50.8592C39.7105 50.8592 50.8592 39.7104 50.8592 25.9576C50.8592 12.2048 39.7105 1.05609 25.9577 1.05609C12.2049 1.05609 1.05615 12.2048 1.05615 25.9576C1.07153 39.704 12.2113 50.8438 25.9577 50.8592ZM25.9577 3.98568C38.0924 3.98568 47.9296 13.8229 47.9296 25.9576C47.9296 38.0924 38.0924 47.9296 25.9577 47.9296C13.8229 47.9296 3.98574 38.0924 3.98574 25.9576C3.99948 13.8286 13.8286 3.99942 25.9577 3.98568Z" fill="black"/>
<path d="M25.9575 33.2816C23.5758 33.2816 21.5631 31.9399 21.5631 30.352C21.5631 29.5431 20.9073 28.8872 20.0983 28.8872C19.2894 28.8872 18.6335 29.5431 18.6335 30.352C18.6335 33.182 21.1545 35.5477 24.4927 36.0926V39.1408H27.4223V36.0926C30.7606 35.5477 33.2815 33.182 33.2815 30.352C33.2815 27.1207 29.996 24.4928 25.9575 24.4928C23.5758 24.4928 21.5631 23.1511 21.5631 21.5633C21.5631 19.9754 23.5758 18.6337 25.9575 18.6337C28.3393 18.6337 30.3519 19.9754 30.3519 21.5633C30.3519 22.3722 31.0078 23.028 31.8167 23.028C32.6257 23.028 33.2815 22.3722 33.2815 21.5633C33.2815 18.7333 30.7606 16.3676 27.4223 15.8227V12.7745H24.4927V15.8227C21.1545 16.3676 18.6335 18.7333 18.6335 21.5633C18.6335 24.7946 21.9191 27.4224 25.9575 27.4224C28.3393 27.4224 30.3519 28.7642 30.3519 30.352C30.3519 31.9399 28.3393 33.2816 25.9575 33.2816Z" fill="black"/>
<path d="M75.7608 34.6629L90 24.4928L75.7608 14.3228V20.0984H53.7888V23.028H78.6903V20.015L84.9582 24.4928L78.6903 28.9707V25.9576H53.7888V28.8872H75.7608V34.6629Z" fill="#1D73F8"/>
<path d="M56.7184 15.704H53.7888V18.6336H56.7184V15.704Z" fill="#1D73F8"/>
<path d="M62.5775 15.704H59.6479V18.6336H62.5775V15.704Z" fill="#1D73F8"/>
<path d="M68.4367 15.704H65.5071V18.6336H68.4367V15.704Z" fill="#1D73F8"/>
<path d="M74.2958 15.704H71.3662V18.6336H74.2958V15.704Z" fill="#1D73F8"/>
<path d="M14.2393 53.8723L0 64.0423L14.2393 74.2124V68.4367H36.2112V65.5071H11.3097V68.5202L5.04183 64.0423L11.3097 59.5645V62.5775H36.2112V59.6479H14.2393V53.8723Z" fill="#1D73F8"/>
<path d="M36.2111 69.9015H33.2815V72.8311H36.2111V69.9015Z" fill="#1D73F8"/>
<path d="M30.352 69.9015H27.4224V72.8311H30.352V69.9015Z" fill="#1D73F8"/>
<path d="M24.4928 69.9015H21.5632V72.8311H24.4928V69.9015Z" fill="#1D73F8"/>
<path d="M18.6337 69.9015H15.7041V72.8311H18.6337V69.9015Z" fill="#1D73F8"/>
</svg>
