<svg width="90" height="89" viewBox="0 0 90 89" fill="none" xmlns="http://www.w3.org/2000/svg">
<path d="M78.2578 3.78125H76.377C75.6563 3.78125 75.0586 4.37891 75.0586 5.09961C75.0586 5.82031 75.6563 6.41797 76.377 6.41797H78.2578C83.2676 6.41797 87.3633 10.4961 87.3633 15.5234V51.0312H82.8809V16.8418C82.8809 13.5723 80.2266 10.918 76.957 10.918H13.0605C9.79102 10.918 7.13672 13.5723 7.13672 16.8418V51.0312H2.63672V15.5234C2.63672 10.4961 6.71484 6.41797 11.7422 6.41797H70.1719C70.8926 6.41797 71.4902 5.82031 71.4902 5.09961C71.4902 4.37891 70.8926 3.78125 70.1719 3.78125H11.7422C5.27344 3.78125 0 9.05469 0 15.5234V55.2676C0 60.9805 4.07812 65.832 9.68555 66.834C9.75586 66.8516 9.84375 66.8516 9.91406 66.8516C10.5469 66.8516 11.0918 66.3945 11.2148 65.7617C11.3379 65.041 10.8633 64.3555 10.1426 64.2324C5.80078 63.459 2.63672 59.6973 2.63672 55.2676V53.668H8.4375H81.5449H87.3457V55.2676C87.3457 60.2773 83.2676 64.373 78.2402 64.373H16.1016C15.3809 64.373 14.7832 64.9707 14.7832 65.6914C14.7832 66.4121 15.3809 67.0098 16.1016 67.0098H31.8691L31.166 74.6387H30.5859C28.1074 74.6387 25.875 76.3086 25.1719 78.6816L24.873 79.7188C24.5566 80.791 24.7676 81.916 25.4355 82.8125C26.1035 83.709 27.123 84.2187 28.248 84.2187H61.752C62.8594 84.2187 63.8965 83.709 64.5645 82.8125C65.2324 81.916 65.4434 80.791 65.127 79.7188L64.8281 78.6816C64.125 76.291 61.9102 74.6387 59.4141 74.6387H58.834L58.1309 67.0098H78.2578C84.7266 67.0098 90 61.7363 90 55.2676V15.5234C90 9.05469 84.7266 3.78125 78.2578 3.78125ZM43.6816 51.0312H9.75586V16.8418C9.75586 15.0313 11.2324 13.5547 13.043 13.5547H43.6641V51.0312H43.6816ZM80.2441 51.0312H46.3184V13.5547H76.9395C78.75 13.5547 80.2266 15.0313 80.2266 16.8418V51.0312H80.2441ZM34.5234 67.0098H55.4766L56.1797 74.6387H33.8203L34.5234 67.0098ZM59.3965 77.2754C60.7148 77.2754 61.9102 78.1543 62.2793 79.4375L62.5781 80.4746C62.6836 80.8437 62.543 81.1074 62.4375 81.2305C62.2793 81.459 62.0156 81.582 61.7344 81.582H28.248C27.8613 81.582 27.6504 81.3711 27.5449 81.2305C27.4395 81.1074 27.2988 80.8262 27.4043 80.4746L27.7031 79.4375C28.0723 78.1719 29.2676 77.2754 30.5859 77.2754H59.3965Z" fill="black"/>
<path d="M15.3984 39.9219L24.3633 45.1074C25.0664 45.5117 25.8398 45.7227 26.6133 45.7402C26.6484 45.7402 26.6836 45.7402 26.7188 45.7402C26.7539 45.7402 26.7891 45.7402 26.8242 45.7402C27.5977 45.7227 28.3887 45.5117 29.0742 45.1074L38.0391 39.9219C38.7422 39.5176 39.1641 38.7969 39.1641 37.9883V25.666C39.1641 25.6133 39.1641 25.5606 39.1465 25.5078C39.0938 24.7695 38.6895 24.1016 38.0391 23.7324L29.0742 18.5469C27.6152 17.7031 25.8047 17.7031 24.3457 18.5469L15.3809 23.7324C14.7305 24.1016 14.3262 24.7695 14.2734 25.5078C14.2734 25.5606 14.2559 25.6133 14.2559 25.666V37.9883C14.2734 38.7969 14.6953 39.5176 15.3984 39.9219ZM36.5273 37.7598L28.0371 42.6641V33.2246C28.3887 33.1191 28.7402 32.9785 29.0742 32.7852L36.5273 28.4785V37.7598ZM25.6816 20.832C26.332 20.4629 27.123 20.4629 27.7734 20.832L36.1406 25.666L27.7734 30.5C27.123 30.8691 26.332 30.8691 25.6816 30.5L17.3145 25.666L25.6816 20.832ZM16.9102 28.4785L24.3633 32.7852C24.6973 32.9785 25.0488 33.1191 25.4004 33.2246V42.6641L16.9102 37.7598V28.4785Z" fill="#1D73F8"/>
<path d="M54.7734 43.7012H63.334C64.0547 43.7012 64.6523 43.1035 64.6523 42.3828C64.6523 41.6621 64.0547 41.0645 63.334 41.0645H54.7734C54.0527 41.0645 53.4551 41.6621 53.4551 42.3828C53.4551 43.1035 54.0352 43.7012 54.7734 43.7012Z" fill="#1D73F8"/>
<path d="M60.1522 33.5937C60.2928 33.6465 60.451 33.6816 60.6092 33.6816C61.1542 33.6816 61.6463 33.3476 61.8397 32.8203L67.1835 18.1426C67.4295 17.457 67.078 16.7012 66.3924 16.4551C65.7069 16.209 64.951 16.5605 64.7049 17.2461L59.3612 31.9238C59.1151 32.5918 59.4667 33.3476 60.1522 33.5937Z" fill="black"/>
<path d="M54.7734 39.7461H58.7109C59.4316 39.7461 60.0293 39.1484 60.0293 38.4277C60.0293 37.707 59.4316 37.1094 58.7109 37.1094H54.7734C54.0527 37.1094 53.4551 37.707 53.4551 38.4277C53.4551 39.1484 54.0352 39.7461 54.7734 39.7461Z" fill="#1D73F8"/>
<path d="M58.4297 45.0195H54.7734C54.0527 45.0195 53.4551 45.6172 53.4551 46.3379C53.4551 47.0586 54.0527 47.6562 54.7734 47.6562H58.4297C59.1504 47.6562 59.748 47.0586 59.748 46.3379C59.748 45.6172 59.1504 45.0195 58.4297 45.0195Z" fill="#1D73F8"/>
<path d="M45 61.5605C46.398 61.5605 47.5312 60.4273 47.5312 59.0293C47.5312 57.6313 46.398 56.498 45 56.498C43.602 56.498 42.4688 57.6313 42.4688 59.0293C42.4688 60.4273 43.602 61.5605 45 61.5605Z" fill="black"/>
<path d="M69.2754 19.3203C68.7656 18.8105 67.9219 18.8105 67.4121 19.3203C66.9023 19.8301 66.9023 20.6738 67.4121 21.1836L71.2441 25.0156L67.4121 28.8477C66.9023 29.3574 66.9023 30.2012 67.4121 30.7109C67.6758 30.9746 68.0098 31.0977 68.3437 31.0977C68.6777 31.0977 69.0117 30.9746 69.2754 30.7109L74.0391 25.9473C74.5488 25.4375 74.5488 24.5937 74.0391 24.084L69.2754 19.3203Z" fill="black"/>
<path d="M71.7891 41.0645H67.2363C66.5156 41.0645 65.918 41.6621 65.918 42.3828C65.918 43.1035 66.5156 43.7012 67.2363 43.7012H71.7891C72.5098 43.7012 73.1074 43.1035 73.1074 42.3828C73.1074 41.6445 72.5098 41.0645 71.7891 41.0645Z" fill="#1D73F8"/>
<path d="M58.2012 31.0977C58.5352 31.0977 58.8691 30.9746 59.1328 30.7109C59.6426 30.2012 59.6426 29.3574 59.1328 28.8477L55.3184 25.0156L59.1504 21.1836C59.6602 20.6738 59.6602 19.8301 59.1504 19.3203C58.6406 18.8105 57.7969 18.8105 57.2871 19.3203L52.5234 24.084C52.0137 24.5937 52.0137 25.4375 52.5234 25.9473L57.2871 30.7109C57.5332 30.957 57.8672 31.0977 58.2012 31.0977Z" fill="black"/>
<path d="M70.2949 45.0195H62.332C61.6113 45.0195 61.0137 45.6172 61.0137 46.3379C61.0137 47.0586 61.6113 47.6562 62.332 47.6562H70.2949C71.0156 47.6562 71.6133 47.0586 71.6133 46.3379C71.6133 45.6172 71.0156 45.0195 70.2949 45.0195Z" fill="#1D73F8"/>
<path d="M68.7656 38.4277C68.7656 37.707 68.168 37.1094 67.4473 37.1094H62.5957C61.875 37.1094 61.2773 37.707 61.2773 38.4277C61.2773 39.1484 61.875 39.7461 62.5957 39.7461H67.4473C68.168 39.7461 68.7656 39.166 68.7656 38.4277Z" fill="#1D73F8"/>
</svg>
