<svg width="50" height="50" viewBox="0 0 50 50" fill="none" xmlns="http://www.w3.org/2000/svg">
<g clip-path="url(#clip0)">
<path d="M46.3456 40.2358C47.3386 39.5 48.1263 38.2007 48.6942 36.3546C48.8133 35.9677 48.5961 35.5575 48.2091 35.4384C47.8229 35.3197 47.4121 35.5365 47.2931 35.9235C46.9206 37.1341 46.2699 38.6264 45.229 39.2159C43.9872 38.2079 42.5548 37.4259 40.9948 36.9341C44.0186 35.4878 46.1125 32.3984 46.1125 28.8288V27.3459C46.1125 26.9889 45.8554 26.6839 45.5037 26.6234C41.8753 25.9996 39.3641 22.3173 39.3397 22.2809C39.189 22.0555 38.9269 21.9317 38.6563 21.9589C38.3865 21.9863 38.1538 22.1604 38.0516 22.4116C38.0344 22.4536 36.2543 26.6129 28.8872 26.6129C28.4823 26.6129 28.1542 26.941 28.1542 27.3459V28.8288C28.1542 32.3984 30.2482 35.4878 33.272 36.9341C31.7123 37.4259 30.2803 38.2076 29.0386 39.2153C28.4589 38.887 27.9417 38.2464 27.4979 37.3023C25.7544 33.5934 25.7537 26.2485 26.9759 23.0601C27.7679 20.9939 29.149 19.239 30.9696 17.9853C32.7912 16.7309 34.9225 16.068 37.1334 16.068C39.3442 16.068 41.4756 16.731 43.2971 17.9853C45.1177 19.2391 46.4988 20.9939 47.2908 23.0601C48.1369 25.2674 48.3934 29.6137 47.8873 33.1701C47.8302 33.5709 48.1089 33.9421 48.5097 33.999C48.9094 34.0556 49.2816 33.7774 49.3386 33.3766C49.8841 29.544 49.5985 24.9845 48.6597 22.5353C47.7611 20.1913 46.1942 18.2004 44.1285 16.7779C42.0614 15.3544 39.6426 14.602 37.1334 14.602C34.6242 14.602 32.2053 15.3544 30.1382 16.7779C28.0724 18.2004 26.5056 20.1913 25.607 22.5353C24.2582 26.0539 24.2536 33.847 26.171 37.9259C26.6557 38.9569 27.2422 39.7293 27.9221 40.235C26.6342 41.5567 25.6277 43.1534 24.9998 44.9278C23.6569 41.1324 20.5812 38.1491 16.7277 36.9341C18.2645 36.199 19.5608 35.0394 20.4644 33.6081C20.8387 33.8011 21.2569 33.9052 21.6855 33.9052C23.1592 33.9052 24.3582 32.7062 24.3582 31.2325C24.3582 30.6618 24.1778 30.1328 23.872 29.6982C24.9614 26.5301 25.7708 22.2612 23.8757 19.1285C22.8132 17.3723 21.0479 16.2434 18.9049 15.9498C17.3808 15.7409 16.1343 16.1477 15.4355 16.4668C14.4162 15.2533 13.256 14.602 10.8498 14.602C8.8763 14.602 5.74856 15.3862 3.42896 17.5962C3.13586 17.8754 3.12472 18.3394 3.40394 18.6326C3.68317 18.9256 4.1471 18.9368 4.4403 18.6576C6.44637 16.7461 9.14683 16.068 10.8498 16.068C13.1751 16.068 13.8358 16.7364 14.6474 17.8373C14.8791 18.1515 15.3196 18.2267 15.6452 18.0114C15.6581 18.0028 16.9531 17.1625 18.7059 17.4023C20.4019 17.6346 21.7924 18.5172 22.6213 19.8874C23.8554 21.9275 23.8607 24.9758 22.6466 28.7393C22.3955 28.6422 22.1264 28.5818 21.8455 28.5651V27.346C21.8455 26.989 21.5884 26.684 21.2366 26.6235C17.6082 25.9997 15.097 22.3174 15.0726 22.281C14.922 22.0556 14.6598 21.9318 14.3892 21.959C14.1194 21.9864 13.8867 22.1605 13.7844 22.4117C13.7672 22.4537 11.9871 26.613 4.62023 26.613C4.21532 26.613 3.88723 26.9411 3.88723 27.346V28.5651C3.58465 28.5831 3.29546 28.6515 3.02796 28.7623C1.8582 25.6695 1.79985 22.9969 2.8582 20.809C3.03461 20.4445 2.88205 20.0062 2.5177 19.8299C2.15325 19.6535 1.71473 19.8061 1.53861 20.1705C0.244039 22.8464 0.344313 26.0625 1.83464 29.7349C1.54438 30.1624 1.37461 30.678 1.37461 31.2325C1.37461 32.7062 2.5736 33.9052 4.04732 33.9052C4.47598 33.9052 4.89408 33.801 5.26839 33.6081C6.17194 35.0394 7.46827 36.1991 9.00512 36.9341C3.79126 38.5779 0 43.4585 0 49.2083V49.2373C0 49.6421 0.32809 49.9703 0.732997 49.9703H25H49.267C49.6719 49.9703 50 49.6421 50 49.2373V49.2083C50 45.7218 48.6054 42.5554 46.3456 40.2358ZM37.1334 37.8078C37.8684 37.8078 38.5872 37.8782 39.2839 38.0118C38.9195 38.8471 38.0852 39.4212 37.1334 39.4212C36.1818 39.4212 35.3474 38.8471 34.983 38.0118C35.6798 37.8782 36.3985 37.8078 37.1334 37.8078ZM29.6202 28.8287V28.0658C35.1805 27.8667 37.7632 25.421 38.8061 23.9874C39.8149 25.186 41.8791 27.2393 44.6466 27.9389V28.8287C44.6466 32.9715 41.2763 36.3418 37.1334 36.3418C32.9906 36.3418 29.6202 32.9715 29.6202 28.8287ZM12.8664 37.8078C13.6014 37.8078 14.3202 37.8782 15.0169 38.0118C14.6525 38.8471 13.8182 39.4212 12.8664 39.4212C11.9147 39.4212 11.0804 38.8471 10.716 38.0118C11.4128 37.8782 12.1315 37.8078 12.8664 37.8078ZM21.6857 32.4392C21.4958 32.4392 21.311 32.3922 21.1442 32.3075C21.4466 31.5906 21.6581 30.8265 21.7651 30.0297C22.3935 30.0709 22.8924 30.5938 22.8924 31.2325C22.8923 31.8979 22.3509 32.4392 21.6857 32.4392ZM4.04732 32.4392C3.38195 32.4392 2.84061 31.8979 2.84061 31.2325C2.84061 30.5939 3.33963 30.0709 3.96786 30.0297C4.07488 30.8265 4.28637 31.5906 4.58876 32.3075C4.42203 32.3921 4.23721 32.4392 4.04732 32.4392ZM5.3717 29.3266C5.3715 29.3238 5.37131 29.3209 5.37111 29.3182C5.36065 29.1562 5.35342 28.9933 5.35342 28.8287V28.0658C10.9135 27.8667 13.4963 25.421 14.5392 23.9874C15.5479 25.186 17.6122 27.2393 20.3797 27.9389V28.8287C20.3797 28.9933 20.3724 29.1562 20.362 29.3182C20.3617 29.321 20.3616 29.3238 20.3613 29.3266C20.1039 33.2379 16.8417 36.3418 12.8664 36.3418C8.89116 36.3418 5.62913 33.2379 5.3717 29.3266ZM1.4875 48.5043C1.77688 43.776 4.96161 39.8181 9.28649 38.3841C9.825 39.8564 11.2409 40.8873 12.8665 40.8873C14.4921 40.8873 15.9081 39.8564 16.4466 38.3841C20.7714 39.8182 23.9561 43.7761 24.2456 48.5043H1.4875ZM25.7544 48.5043C26.0438 43.776 29.2285 39.8181 33.5534 38.3841C34.0919 39.8564 35.5079 40.8873 37.1334 40.8873C38.7591 40.8873 40.175 39.8564 40.7135 38.3841C45.0383 39.8182 48.223 43.7761 48.5125 48.5043H25.7544Z" fill="black"/>
</g>
<path d="M33.7259 29.1142C33.0706 29.1142 32.5376 29.6473 32.5376 30.3026C32.5376 30.9579 33.0706 31.491 33.7259 31.491C34.3812 31.491 34.9144 30.9578 34.9144 30.3026C34.9144 29.6473 34.3812 29.1142 33.7259 29.1142Z" fill="#1D73F8"/>
<path d="M40.541 31.491C41.1963 31.491 41.7293 30.9578 41.7293 30.3026C41.7293 29.6473 41.1963 29.1142 40.541 29.1142C39.8857 29.1142 39.3525 29.6473 39.3525 30.3026C39.3525 30.9578 39.8857 31.491 40.541 31.491Z" fill="#1D73F8"/>
<path d="M9.45884 29.1142C8.80354 29.1142 8.27051 29.6473 8.27051 30.3026C8.27051 30.9579 8.80354 31.491 9.45884 31.491C10.1141 31.491 10.6473 30.9578 10.6473 30.3026C10.6473 29.6473 10.1141 29.1142 9.45884 29.1142Z" fill="#1D73F8"/>
<path d="M16.2741 31.491C16.9294 31.491 17.4625 30.9578 17.4625 30.3026C17.4625 29.6473 16.9294 29.1142 16.2741 29.1142C15.6188 29.1142 15.0857 29.6473 15.0857 30.3026C15.0856 30.9578 15.6188 31.491 16.2741 31.491Z" fill="#1D73F8"/>
<path d="M20.1504 10.9513C20.4459 10.6747 20.4612 10.2108 20.1846 9.91522C18.515 8.13178 17.7882 6.35197 18.0243 4.62542C18.3817 2.01272 20.2583 1.57615 21.0485 1.50969C22.5463 1.38371 23.9442 2.14622 24.3004 3.28325C24.3962 3.58896 24.6796 3.79703 24.9999 3.79703C25.3203 3.79703 25.6036 3.58896 25.6994 3.28325C26.0557 2.14622 27.4531 1.38352 28.9514 1.50969C29.7415 1.57615 31.6181 2.01262 31.9755 4.62542C32.5918 9.13052 26.4829 12.7168 24.9989 13.5167C24.4864 13.2418 23.4242 12.6362 22.2754 11.7705C21.9521 11.5268 21.4925 11.5915 21.2489 11.9147C21.0053 12.238 21.0699 12.6977 21.3932 12.9412C23.1046 14.2309 24.6159 14.9709 24.6794 15.0018C24.8799 15.0994 25.1198 15.0994 25.3204 15.0018C25.4105 14.958 27.5502 13.9088 29.6213 12.1248C32.4655 9.67479 33.7818 7.01284 33.428 4.42673C33.0188 1.43434 30.9106 0.203292 29.0742 0.048874C27.439 -0.0887341 25.9096 0.525713 24.9999 1.59169C24.0904 0.525713 22.5615 -0.089125 20.9257 0.048874C19.0893 0.203292 16.9812 1.43434 16.5718 4.42673C16.2728 6.61194 17.1282 8.79568 19.1142 10.9171C19.3907 11.2126 19.8545 11.228 20.1504 10.9513Z" fill="#1D73F8"/>
<defs>
<clipPath id="clip0">
<rect width="50" height="50" fill="white"/>
</clipPath>
</defs>
</svg>
