<svg width="50" height="51" viewBox="0 0 50 51" fill="none" xmlns="http://www.w3.org/2000/svg">
<path d="M48.8913 9.43175L25.5663 1.09842C25.198 0.968415 24.7963 0.968415 24.428 1.09842L1.10882 9.43175C0.447889 9.66999 0.00732422 10.2971 0.00732422 10.9997C0.00732422 11.7022 0.447889 12.3293 1.10882 12.5676L12.5005 16.6376V21.8334C12.5005 25.0734 23.7213 25.1668 25.0005 25.1668C26.2797 25.1668 37.5005 25.0734 37.5005 21.8334V16.6376L40.0005 15.7501V17.6668C40.0005 18.5872 40.7467 19.3334 41.6672 19.3334H43.3338C44.2543 19.3334 45.0005 18.5872 45.0005 17.6668V15.1668C44.998 14.7809 44.9049 14.4009 44.7288 14.0576L48.8955 12.5676C49.5564 12.3293 49.997 11.7022 49.997 10.9997C49.997 10.2971 49.5564 9.66999 48.8955 9.43175H48.8913ZM35.8338 20.0001C32.6597 18.5551 25.9713 18.5001 25.0005 18.5001C24.0297 18.5001 17.3413 18.5551 14.1672 20.0001V12.7401C14.6672 12.0984 18.5972 11.0001 25.0005 11.0001C31.4038 11.0001 35.3338 12.0984 35.8338 12.7401V20.0001ZM25.0005 23.5001C18.8338 23.5001 14.9613 22.4818 14.2372 21.8334C14.9613 21.1851 18.8355 20.1668 25.0005 20.1668C31.1655 20.1668 35.0397 21.1851 35.7638 21.8334C35.0397 22.4818 31.1672 23.5001 25.0005 23.5001ZM40.3913 13.8376L37.5005 14.8684V12.6668C37.5005 9.42675 26.2797 9.33342 25.0005 9.33342C23.7213 9.33342 12.5005 9.42675 12.5005 12.6668V14.8676L1.66716 11.0001L25.0122 2.66675L41.6672 8.61842V12.8201C41.1402 13.0073 40.6911 13.3655 40.3913 13.8376ZM43.3338 17.6668H41.6672V15.1668C41.6672 14.7065 42.0403 14.3334 42.5005 14.3334C42.9607 14.3334 43.3338 14.7065 43.3338 15.1668V17.6668ZM43.3338 12.7868V9.21425L48.3338 11.0001L43.3338 12.7868Z" fill="black"/>
<path d="M47.5 26.8333C47.45 26.8332 47.4 26.8377 47.3508 26.8467C39.9569 27.9962 32.4826 28.5491 25 28.5C17.5174 28.5491 10.0431 27.9962 2.64917 26.8467C2.59988 26.8383 2.55 26.8338 2.5 26.8333C1.91667 26.8333 0 27.4942 0 36C0 44.5058 1.91667 45.1667 2.5 45.1667C2.55004 45.1656 2.59992 45.1606 2.64917 45.1517C8.33058 44.2518 14.0653 43.729 19.8158 43.5867L18.1892 47.4883C17.9392 48.1131 18.0912 48.8269 18.5739 49.2957C19.0565 49.7645 19.7745 49.8955 20.3917 49.6275L21.0292 49.355L21.305 49.9892C21.5655 50.6041 22.1697 51.0026 22.8375 51H22.8583C23.5312 50.9948 24.1343 50.5841 24.3858 49.96L25.8333 46.495L27.2758 49.9467C27.5251 50.5766 28.1309 50.993 28.8083 51H28.8333C29.4966 51.0027 30.0975 50.6092 30.36 50L30.6383 49.3608L31.2658 49.63C31.8857 49.9036 32.6096 49.7733 33.0951 49.3006C33.5806 48.828 33.7303 48.1078 33.4733 47.4808L31.8783 43.6558C37.063 43.8394 42.2316 44.3404 47.355 45.1558C47.4029 45.1638 47.4514 45.1674 47.5 45.1667C48.0833 45.1667 50 44.5058 50 36C50 27.4942 48.0833 26.8333 47.5 26.8333ZM27.6667 30.1417C28.0127 31.4141 28.2143 32.7216 28.2675 34.0392C26.378 33.1606 24.1619 33.3665 22.4667 34.5783C22.424 33.0819 22.2323 31.5934 21.8942 30.135C22.9036 30.1561 23.9389 30.1667 25 30.1667C25.9108 30.1667 26.795 30.1567 27.6667 30.1417ZM25.8333 43.5C23.5321 43.5 21.6667 41.6345 21.6667 39.3333C21.6667 37.0322 23.5321 35.1667 25.8333 35.1667C28.1345 35.1667 30 37.0322 30 39.3333C29.9972 41.6334 28.1334 43.4973 25.8333 43.5ZM2.5 28.9167C3.13851 31.2213 3.41956 33.6102 3.33333 36C3.41956 38.3899 3.13851 40.7788 2.5 43.0833C1.86149 40.7788 1.58044 38.3899 1.66667 36C1.58044 33.6102 1.86149 31.2213 2.5 28.9167ZM4.18333 43.225C4.63917 41.9033 5 39.6917 5 36C5 32.3083 4.63917 30.0967 4.1825 28.7733C9.47799 29.5047 14.8096 29.9451 20.1533 30.0925C20.6532 32.0206 20.882 34.0088 20.8333 36C20.8333 36.1208 20.8333 36.2358 20.8283 36.3517C19.8283 38.0113 19.7275 40.062 20.56 41.8117L20.5233 41.9C15.056 42.034 9.60065 42.477 4.18333 43.2267V43.225ZM22.8392 49.3333L22.2308 47.9333C22.0479 47.513 21.5597 47.3193 21.1383 47.5L19.7358 48.12L21.69 43.435C22.4923 44.248 23.5158 44.8073 24.6333 45.0433L22.8392 49.3333ZM30.5283 47.5C30.107 47.3193 29.6188 47.513 29.4358 47.9333L28.8192 49.3192L27.0325 45.0417C28.1509 44.8055 29.1753 44.2459 29.9783 43.4325L31.9283 48.0992L30.5283 47.5ZM47.3333 43.4583C41.9794 42.6344 36.5808 42.1334 31.1667 41.9583L31.1075 41.815C32.1555 39.6066 31.7062 36.9782 29.9842 35.2433C29.9777 33.5151 29.7781 31.7931 29.3892 30.1092C35.3982 29.9746 41.3921 29.4508 47.3333 28.5408C47.72 29.1975 48.3333 31.795 48.3333 36C48.3333 40.205 47.7158 42.8017 47.3333 43.4583Z" fill="black"/>
<path d="M48.884 9.265L25.559 0.931664C25.1907 0.801661 24.789 0.801661 24.4207 0.931664L1.1015 9.265C0.440564 9.50324 0 10.1304 0 10.8329C0 11.5355 0.440564 12.1626 1.1015 12.4008L12.4932 16.4708V21.6667C12.4932 24.9067 23.714 25 24.9932 25C26.2723 25 37.4932 24.9067 37.4932 21.6667V16.4708L39.9932 15.5833V17.5C39.9932 18.4205 40.7394 19.1667 41.6598 19.1667H43.3265C44.247 19.1667 44.9932 18.4205 44.9932 17.5V15C44.9907 14.6141 44.8976 14.2342 44.7215 13.8908L48.8882 12.4008C49.5491 12.1626 49.9897 11.5355 49.9897 10.8329C49.9897 10.1304 49.5491 9.50324 48.8882 9.265H48.884ZM35.8265 19.8333C32.6523 18.3883 25.964 18.3333 24.9932 18.3333C24.0223 18.3333 17.334 18.3883 14.1598 19.8333V12.5733C14.6598 11.9317 18.5898 10.8333 24.9932 10.8333C31.3965 10.8333 35.3265 11.9317 35.8265 12.5733V19.8333ZM24.9932 23.3333C18.8265 23.3333 14.954 22.315 14.2298 21.6667C14.954 21.0183 18.8282 20 24.9932 20C31.1582 20 35.0323 21.0183 35.7565 21.6667C35.0323 22.315 31.1598 23.3333 24.9932 23.3333ZM40.384 13.6708L37.4932 14.7017V12.5C37.4932 9.26 26.2723 9.16667 24.9932 9.16667C23.714 9.16667 12.4932 9.26 12.4932 12.5V14.7008L1.65983 10.8333L25.0048 2.5L41.6598 8.45166V12.6533C41.1329 12.8406 40.6838 13.1988 40.384 13.6708ZM43.3265 17.5H41.6598V15C41.6598 14.5398 42.0329 14.1667 42.4932 14.1667C42.9534 14.1667 43.3265 14.5398 43.3265 15V17.5ZM43.3265 12.62V9.0475L48.3265 10.8333L43.3265 12.62Z" fill="#1D73F8"/>
</svg>
