<svg width="55" height="55" viewBox="0 0 55 55" fill="none" xmlns="http://www.w3.org/2000/svg">
<path d="M36.416 23.418C37.0089 23.418 37.4902 22.9367 37.4902 22.3438C37.4902 21.7508 37.0089 21.2695 36.416 21.2695C35.8231 21.2695 35.3418 21.7508 35.3418 22.3438C35.3418 22.9367 35.8231 23.418 36.416 23.418Z" fill="black"/>
<path d="M7.8418 8.37891C8.43472 8.37891 8.91602 7.89761 8.91602 7.30469C8.91602 6.71177 8.43472 6.23047 7.8418 6.23047C7.24888 6.23047 6.76758 6.71177 6.76758 7.30469C6.76758 7.89761 7.24888 8.37891 7.8418 8.37891Z" fill="black"/>
<path d="M12.6917 36.9464L14.3198 37.6451C15.6643 38.2208 17.2064 38.2208 18.5521 37.6447L20.1789 36.9468C20.9061 36.6351 21.617 36.2801 22.3064 35.8881C23.2606 42.8756 28.0199 49.0712 34.8206 51.9855L36.4487 52.6841C37.7928 53.2594 39.3353 53.2598 40.6806 52.6837L42.3079 51.9859C49.8735 48.7439 55 41.3356 55 33.2265V20.1953C55 18.4182 53.5544 16.9727 51.7773 16.9727H32.8711V5.15625C32.8711 3.37917 31.4255 1.93359 29.6484 1.93359H3.22266C1.44558 1.93359 0 3.37917 0 5.15625V18.1874C0 26.307 5.13653 33.7091 12.6917 36.9464ZM52.8516 20.1953V33.2265C52.8516 40.3466 48.2744 47.0919 41.4615 50.0112L39.8346 50.7094C39.0277 51.0548 38.1016 51.0548 37.2951 50.7094L35.667 50.0112C29.2309 47.253 24.8333 41.2403 24.3281 34.5831C25.8538 33.4711 27.2025 32.1821 28.3522 30.76C29.3174 31.5673 30.5347 32.0117 31.7969 32.0117C33.1065 32.0117 34.3687 31.5346 35.3502 30.6689C35.795 30.2762 35.8374 29.5977 35.445 29.1525C35.0523 28.7077 34.3733 28.6653 33.9285 29.058C33.3398 29.5771 32.5828 29.8633 31.7969 29.8633C31.0109 29.8633 30.2539 29.5775 29.6652 29.058C29.6497 29.0438 29.6329 29.032 29.6165 29.019C31.5426 26.0569 32.6756 22.6522 32.8463 19.1211H42.3118H51.7773C52.3698 19.1211 52.8516 19.6028 52.8516 20.1953ZM2.14844 5.15625C2.14844 4.56375 2.63016 4.08203 3.22266 4.08203H29.6484C30.2409 4.08203 30.7227 4.56375 30.7227 5.15625V18.1874C30.7227 25.5232 26.0485 32.0948 19.3326 34.9721L17.7057 35.6704C16.8984 36.0157 15.9723 36.0157 15.1662 35.6704L13.5381 34.9721C6.72562 32.0528 2.14844 25.3075 2.14844 18.1874V5.15625Z" fill="black"/>
<path d="M22.8809 21.2695H9.99023C9.3969 21.2695 8.91602 21.7504 8.91602 22.3438C8.91602 26.49 12.2893 29.8633 16.4355 29.8633C20.5818 29.8633 23.9551 26.49 23.9551 22.3438C23.9551 21.7504 23.4742 21.2695 22.8809 21.2695ZM16.4355 27.7148C13.8419 27.7148 11.6716 25.8656 11.1723 23.4167H21.6988C21.1995 25.8652 19.0292 27.7148 16.4355 27.7148Z" fill="black"/>
<path d="M9.99032 14.8242C10.7763 14.8242 11.5333 15.1104 12.122 15.6299C12.5676 16.0231 13.2465 15.9786 13.6385 15.535C14.0308 15.0903 13.9884 14.4113 13.5436 14.019C12.5622 13.1529 11.2999 12.6758 9.99032 12.6758C8.6807 12.6758 7.41891 13.1529 6.43742 14.019C5.99263 14.4113 5.95025 15.0903 6.34259 15.535C6.73493 15.9798 7.41387 16.0222 7.85867 15.6299C8.44739 15.1104 9.20438 14.8242 9.99032 14.8242Z" fill="black"/>
<path d="M19.3279 14.0186C18.8827 14.4113 18.8403 15.0898 19.233 15.5351C19.6254 15.9798 20.3043 16.0222 20.7491 15.6295C21.3378 15.1104 22.0948 14.8242 22.8808 14.8242C23.6667 14.8242 24.4237 15.11 25.0124 15.6295C25.4585 16.0231 26.1374 15.9786 26.5289 15.5351C26.9213 15.0898 26.8789 14.4113 26.4341 14.0186C25.4526 13.1525 24.1904 12.6758 22.8808 12.6758C21.5711 12.6758 20.3094 13.1525 19.3279 14.0186Z" fill="black"/>
<path d="M12.1387 8.37891H25.0293C25.6226 8.37891 26.1035 7.89803 26.1035 7.30469C26.1035 6.71135 25.6226 6.23047 25.0293 6.23047H12.1387C11.5453 6.23047 11.0645 6.71135 11.0645 7.30469C11.0645 7.89803 11.5453 8.37891 12.1387 8.37891Z" fill="black"/>
<path d="M31.0449 43.8281C31.0449 44.4215 31.5258 44.9023 32.1191 44.9023H45.0098C45.6031 44.9023 46.084 44.4215 46.084 43.8281C46.084 39.6819 42.7107 36.3086 38.5645 36.3086C34.4182 36.3086 31.0449 39.6819 31.0449 43.8281ZM38.5645 38.457C41.1581 38.457 43.3288 40.3054 43.8277 42.7539H33.3012C33.8001 40.3054 35.9708 38.457 38.5645 38.457Z" fill="black"/>
<path d="M47.1413 29.0576C46.5526 29.5771 45.7956 29.8633 45.0097 29.8633C44.2237 29.8633 43.4667 29.5771 42.878 29.0576C42.4332 28.6653 41.7543 28.7077 41.3619 29.1525C40.9692 29.5972 41.0116 30.2762 41.4568 30.6685C42.4383 31.5346 43.7001 32.0117 45.0097 32.0117C46.3193 32.0117 47.5811 31.5346 48.5626 30.6685C49.0078 30.2762 49.0502 29.5972 48.6574 29.1525C48.2651 28.7077 47.5861 28.6653 47.1413 29.0576Z" fill="black"/>
<path d="M40.7129 23.418H47.1582C47.7515 23.418 48.2324 22.9371 48.2324 22.3438C48.2324 21.7504 47.7515 21.2695 47.1582 21.2695H40.7129C40.1196 21.2695 39.6387 21.7504 39.6387 22.3438C39.6387 22.9371 40.1196 23.418 40.7129 23.418Z" fill="black"/>
<path d="M7.8418 8.37891C8.43472 8.37891 8.91602 7.89761 8.91602 7.30469C8.91602 6.71177 8.43472 6.23047 7.8418 6.23047C7.24888 6.23047 6.76758 6.71177 6.76758 7.30469C6.76758 7.89761 7.24888 8.37891 7.8418 8.37891Z" fill="#1D73F8"/>
<path d="M22.8809 21.2695H9.99023C9.3969 21.2695 8.91602 21.7504 8.91602 22.3438C8.91602 26.49 12.2893 29.8633 16.4355 29.8633C20.5818 29.8633 23.9551 26.49 23.9551 22.3438C23.9551 21.7504 23.4742 21.2695 22.8809 21.2695ZM16.4355 27.7148C13.8419 27.7148 11.6716 25.8656 11.1723 23.4167H21.6988C21.1995 25.8652 19.0292 27.7148 16.4355 27.7148Z" fill="#1D73F8"/>
<path d="M9.99032 14.8242C10.7763 14.8242 11.5333 15.1104 12.122 15.6299C12.5676 16.0231 13.2465 15.9786 13.6385 15.535C14.0308 15.0903 13.9884 14.4113 13.5436 14.019C12.5622 13.1529 11.2999 12.6758 9.99032 12.6758C8.6807 12.6758 7.41891 13.1529 6.43742 14.019C5.99263 14.4113 5.95025 15.0903 6.34259 15.535C6.73493 15.9798 7.41387 16.0222 7.85867 15.6299C8.44739 15.1104 9.20438 14.8242 9.99032 14.8242Z" fill="#1D73F8"/>
<path d="M19.3279 14.0186C18.8827 14.4113 18.8403 15.0898 19.233 15.5351C19.6254 15.9798 20.3043 16.0222 20.7491 15.6295C21.3378 15.1104 22.0948 14.8242 22.8808 14.8242C23.6667 14.8242 24.4237 15.11 25.0124 15.6295C25.4585 16.0231 26.1374 15.9786 26.5289 15.5351C26.9213 15.0898 26.8789 14.4113 26.4341 14.0186C25.4526 13.1525 24.1904 12.6758 22.8808 12.6758C21.5711 12.6758 20.3094 13.1525 19.3279 14.0186Z" fill="#1D73F8"/>
<path d="M12.1387 8.37891H25.0293C25.6226 8.37891 26.1035 7.89803 26.1035 7.30469C26.1035 6.71135 25.6226 6.23047 25.0293 6.23047H12.1387C11.5453 6.23047 11.0645 6.71135 11.0645 7.30469C11.0645 7.89803 11.5453 8.37891 12.1387 8.37891Z" fill="#1D73F8"/>
</svg>
