<?xml version="1.0" encoding="utf-8"?>
<!-- Generator: Adobe Illustrator 24.1.1, SVG Export Plug-In . SVG Version: 6.00 Build 0)  -->
<svg version="1.1" id="Layer_1" xmlns="http://www.w3.org/2000/svg" xmlns:xlink="http://www.w3.org/1999/xlink" x="0px" y="0px"
	 viewBox="0 0 80 80" style="enable-background:new 0 0 80 80;" xml:space="preserve">
<style type="text/css">
	.st0{fill:#1D73F8;}
</style>
<path class="st0" d="M23.9,67.5c-3-2.4-6.2-4.6-8.4-7.8C10.9,54.1,7.4,47.6,5,40.8c-1.5-4.4-2-9.2-3.8-13.5c-2-3.1,0.3-6.5,3.7-7.5
	c1.5-0.3,4.2-1.7,1-0.7C3,21.3,2.7,17.3,5.6,17c2-0.3,2.8-1.9,2.1-3.4c-2.2-1.4,5.2-3,1.5-5.1c-3.9-4.2,5.4-5,3.1-0.2
	c-0.5,3.7,6.5-0.7,4.9,3.5c1.7,2,6.2,0.5,6.1,3.3c2.4,0.2,3.3,2.2,5.5,2.4c2.4,1.1,6.6,1.9,7.4,4.6c-2.3,1.8-7.7-3.8-8,1.3
	C29,31,28.8,38.8,31.5,46c1.3,4.4,4.5,7.8,7.3,11.2c2.7,3.3,6.5,5.7,10.2,7.6c3.3,1.6,6.9,2.6,10.5,3.3c1.5-1.1,4.1-5.3,6.3-3.5
	c0.1,2-4.5,4.1-0.2,3.9c2.5-0.8,4.3,2,6.4-0.5c1.9,2.3,8-1.5,6.6,3.2c-1.9,1.2-4.6,0.5-6.4,2.1c-3.1-1.5-5.5,1.4-8.9,1
	c-3.8,0.7-7.6,0.9-11.4,1c-6.3-0.5-12.7-0.7-18.6-2.9C30.1,71.3,26.9,69.4,23.9,67.5L23.9,67.5z M29.2,69.8
	c3.3,1.4,6.5,2.9,10.1,3.4c5.7,0.8,11.6,2,17.3,0.9c-2.6-1.2-5.3,0.5-7.8-0.8c-3.1,0.7-6.4-0.2-9.6-0.6c-3.6-1.6-7.4-2.7-10.8-4.8
	c-4.2-1.5,2.2,2,3.3,2.2c2.6,1.5-2.9-0.8-3.6-1.4c-2.2-1.2-2.5-1-0.2,0.3C28.3,69.3,28.7,69.6,29.2,69.8L29.2,69.8z M23,65.4
	c3.2,1.2,0-2.2-1.5-2c-0.6-1.1-2.5-1.8-1.2-2.4c-2.3,0.8-2.4-3-3.5-2.5c-2.4-0.8-0.9-3.5-3.9-5.2c-0.3-1.8-2.9-3.3-3.7-6
	c-0.4-1.4-3-5.3-1.4-1.6c1.4,3.5,3.7,6.5,5.7,9.5c1.5,2.9,3.4,5.8,6.2,7.6C20.7,63.7,21.6,65.1,23,65.4L23,65.4z M13.8,55.4
	C13.9,54.9,14.4,56.4,13.8,55.4z M26.8,66.8C27.5,66.5,25.8,66.4,26.8,66.8z M28.5,67.4C28.3,66.6,27.7,67.9,28.5,67.4z M30.6,68.3
	C31.7,67.4,29.1,67.7,30.6,68.3z M34.3,70.4C35,69.5,32.3,70.1,34.3,70.4z M27.2,65.5C28.8,64.4,25.2,65.4,27.2,65.5z M28.9,66.3
	C28.8,65.7,28.3,66.5,28.9,66.3z M36.9,71.3c1.3,0.8,7.6,1.8,3.7,0.3C39.9,71.8,33.3,69.8,36.9,71.3z M24.1,61.3
	C24,60.8,22.1,60.7,24.1,61.3z M27.9,63.5C28.9,62.8,25.8,63,27.9,63.5z M31,65.5C32.4,64.9,28.8,64.9,31,65.5z M22.6,59.6
	c1.5,1.2,6.2,0.2,2.3-0.7c-1.7-0.9-5.6-1.6-3,0.6L22.6,59.6z M33.2,66.1C33.8,65,30.5,65.5,33.2,66.1z M30,63.6
	c3.7,1.1-3.1-2.4-0.9-0.4l0.5,0.2L30,63.6z M36.4,67.3C40,67.3,33.2,66.8,36.4,67.3z M21.2,57.6C21.1,56.9,20.3,57.7,21.2,57.6z
	 M42.4,70.6C42.5,69.5,41.2,71.5,42.4,70.6z M27.2,61.3C27,60.7,26.1,61.3,27.2,61.3z M21.6,57.2C23.6,57.1,18.8,56.3,21.6,57.2z
	 M14.8,52.8C14.6,51.9,12.6,51.1,14.8,52.8z M32.5,64.1C32.1,63.6,32.3,64.2,32.5,64.1z M43.5,70.8C43.5,70.2,42.9,71.1,43.5,70.8z
	 M31.5,63.1C31.7,62.2,29.8,62.8,31.5,63.1z M23.3,57.9C24.8,57.7,20.9,56.8,23.3,57.9z M37.2,66.5C39.6,65.6,34.9,66,37.2,66.5z
	 M30,61.6c2.7,0.3-3.2-1.8-0.6-0.2L30,61.6z M39.4,67.4c2.5-1.5,1.7,3.5,4.3,0.4c2.6-1.9-2.2,2.3,0.9,0.3c2.3-1.5,5.7,0.7,7.8,1.5
	c1.5-0.1,3,1.3,4.6,0.5c3-0.8-5.9-1.2-3.6-2.7c-2.8,0.8-4.8-1-6.2-2.7c-3.1-0.7-6.7-2.3-8.2-5c-0.6-1,0.9,0.1-0.5-1.5
	c-1.9-1.7-2.8-3.6-4.1-5.6c-1.5-0.8-1.7-3.2-1.8-0.1c0-1.9-1.8-3.2-2.3-2.7c0-1.9,2-0.9,0.6-2.3c-0.3-1.9-1.3-4-1.6-6.1
	c-0.5-1.1-0.1-3.3-1.5-0.9c-0.5,2.5-0.2-3.1,0.7-1.2c1.1-1.9-0.4-1.7-0.5-1.4c0.7-1.6,0.5-3.9-0.2-3c0.4-1.7,0.6-6.2-0.6-5.4
	c0.7-1.8,1.4-8.1-1.7-5.7c-1.3,0-3.4,0.5-4.5,1c3.2,1.8-0.3,0.6-1.6,0.4c-0.2,1.6-1.5,0.9-3.1,1c2.6,0.3-1.3,2.7-2.8,1.7
	c-1.9,0.9,1.7,3.2,0,3.9c0.2,1.1-3-0.4-2.7,2.1c-1.9-0.8-0.3,2.9,0.7,1.7c3.2,0.9,2.2,2.8,2.3,4.7c-0.5,1.1-2.6-2.6-0.5-2.4
	c-1.7-2.7-1.8-1-3.2,0.3c-0.3,0.1,3.5,1.8,1.1,2.6c2.1,0.3,2.2,2.2,2.6,3.4c1.3,1.3,1-1.5,2.5,0.1c-1-1.4-5.1-4-1.8-3.2
	c0-1.4-0.6-2.6,0.4-2.6c1-1.8-1.1,4.5,1.2,2.2c0.6-0.3,0.8-1.8,1.9,0.1c1.7,1.6,0.6,2.8-1.7,1.3c0.4,1.4,3.1,1.9,2.6,4.1
	c0.5,2,1.3,1.2,2,1.1c0.5,1.9,0.8,0.5,0.8-0.4c2.4,0.5,1.8,1.9,2.5,2.9c1.6,0.7-2.3-5,0.5-1.7c2.9,2.7,1.1,3.8-1.5,3.3
	c1.7-0.1,2.2,2.3,4.3,2.2c1.9,0.9,3.2,4.4-0.1,2.9c-1.1-1-5.2-2.3-1.9-0.3c3,1.4,5.5,2.2,8.4,4c2.1,1.5,3,3.2,3.8,3.6
	c-1.8,0.8-5.3-0.7-2.7-1.1c-1.6-0.3-3.5-1.1-1.9,0.9c1.3,1.1,4.7,1,5.4,1.1c-0.5,1.1-1.4,1.2,0,1.3C37.2,66.8,39.3,66.9,39.4,67.4
	L39.4,67.4z M36.2,58.2c-1-1-1.2-2.9-0.2-1.3C36.5,57.1,37.7,60,36.2,58.2z M46.8,64.9C47.4,64.9,46.8,65.4,46.8,64.9z M34.6,55.7
	C34.6,54.2,35,56.9,34.6,55.7z M33.6,54.3C32.4,51.9,35.1,54.9,33.6,54.3z M20.8,45.5C21.5,45.3,21.2,46.7,20.8,45.5z M31,51
	C31.4,49.3,31.5,52.4,31,51z M23.8,46C23.3,45.1,24.8,46.8,23.8,46z M29.9,48c-1.2-2.6,0.8-1.4,0.3,0.4L29.9,48z M16,38.6
	C16.2,36.7,16.8,39.9,16,38.6z M17.5,39.1C18.2,37.6,18.7,41.2,17.5,39.1z M14,36.4c-1.2-1.2-2.1-2.3,0.1-0.8c0.8,0-1.9-2.5,0.2-0.8
	C16.4,35.2,15.3,38.3,14,36.4L14,36.4z M15.8,36.3C16.5,35.6,16.2,37,15.8,36.3z M17,36.7C15.9,34.7,18.3,37.5,17,36.7z M14.7,34.5
	c-3.6-3.2,4.5,1.7,0.6,0.6L14.7,34.5z M24.9,40.4c-1.5-0.9-0.4-6.5,0.1-2.7c1.5-0.5-0.1,2,1,1.9C25.8,41.2,25.3,41.8,24.9,40.4z
	 M28.6,42.6C28.8,41,29,43.8,28.6,42.6z M28,42C28.2,41.3,28,42.8,28,42z M15.4,33.5c-2.3-3.2,6.6,3.2,1.5,0.8
	C16.3,34.1,15.7,34.1,15.4,33.5z M22.6,37.3C22.4,34.7,23.1,37.7,22.6,37.3z M28.1,40.8C28.6,39.3,28.2,41.8,28.1,40.8z M15.7,32.3
	c1.4-0.3,5.6,2.4,1.7,0.8C17,32.5,16.1,32.8,15.7,32.3L15.7,32.3z M27.4,38.1c0.1-2.7,0.8-1.6,0,0.4L27.4,38.1L27.4,38.1z
	 M16.7,31.3c0.6-0.8-1.5-3.7,0.3-1c0.8,0.6,2.2,1,0.9,1.3C20,33.3,17.5,32,16.7,31.3z M26.8,37.2C27.2,34.1,27.2,39,26.8,37.2z
	 M15.6,28.5C16,28.3,15.8,29,15.6,28.5z M18.2,30C18.9,28.6,19.5,31.6,18.2,30z M25.6,34.1C25.6,33.6,25.8,34.9,25.6,34.1z
	 M25.2,33.2C24.2,30.7,26.2,34.5,25.2,33.2z M24.6,31.5C24.4,30.5,25.2,32.8,24.6,31.5z M25.6,29.9c-0.7-1.2,0.9-5.5,1.1-2.9
	c-0.7,2-0.2,3.2,0.3,0.4C27.9,25.3,26.8,31.7,25.6,29.9L25.6,29.9z M26.6,23.6C27,23.2,26.7,24,26.6,23.6z M24.9,58.3
	C24.5,57.9,24.9,58.5,24.9,58.3z M28.5,60.1c2,0.5,2-0.3,0.2-0.6c-1-0.9-4.1-1.9-1.3-0.1C27.6,59.9,28.2,59.9,28.5,60.1z M21.3,55.4
	c1.1,0.8,4.2,2.4,1.6,0.3c0.9-1-1.7-1.6-0.8-2.2c-2.2-1.3-1.7-1.2-0.2-1.2c-2.6-1.2,0.4-1.1,0.2-1.7c-1-0.2-5-1.8-2.6,0.1
	c-2.4-1.2-0.6,0.5-1.3,0.3c-2.4-0.7,2.2,1.9-0.4,1.2c1.4,1.1,3.8,2.8,0.6,1.2C18,54,20.7,54.9,21.3,55.4L21.3,55.4z M25.1,57.6
	C29.8,59.1,22.9,55.7,25.1,57.6z M44.6,69.3C44.7,68.4,44,70.1,44.6,69.3z M46.6,70.2c1.1-1,0,1.6,1.8-0.3c0-1.4-0.1-2.2-2-0.5
	C45.8,69.7,45.6,71,46.6,70.2L46.6,70.2z M14.9,50.3C14.5,49,12.6,49,14.9,50.3z M17,51.7C16.2,50.3,14.2,50.5,17,51.7z M29.1,59
	c1.2,1.1,5.4,0.8,1.4,0.1C30,58.2,26.8,58.4,29.1,59z M45.8,69.3C47.7,67.8,44.1,70,45.8,69.3z M49.6,71.9
	C49.6,71.4,48.8,72.1,49.6,71.9z M49.6,71.2C51.7,69.1,47.7,71.3,49.6,71.2z M9.6,45.9c-1.7-2.5-1.1-3.6-2.7-5.6
	c-0.3-1.5-2.8-5-1.3-1.3C7,41.1,7.4,44.5,9.6,45.9L9.6,45.9z M49,70.5C52.7,68.1,47.5,69.5,49,70.5z M51.8,71.6
	C53.7,70,50.7,71.3,51.8,71.6z M14.2,47.5C14.8,46.8,12.9,47.4,14.2,47.5z M51.2,70.9c1.8-1.2-0.4-1-0.3,0.1L51.2,70.9z M26.8,55.5
	C26.7,54.7,25.8,55.5,26.8,55.5z M28.3,56.3C27.8,55.4,27.6,56.5,28.3,56.3z M54.1,71.7c2.3-1.7-1.4-0.3-0.5,0.3L54.1,71.7z
	 M53.3,71.2C55.1,69.7,51.3,71.9,53.3,71.2z M57.8,74.2C59,73.4,56.2,74,57.8,74.2z M15.4,47c1.7,0.4,6.8,4.2,3.8,0.3
	c-1.5-0.5-0.6-4.2-2.2-3.5c1,1.8,0.9,2.5-1.3,1.4c-2.8-1.4-1.6,0.7-1,1.2C13.9,46.5,15.6,47,15.4,47L15.4,47z M7.7,40.9
	C8,39.6,4.9,34,6.2,38.1C6.7,38.9,6.6,40.5,7.7,40.9z M21.8,49.6C21,48.9,21.8,49.5,21.8,49.6z M24,50.1C24,48.8,21.6,49.6,24,50.1z
	 M42.6,61.8C42.2,60.9,41.2,61.8,42.6,61.8z M43.5,62.5C43.3,62,43,62.6,43.5,62.5z M50.8,67.1C51.6,66.6,50,67.1,50.8,67.1z
	 M11.5,41.9C13.6,41.1,9.4,41.3,11.5,41.9z M40.9,60.4C40.9,59.1,39.6,60.7,40.9,60.4z M10.7,40C12,39.6,9.5,39.7,10.7,40z
	 M14.5,41.8C14.5,41.4,14.1,42,14.5,41.8z M60.6,70.1c1.7-0.3,5.5,0.9,6.1-0.4c-2-0.1-7-1.4-7.3,0.3l0.4,0.1L60.6,70.1L60.6,70.1z
	 M15.7,42.1C15.7,40.8,14.7,42.1,15.7,42.1z M5.8,35.2C5.3,32.7,4,34.8,5.8,35.2z M8.1,35.8C8.2,35,6,35.1,8.1,35.8z M9.5,36.5
	C9.1,36.2,9.2,36.9,9.5,36.5z M18,42C18.4,41.6,17.1,41.7,18,42z M8.6,35C8.4,33.1,5.8,34.7,8.6,35z M3.7,31.8
	C3.7,31,3.3,32.2,3.7,31.8z M4.4,31.3C4.3,30.2,3.8,31.4,4.4,31.3z M8.4,33.7c1.7-0.7-3.1-1.4-0.3-0.1L8.4,33.7z M61.9,66.7
	C63,65.7,60.5,66.4,61.9,66.7z M68.4,70.1C68.8,68.8,67.3,70.2,68.4,70.1z M8.9,31.6C9,30.3,7.5,31.8,8.9,31.6z M3.2,27.8
	C2.9,26,2.9,23,5.8,24c-3.9,0.8,2.7,4.8,1.9,1.6c1.6,0.1,3.2-1,2.3,0.6c3.2-0.4,5.5-3.2,8.6-2.8c2.4-0.3,5.1-0.6,7.7-1.5
	c2.2-0.2,4.2-2.5,3-3.8c-2.9-0.2-6,0.1-9.3,0.8c-3.6,0.7-6.9,2.2-10.5,2.8c-3.5,0.5,0.7,1.3-0.3,1.5c-1.8,0.6,2.2,1.1-0.2,1.7
	c-1.5-0.3-3.1-0.8-2.4-2.4c-3.4,0.4-6.4,1.8-3.7,5.3L3.2,27.8L3.2,27.8z M11.3,23.6c0.8-2.9,4.3,2.4,1.3,0.4
	C12.3,23.7,11.7,23.5,11.3,23.6z M11.5,22.2C12.6,21.3,12.1,22.7,11.5,22.2z M12.9,22.2c0.1-1.3,3.3,0.7,0.5,0.5L12.9,22.2
	L12.9,22.2z M14.9,21.4C15.7,20.6,15.1,22.2,14.9,21.4z M15.4,21.1c1.2-1.5,6.9-0.9,2.7-0.1C17.1,20.1,16.2,21.4,15.4,21.1
	L15.4,21.1z M22.8,19.9C22.6,16,26.5,21.4,22.8,19.9z M24.9,19.9c0.8-2,3-0.8,0.4-0.4C25.3,19.7,25.2,20.6,24.9,19.9z M8,30.6
	C10.3,29.2,5.6,29.3,8,30.6z M9.7,31C10.5,30.2,8,30.7,9.7,31z M4.7,27.5C6,26.5,3.2,27.1,4.7,27.5z M72.2,69.7
	C72.2,68.5,71.2,70.2,72.2,69.7z M65.3,65C65.5,63.7,64.5,65.1,65.3,65z M74.1,70.1c1.8,0,5.5-0.6,1.6-0.6
	C75,69.7,72,69.7,74.1,70.1z M11.2,30.2c1.5-0.1,2.3-1.6-0.3-1.5c-4-0.4,3.6,1.4-0.5,0.9C9.9,29.9,11.2,30.3,11.2,30.2z M12.5,30.9
	C12.3,29.9,12,31.4,12.5,30.9z M14,26.7C14.7,26,13.2,26.5,14,26.7z M9.1,18.5c2.6-0.9,6.2-1.9,7.5,0.4c-1.3-1.5-0.5-3,0.7-0.8
	c1.7,2.3,2.5-1,1.4-1.8c1.3,1.6,2.7,2.3,0.8,0.1c2-2.4-4,0.3-5.4,0.3C13.6,17.1,7.4,18.3,9.1,18.5L9.1,18.5z M10.7,15.6
	c1.5-1.1,5.2,0.7,2.8-1.1C13.3,14.2,8.3,15.8,10.7,15.6z M16.2,15.8c1.8,0-0.8-2.4,1.3-1.3c-0.3-1.1-2.4-1.3-3.5-1.8
	C13.5,13.8,15.2,15.8,16.2,15.8z M11.6,10.8C12.2,10,10.6,11.2,11.6,10.8z M13.9,11.4c2.8-0.4-0.7-1.2-0.6,0L13.9,11.4L13.9,11.4z
	 M9.7,8.1c-2-2.6,3.8,0.4,1.7-2.3C9.7,4.4,8.1,7.3,9.7,8.1L9.7,8.1z M35.3,21.9c0.9-1.6-3.8-2.2-0.6-0.6C35,21.4,34.9,22,35.3,21.9
	L35.3,21.9z"/>
<path d="M15.4,33.5c-2.3-3.2,6.6,3.2,1.5,0.8C16.3,34.1,15.7,34.1,15.4,33.5z"/>
<path d="M19.8,41.6c-0.5-0.8-1.4-3.3-1.1-4.1c0.2,1.2,2.6,5.3,1.2,1.7c-1.6-3,1.9,1,2.3,1.7c0.2,0.8-1-0.2-0.2,1.6
	C20.6,40.5,21.2,43.6,19.8,41.6z"/>
<path d="M24.9,40.4c-1.5-0.9-0.4-6.5,0.1-2.7c1.5-0.5-0.1,2,1,1.9C25.8,41.2,25.3,41.7,24.9,40.4z"/>
<path d="M14,36.4c-1.2-1.2-2.1-2.3,0.1-0.8c0.8,0-1.9-2.5,0.2-0.8C16.4,35.2,15.3,38.3,14,36.4L14,36.4z"/>
<path d="M25.6,29.9c-0.7-1.2,0.9-5.5,1.1-2.9c-0.7,2-0.2,3.2,0.3,0.4C27.9,25.3,26.8,31.7,25.6,29.9L25.6,29.9z"/>
<path d="M15.4,21.1c1.2-1.5,6.9-0.9,2.7-0.1C17,20.1,16.2,21.4,15.4,21.1L15.4,21.1z"/>
<path d="M14.6,34.5c-3.6-3.2,4.5,1.7,0.6,0.6L14.6,34.5z"/>
<path d="M16.8,31.4c0.6-0.8-1.5-3.7,0.3-1c0.8,0.6,2.2,1,0.9,1.3C20,33.4,17.5,32.1,16.8,31.4z"/>
<path d="M15.7,32.2c1.4-0.3,5.6,2.4,1.7,0.8C17,32.5,16.1,32.7,15.7,32.2L15.7,32.2z"/>
<path d="M29.9,48c-1.2-2.6,0.8-1.4,0.3,0.4L29.9,48z"/>
<path d="M36.2,58.3c-1-1-1.2-2.9-0.2-1.3C36.5,57.2,37.7,60.1,36.2,58.3z"/>
</svg>
