<svg width="56" height="56" viewBox="0 0 56 56" fill="none" xmlns="http://www.w3.org/2000/svg">
<path d="M28 0C12.5361 0 0 12.5361 0 28C0 43.4639 12.5361 56 28 56C43.4639 56 56 43.4639 56 28C55.9825 12.5433 43.4567 0.0175 28 0ZM28 54.1333C13.5669 54.1333 1.86667 42.4331 1.86667 28C1.86667 13.5669 13.5669 1.86667 28 1.86667C42.4331 1.86667 54.1333 13.5669 54.1333 28C54.1169 42.4262 42.4262 54.1169 28 54.1333Z" fill="black"/>
<path d="M31.0296 45.5201C30.9796 45.0071 30.5231 44.6318 30.01 44.6818C29.998 44.683 29.9859 44.6844 29.9739 44.686L29.9777 44.6851C28.6636 44.8377 27.3362 44.8377 26.0222 44.6851C25.51 44.625 25.0463 44.9914 24.9862 45.5036C24.9261 46.0158 25.2926 46.4795 25.8047 46.5396C27.262 46.7098 28.7341 46.7098 30.1914 46.5396C30.7044 46.4897 31.0797 46.0332 31.0296 45.5201Z" fill="black"/>
<path d="M42.2799 15.9731C41.9486 15.5781 41.3599 15.5265 40.965 15.8578C40.9637 15.8588 40.9625 15.86 40.9611 15.8611C40.5671 16.1933 40.5169 16.782 40.8491 17.1761C46.4765 23.8565 46.046 33.7345 39.8588 39.9C39.4936 40.2639 39.4926 40.855 39.8565 41.2202C40.2203 41.5854 40.8115 41.5864 41.1767 41.2225C48.0526 34.3727 48.5321 23.3964 42.2799 15.9731Z" fill="black"/>
<path d="M21.7463 12.3368C21.7457 12.3368 21.745 12.3367 21.7444 12.3367C21.7434 12.3367 21.7424 12.3368 21.7412 12.3368H21.7463Z" fill="black"/>
<path d="M32.4026 9.85506C28.755 8.98087 24.9295 9.21584 21.4163 10.5299C20.9338 10.7113 20.6898 11.2496 20.8713 11.732C21.008 12.0956 21.3557 12.3363 21.744 12.3367C21.8557 12.3361 21.9663 12.3157 22.0706 12.2761C25.2344 11.093 28.6793 10.8817 31.9639 11.6695C32.465 11.7906 32.9694 11.4827 33.0905 10.9816C33.2116 10.4805 32.9037 9.97616 32.4026 9.85506Z" fill="black"/>
<path d="M16.0991 39.8533C12.9527 36.7123 11.1893 32.4459 11.2 28C11.1908 24.448 12.3159 20.9858 14.4116 18.1179C14.7214 17.7058 14.6384 17.1207 14.2263 16.811C13.8143 16.5012 13.2292 16.5842 12.9194 16.9962C12.914 17.0036 12.9086 17.0109 12.9033 17.0184C7.50716 24.437 8.3012 34.677 14.7765 41.1749C15.1415 41.5401 15.7334 41.5403 16.0986 41.1754C16.4638 40.8105 16.464 40.2185 16.0991 39.8533Z" fill="black"/>
<path d="M19.6001 14C19.0846 14 18.6667 14.4179 18.6667 14.9333V22.4C18.6667 22.9154 19.0846 23.3333 19.6001 23.3333C20.1155 23.3333 20.5334 22.9154 20.5334 22.4V14.9333C20.5334 14.4179 20.1155 14 19.6001 14Z" fill="#1D73F8"/>
<path d="M22.3999 14C21.8845 14 21.4666 14.4179 21.4666 14.9333V22.4C21.4666 22.9154 21.8845 23.3333 22.3999 23.3333C22.9153 23.3333 23.3332 22.9154 23.3332 22.4V14.9333C23.3332 14.4179 22.9153 14 22.3999 14Z" fill="#1D73F8"/>
<path d="M39.6553 18.8739L39.0561 16.9018C38.295 14.6615 35.8619 13.4625 33.6217 14.2237C32.3615 14.6518 31.3718 15.6415 30.9436 16.9018L30.3444 18.8739C29.8402 20.5371 29.7343 22.2956 30.0355 24.0072C30.3101 25.4483 31.225 26.6864 32.5219 27.3719L31.8508 42.3734C31.761 43.2107 32.0326 44.0466 32.5975 44.6712C33.8123 46.0001 35.8745 46.0925 37.2034 44.8776C37.2752 44.8119 37.3441 44.7431 37.4097 44.6712C37.962 44.0643 38.2332 43.2529 38.1564 42.4359L37.4816 27.37C38.7767 26.6841 39.6901 25.4469 39.9643 24.0072C40.2654 22.2956 40.1596 20.5371 39.6553 18.8739ZM38.1256 23.6824C37.9235 24.7177 37.1857 25.5672 36.1889 25.9122C35.8106 26.0544 35.5669 26.424 35.5851 26.8278L36.2944 42.5834C36.3271 42.8924 36.2251 43.2005 36.0144 43.429C35.4524 43.9853 34.5473 43.9853 33.9853 43.429C33.7641 43.1821 33.6637 42.8498 33.7109 42.5218L34.4147 26.8278C34.4329 26.424 34.1892 26.0544 33.8108 25.9122C32.814 25.5672 32.0762 24.7177 31.8741 23.6824C31.6245 22.2614 31.7124 20.8016 32.1308 19.4208L32.73 17.4478C33.1936 16.1942 34.5857 15.5538 35.8394 16.0174C36.5022 16.2625 37.0246 16.7851 37.2697 17.4478L37.8689 19.4208C38.2868 20.8017 38.3748 22.2614 38.1256 23.6824Z" fill="#1D73F8"/>
<path d="M25.2 14C24.6846 14 24.2667 14.4179 24.2667 14.9333V22.9469L21.7402 25.4735C21.5533 25.6597 21.4539 25.9164 21.4667 26.18L22.2834 42.5133C22.3028 42.8655 22.175 43.2101 21.9306 43.4644C21.4197 43.9798 20.5876 43.9836 20.0721 43.4726C20.0693 43.4699 20.0666 43.4671 20.0639 43.4644C19.8194 43.2101 19.6916 42.8655 19.7111 42.5133L20.5334 26.18C20.5464 25.9166 20.4474 25.6599 20.2608 25.4735L17.7334 22.9469V14.9333C17.7334 14.4179 17.3155 14 16.8 14C16.2846 14 15.8667 14.4179 15.8667 14.9333V23.3333C15.8667 23.5809 15.9652 23.8182 16.1402 23.9932L18.6471 26.5011L17.851 42.4228C17.7663 44.1619 19.1075 45.6406 20.8466 45.7253C22.5858 45.81 24.0644 44.4688 24.1491 42.7296C24.1541 42.6274 24.1541 42.5251 24.1491 42.4229L23.353 26.5012L25.8599 23.9933C26.0349 23.8183 26.1334 23.581 26.1334 23.3335V14.9335C26.1334 14.4179 25.7155 14 25.2 14Z" fill="#1D73F8"/>
</svg>
