<?xml version="1.0" encoding="utf-8"?>
<!-- Generator: Adobe Illustrator 24.1.2, SVG Export Plug-In . SVG Version: 6.00 Build 0)  -->
<svg version="1.1" id="Layer_1" xmlns="http://www.w3.org/2000/svg" xmlns:xlink="http://www.w3.org/1999/xlink" x="0px" y="0px"
	 viewBox="0 0 255 255" style="enable-background:new 0 0 255 255;" xml:space="preserve">
<style type="text/css">
	.st0{fill:#40596B;}
	.st1{fill:#CDD6E0;}
	.st2{fill:#F2F2F2;}
	.st3{fill:#FFD15C;}
	.st4{fill:#ACB3BA;}
	.st5{fill:#84DBFF;}
	.st6{fill:#89D6F7;}
	.st7{fill:#55BFE9;}
</style>
<path class="st0" d="M201.9,53.5H53.2c-3.7,0-6.8,3-6.8,6.8v21.3h162.2V60.3C208.6,56.5,205.6,53.5,201.9,53.5z"/>
<rect x="46.4" y="81.8" class="st1" width="162.2" height="93.6"/>
<rect x="54.8" y="90.2" class="st2" width="145.3" height="76.7"/>
<circle class="st3" cx="62" cy="67.7" r="7.1"/>
<circle class="st4" cx="81.3" cy="67.7" r="7.1"/>
<circle class="st5" cx="100.5" cy="67.7" r="7.1"/>
<path class="st4" d="M190.7,60.3h-57.4c-4.1,0-7.1,3.4-7.1,7.1c0,3.7,3.4,7.1,7.1,7.1h57.4c4.1,0,7.1-3.4,7.1-7.1
	C197.8,63.6,194.4,60.3,190.7,60.3z"/>
<path class="st6" d="M182.3,160.9c0,30.4-24.7,54.7-54.7,54.7c-30.4,0-54.7-24.7-54.7-54.7c0-11.1,3.4-21.6,9.1-30.4
	c0.7-0.7,1-1.7,1.7-2.4c8.1-10.8,19.6-18.2,33.4-20.9h0.3c3.4-0.7,6.8-1,10.1-1c1.4,0,2.7,0,4.1,0c1.7,0,3.4,0.3,5.1,0.7
	c22.3,3.7,40.2,20.9,44.6,42.9c0,0.7,0.3,1,0.3,1.7C181.9,154.5,182.3,157.6,182.3,160.9z"/>
<g>
	<path class="st7" d="M124.5,116.3c0,1.7-2.7,2-4.1,2.4c-1,0.3-2,1.4-3,2.4c-2,2-4.4,3.7-7.1,5.1c-2.7,1.4-6.1,2.4-8.1,0
		c6.1-2.7,10.8-8.1,13.2-14.5c-3,1.7-5.4,4.4-7.8,6.4c-3,2.4-6.4,4.4-9.1,7.1c-2.7,2.7-5.1,6.1-5.1,10.1c0-2-1.4-4.4-3.4-5.4
		c-1.7-1.4-4.1-1.7-6.4-1.7c0,0,0,0-0.3,0c8.1-10.8,19.6-18.2,33.4-20.9h0.3c0.7,2.7,2.4,5.4,4.7,6.8
		C123.5,114.3,124.5,115.3,124.5,116.3z"/>
	<path class="st7" d="M136.7,106.9c1.4,0.7,2.7,1.7,3.7,2.7c0.3,0.3,0.3,0.7,0.3,1c-0.3,1-1.7,0.7-2.7,1.4c-1.7,0.7-1,3,0.3,4.1
		c1.4,1,3,1,4.7,2c0.7,0.3,1,0.7,1,1.4c0,0.3-0.3,0.7-0.7,1c-1.7,2-3.7,4.1-5.4,6.1c-0.3,0.3-1,1-1.7,1.4c-0.7,0.3-1.7,0.3-2.7,0.3
		c-3.4,0-7.8,0.7-8.8,4.1c-0.3,0.7-0.3,1.7-0.7,2.4c-0.7,0.7-1.4,0.7-2,1.4c-0.7,1,0.3,2.4,0.3,3.7c0.3,2-2,3.7-3.7,3
		c0-2,0-4.4-0.3-6.4c0-0.3,0-0.7-0.3-1s-0.7-0.3-1-0.7c-2-0.7-4.4-1-6.1,0.7c-1.4,1.7-0.7,4.1,0.3,5.7s2.7,3.4,2.7,5.7
		c0,1-0.3,2.4-1.4,2.4c-1.4,0.3-2.4-1.7-2.4-3c-1.4,3.7-2,8.4-1.4,12.8c-3,0.7-6.1,1.7-9.1,2.4c-1,0.3-2.4,0.7-3,1.7
		c-0.7,1-0.7,2-0.7,3c0,3.7,1,7.4,2.7,10.8c0.7,1,1.4,2.4,2.4,3c3,2,7.1,1,10.5,2c3,0.7,5.4,3,6.8,5.7c1.4,2.7,2.4,5.7,3,8.8
		c0.3,1.4,0.7,2.7,1.7,3.7c1,1,3,1.4,4.4,1.7c2.7,0.3,5.7,1,8.1-0.7c2-1,3.4-3.4,5.7-4.4c1.4-0.7,3.4-0.3,4.7-0.7
		c1.7-0.3,3.4-1.7,2.7-3.4c-0.3-1.4-2.4-2.7-2-4.1c0.3-1,1.7-1.4,2.7-1.7c4.4-1.7,7.1-7.4,4.7-11.8c-0.3-0.7-0.7-1.4-1-2
		c0-2.4,3-3,4.7-4.7c1.4-1.7,1.4-3.7,1.7-6.1c0.3-2,1-4.4,3-5.1c2-0.7,4.1,1,5.1,2.7c1,1.7,2,3.7,3.7,4.7c0-3.7,0-7.4,0-10.8
		c0-1.4,0-2.7,1-3.7c1.4-1.7,4.1-1.4,6.1-0.7c0.7,0,1.4,0.3,2,0.3C176.9,127.8,159,110.6,136.7,106.9z M147.5,142.3L147.5,142.3
		c0.7,0,1.4,0,2,0c-0.3,1.4,0,2.7,1,3.7c0.3,0.3,1,0.7,1.4,1.4c1,1,1.4,2.7,0.7,4.1c-1,0-2.4,0-3.4,0c-1-0.3-2.4-1-2.7-2
		c-0.3-0.7-0.3-1.4-0.3-2C145.8,145.4,145.8,143.4,147.5,142.3z M131.3,161.3c-1.7-0.3-3.4-1.4-5.1-2.4c-2.4-1.4-5.1-2-7.4-2
		c-1,0-2,0-2.7,0c-1-0.3-1.7-0.7-2-1.7c-0.3-1,0.3-2.4,1.4-3c1-0.7,2-1,3-1.7l0.3-1.7c2,2,4.7,3.7,7.4,4.7c1.4,0.7,2.7,1,4.1,1
		s3,0,4.4,0c0.3,0,1,0,1.4,0c1,0,2,0,3-0.3c1.4,0,2.4-0.3,3.4-1c0.3,1.4-0.3,3-1.4,4.1s-2.4,1.7-4.1,2.4
		C135.7,160.6,133.3,161.6,131.3,161.3z M152.5,172.1c0,0.3-0.3,0.7-0.7,1c-0.3,0-0.3,0.3-0.7,0.3c-2.4,0.3-5.1,0.7-6.8-1
		c-1-0.7-1.4-1.7-2-2.7c-0.7-1.4-1.4-2.4-2-3.7c-0.7-1.4-1.4-2.7-1-4.1c1,0,2.4,0,3.4,0.3l0.3,0.3c-0.3,1,0,2,0.7,2.7s1.7,1,2.4,1.4
		c0.7,0.3,1.4,0.7,2.4,1c1,0.3,2,1,3,1.7C152.2,169.7,152.5,170.7,152.5,172.1z M156.3,160.3c-0.3,0.3-0.3,0.3-0.7,0.3
		c-2,0.7-4.7-1-5.1-3.4l0.3-0.3c1.7,0,3.4,0,4.7,0c0.3,0,0.7,0,0.7,0.3c0.3,0.3,0.3,0.7,0.3,0.7
		C156.9,158.9,156.9,159.9,156.3,160.3z"/>
</g>
</svg>
