<?xml version="1.0" encoding="utf-8"?>
<!-- Generator: Adobe Illustrator 24.1.2, SVG Export Plug-In . SVG Version: 6.00 Build 0)  -->
<svg version="1.1" id="Layer_1" xmlns="http://www.w3.org/2000/svg" xmlns:xlink="http://www.w3.org/1999/xlink" x="0px" y="0px"
	 viewBox="0 0 255 255" style="enable-background:new 0 0 255 255;" xml:space="preserve">
<style type="text/css">
	.st0{fill:#FFD15C;}
	.st1{fill:#F8B64C;}
	.st2{fill:#FF7058;}
	.st3{fill:#FFFFFF;}
	.st4{fill:#40596B;}
	.st5{fill:#334A5E;}
</style>
<g>
	<polygon class="st0" points="122.8,135.1 99.9,197.6 95,211.4 70.4,211.4 79.2,186.7 97.8,135.1 	"/>
	<polygon class="st0" points="183.6,211.4 159,211.4 154.1,197.6 131.2,135.1 156.2,135.1 174.8,186.7 	"/>
</g>
<g>
	<path class="st1" d="M97.8,135.1h25l-22.5,62.6c-7.4-2.5-14.4-6.3-21.1-10.9L97.8,135.1z"/>
	<path class="st1" d="M174.8,186.7c-6.3,4.6-13.4,8.1-21.1,10.9l-22.5-62.6h25L174.8,186.7z"/>
</g>
<circle class="st2" cx="127" cy="120" r="77.3"/>
<circle class="st3" cx="127" cy="120" r="60.8"/>
<circle class="st2" cx="127" cy="120" r="44.6"/>
<circle class="st3" cx="127" cy="120" r="28.5"/>
<circle class="st2" cx="127" cy="120" r="12.3"/>
<path class="st4" d="M185.3,71.5l-56.2,50.3h-0.4l-3.5-3.5v-0.4l56.2-50.6h0.4l3.2,3.5C185.3,71.1,185.3,71.1,185.3,71.5z"/>
<g>
	<polygon class="st5" points="177.6,75 157.2,93.3 154.4,78.5 174.8,60.2 	"/>
	<polygon class="st5" points="171.6,97.5 192,79.6 177.6,75 157.2,93.3 	"/>
</g>
</svg>
