<?xml version="1.0" encoding="utf-8"?>
<!-- Generator: Adobe Illustrator 24.1.2, SVG Export Plug-In . SVG Version: 6.00 Build 0)  -->
<svg version="1.1" id="Layer_1" xmlns="http://www.w3.org/2000/svg" xmlns:xlink="http://www.w3.org/1999/xlink" x="0px" y="0px"
	 viewBox="0 0 255 255" style="enable-background:new 0 0 255 255;" xml:space="preserve">
<style type="text/css">
	.st0{fill:#F8B64C;}
	.st1{fill:#FFD15C;}
	.st2{fill:#FF7058;}
	.st3{fill:#F2F2F2;}
	.st4{fill:#40596B;}
	.st5{fill:#84DBFF;}
	.st6{fill:#54C0EB;}
</style>
<path class="st0" d="M159.5,149.2l-12.7-0.3l0.3,12.7c0.3,20.7,17.6,37.6,38.2,38.2l12.7,0.3l-0.3-12.7
	C197.1,166.8,180.2,149.5,159.5,149.2z"/>
<path class="st1" d="M163,156.1l-9-0.3l0.3,9c0.3,14.8,12.7,27.2,27.6,27.6l9,0.3l-0.3-9C190.2,168.8,177.8,156.4,163,156.1z"/>
<path class="st2" d="M211.2,148.2c-1.7-3.1-4.1-5.9-6.5-8.3c-6.2-6.2-13.8-10.3-22.1-12.4c-15.5-3.8-32.7,0.3-44.8,12.4
	c-12.1,12.1-16.2,29.3-12.4,44.8c2.1,7.9,6.2,15.9,12.4,22.1c2.4,2.4,5.5,4.8,8.3,6.5c-17.9,0.7-36.5-5.9-50.3-19.6
	c-11-11-17.2-24.5-19.3-38.6c-2.8-20.3,3.8-41.3,19.3-56.9s36.9-22.1,56.9-19.3c14.1,2.1,27.9,8.3,38.6,19.3
	C205.4,111.6,211.9,130.2,211.2,148.2z"/>
<path class="st3" d="M181.6,148.5c-9.6-58.9-60.3-102.3-123-100.6l-12.4,0.3l-0.3,12.4c-1.7,62.7,41.7,113.4,100.6,123L181.6,148.5z
	"/>
<g>
	<path class="st4" d="M119.6,176.1c8.6,3.4,17.6,5.9,26.9,7.6l34.8-34.8c-1.4-9.3-4.1-18.3-7.6-26.9L119.6,176.1z"/>
	<path class="st4" d="M99.6,53.4c-12.7-3.8-26.5-5.9-41-5.5l-12.4,0.3l-0.3,12.4c-0.3,14.5,1.7,28.3,5.5,41L99.6,53.4z"/>
</g>
<path class="st3" d="M146.4,183.7c3.4,0.7,7.2,1,10.7,1.4l25.5-25.5c-0.3-3.8-0.7-7.2-1.4-10.7L146.4,183.7z"/>
<ellipse class="st4" cx="103.3" cy="105.5" rx="26.5" ry="26.5"/>
<ellipse class="st5" cx="103.3" cy="105.5" rx="18.6" ry="18.6"/>
<path class="st6" d="M91.7,96.5c6.5-6.5,16.9-6.5,23.4,0c6.2,6.2,6.5,16.2,0.7,22.7c0.3-0.3,0.7-0.3,0.7-0.7c7.2-7.2,7.2-19,0-26.2
	c-7.2-7.2-19-7.2-26.2,0c-7.2,7.2-7.2,19,0,26.2c0.3,0.3,0.7,0.3,0.7,0.7C85.5,112.7,85.5,102.7,91.7,96.5z"/>
</svg>
