<svg width="53" height="50" viewBox="0 0 53 50" fill="none" xmlns="http://www.w3.org/2000/svg">
<path d="M52.0862 28.1717C51.7008 25.5019 49.6035 23.4045 46.9337 23.0192V21.4391C46.9337 17.0795 43.6196 13.5299 39.546 13.5299C35.5896 13.5299 32.2773 16.9717 32.1583 21.2027H32.2087L32.1583 21.2114V38.3396C32.1583 43.8152 28.0646 48.2617 23.0323 48.2617C17.9999 48.2617 13.9063 43.8091 13.9063 38.3396V36.8559C15.1665 36.8559 16.5137 35.9425 16.5137 33.3794V31.1935C22.0919 29.7672 26.0743 24.9774 26.0743 19.547V17.7348H24.336L24.2995 6.42291C24.2869 4.32904 22.7843 2.54121 20.7238 2.16846C20.2794 0.806839 18.8152 0.0632874 17.4535 0.507854C16.0918 0.952311 15.3483 2.41649 15.7929 3.77822C16.2373 5.13984 17.7015 5.88339 19.0632 5.43882C19.7923 5.20079 20.3787 4.65225 20.6647 3.94064C21.7782 4.25744 22.5496 5.27043 22.5586 6.42813L22.5977 17.7348H20.8594V19.5722C20.7901 22.5954 18.7633 25.2226 15.8566 26.0568C14.3014 26.5503 12.6316 26.5503 11.0763 26.0568C8.17309 25.2197 6.15081 22.593 6.08399 19.5722V17.7348H3.47657V6.43595C3.48157 5.26119 4.27162 4.23474 5.40606 3.92934C5.93504 5.27597 7.4555 5.93869 8.80213 5.40971C10.1488 4.88073 10.8115 3.36016 10.2825 2.01364C9.75351 0.667124 8.23295 0.0042944 6.88643 0.533276C6.15679 0.819985 5.5938 1.41828 5.35218 2.16411C3.26917 2.52003 1.74404 4.32274 1.73828 6.43595V17.7348H0V19.5426C0 24.9791 3.98502 29.7707 9.56056 31.1935V33.3794C9.56056 35.9425 10.9077 36.8559 12.168 36.8559V38.3396C12.168 44.7712 17.0413 50 23.0323 50C29.0233 50 33.8965 44.7651 33.8965 38.3396V21.2531C33.9835 17.9547 36.5196 15.2708 39.546 15.2708C42.661 15.2708 45.1954 18.0381 45.1954 21.4417V23.0192C41.8697 23.4992 39.5629 26.5843 40.0429 29.91C40.5229 33.2356 43.608 35.5424 46.9337 35.0625C50.2593 34.5825 52.5661 31.4972 52.0862 28.1717ZM18.252 3.82852C17.772 3.82852 17.3828 3.43936 17.3828 2.95938C17.3828 2.47939 17.772 2.09024 18.252 2.09024C18.732 2.09024 19.1211 2.47939 19.1211 2.95938C19.1211 3.43936 18.732 3.82852 18.252 3.82852ZM7.82228 2.09024C8.30226 2.09024 8.69142 2.47939 8.69142 2.95938C8.69142 3.43936 8.30226 3.82852 7.82228 3.82852C7.34229 3.82852 6.95314 3.43936 6.95314 2.95938C6.95314 2.47939 7.34229 2.09024 7.82228 2.09024ZM1.73828 19.5426V19.4731H4.34571V19.5722C4.4109 23.3498 6.92413 26.6465 10.5496 27.7099C12.4495 28.3115 14.4887 28.3115 16.3885 27.7099C20.0158 26.648 22.5313 23.3511 22.5977 19.5722V19.4731H24.336V19.5426C24.336 24.3777 20.6091 28.6321 15.4707 29.6612C14.2641 29.9028 13.0282 29.9634 11.8038 29.8411C11.4008 29.802 11.0001 29.7413 10.6035 29.6594C5.46516 28.6321 1.73828 24.3777 1.73828 19.5426ZM12.168 35.1176C11.3858 35.1176 11.2988 33.9008 11.2988 33.3794V31.535C11.3684 31.5437 11.4396 31.5472 11.51 31.5542C11.597 31.5637 11.6839 31.5707 11.7708 31.5785C12.1819 31.615 12.5965 31.6393 13.0145 31.6402H13.058C13.4752 31.6402 13.8889 31.615 14.2974 31.5785C14.3843 31.5707 14.4764 31.5637 14.566 31.5542C14.6346 31.5463 14.7059 31.5437 14.7745 31.535V33.3794C14.7745 33.9008 14.6876 35.1176 13.9054 35.1176H12.168ZM46.0645 33.3794C43.6645 33.3794 41.7188 31.4337 41.7188 29.0337C41.7188 26.6336 43.6645 24.6879 46.0645 24.6879C48.4646 24.6879 50.4102 26.6336 50.4102 29.0337C50.4074 31.4326 48.4634 33.3765 46.0645 33.3794Z" fill="#333333"/>
<path d="M46.0646 26.4263C44.6245 26.4263 43.4572 27.5937 43.4572 29.0338C43.4572 30.4738 44.6245 31.6412 46.0646 31.6412C47.5046 31.6412 48.672 30.4738 48.672 29.0338C48.672 27.5937 47.5046 26.4263 46.0646 26.4263ZM46.0646 29.9029C45.5846 29.9029 45.1954 29.5137 45.1954 29.0338C45.1954 28.5538 45.5846 28.1646 46.0646 28.1646C46.5446 28.1646 46.9337 28.5538 46.9337 29.0338C46.9337 29.5137 46.5446 29.9029 46.0646 29.9029Z" fill="#1D73F8"/>
<path d="M17.9825 0C16.4928 0 15.2852 1.20764 15.2852 2.69738C15.2852 4.18712 16.4928 5.39476 17.9825 5.39476C19.4723 5.39476 20.6799 4.18712 20.6799 2.69738C20.6799 1.20764 19.4723 0 17.9825 0ZM17.9825 3.5965C17.486 3.5965 17.0834 3.19392 17.0834 2.69738C17.0834 2.20084 17.486 1.79825 17.9825 1.79825C18.4791 1.79825 18.8817 2.20084 18.8817 2.69738C18.8817 3.19392 18.4791 3.5965 17.9825 3.5965Z" fill="#1D73F8"/>
<path d="M8.09216 0C6.60242 0 5.39478 1.20764 5.39478 2.69738C5.39478 4.18712 6.60242 5.39476 8.09216 5.39476C9.5819 5.39476 10.7895 4.18712 10.7895 2.69738C10.7895 1.20764 9.5819 0 8.09216 0ZM8.09216 3.5965C7.59562 3.5965 7.19303 3.19392 7.19303 2.69738C7.19303 2.20084 7.59562 1.79825 8.09216 1.79825C8.5887 1.79825 8.99129 2.20084 8.99129 2.69738C8.99129 3.19392 8.5887 3.5965 8.09216 3.5965Z" fill="#1D73F8"/>
</svg>
