<svg width="90" height="90" viewBox="0 0 90 90" fill="none" xmlns="http://www.w3.org/2000/svg">
<g clip-path="url(#clip0)">
<path d="M25.1679 46.1195C25.9445 46.1195 26.5741 45.4899 26.5741 44.7134C26.5741 43.9368 25.9445 43.3073 25.1679 43.3073H24.5819C23.8054 43.3073 23.1758 43.9368 23.1758 44.7134C23.1758 45.4899 23.8054 46.1195 24.5819 46.1195H25.1679Z" fill="black"/>
<path d="M85.8294 30.0353C92.5096 17.3275 84.3673 1.93308 70.2524 0.168205C53.7269 -1.89882 42.05 15.4928 49.5322 29.9103H43.9618C46.5909 17.115 36.7656 5.29147 23.9078 5.29147C12.6169 5.29147 3.43096 14.4774 3.43096 25.7683C3.43096 26.5449 4.06055 27.1745 4.83709 27.1745C5.61363 27.1745 6.24323 26.5449 6.24323 25.7683C6.24323 16.028 14.1675 8.10374 23.9078 8.10374C35.2517 8.10374 43.7642 18.738 41.0815 29.9101H37.81C41.0915 18.7981 30.3595 8.1911 19.0813 12.1759C11.656 14.7996 7.88894 22.7082 10.0073 29.9103H5.18863C2.8627 29.9103 0.970215 31.8028 0.970215 34.1287V41.9011C0.970215 44.2271 2.8627 46.1195 5.18863 46.1195H7.59804V85.7816C7.59804 88.1077 9.49053 90 11.8165 90H78.412C80.7379 90 82.6304 88.1077 82.6304 85.7816V50.8152C82.6304 50.0386 82.0008 49.409 81.2243 49.409C80.4477 49.409 79.8181 50.0386 79.8181 50.8152V85.7816C79.8181 86.5569 79.1873 87.1877 78.412 87.1877H11.8165C11.0411 87.1877 10.4103 86.5569 10.4103 85.7816V46.1195H18.1369C18.9134 46.1195 19.543 45.4899 19.543 44.7134C19.543 43.9369 18.9134 43.3073 18.1369 43.3073H5.18863C4.41332 43.3073 3.78249 42.6764 3.78249 41.9011V34.1287C3.78249 33.3534 4.41332 32.7226 5.18863 32.7226H84.8112C85.5865 32.7226 86.2173 33.3534 86.2173 34.1287V41.9011C86.2173 42.6764 85.5865 43.3073 84.8112 43.3073H30.4991C29.7226 43.3073 29.093 43.9369 29.093 44.7134C29.093 45.4899 29.7226 46.1195 30.4991 46.1195H84.8112C87.1371 46.1195 89.0296 44.2271 89.0296 41.9011V34.1287C89.0296 32.1538 87.6651 30.4921 85.8294 30.0353V30.0353ZM69.9036 2.95868C82.7775 4.56854 89.5136 19.0748 82.6566 29.9103H60.8581C56.3863 26.5825 54.8903 20.6055 57.3164 15.5281C60.0979 9.70727 67.0599 7.2467 72.8817 10.0287C78.7029 12.8104 81.1629 19.772 78.3812 25.594C78.0464 26.2946 78.3429 27.1342 79.0437 27.4689C79.745 27.8039 80.5841 27.507 80.9186 26.8064C84.3703 19.5831 81.3187 10.9433 74.0943 7.49119C66.8711 4.03948 58.2311 7.09132 54.7792 14.3155C52.325 19.4513 53.104 25.5495 56.783 29.9103H52.7723C44.94 17.5064 54.9265 1.08676 69.9036 2.95868V2.95868ZM28.9397 15.3018C34.4045 17.9131 36.925 24.3223 34.8413 29.9103H12.973C9.33462 20.16 19.4409 10.762 28.9397 15.3018V15.3018Z" fill="black"/>
<path d="M29.1166 73.0877C29.8931 73.0877 30.5227 72.4581 30.5227 71.6816V59.7973C30.5227 59.0207 29.8931 58.3911 29.1166 58.3911C28.34 58.3911 27.7104 59.0207 27.7104 59.7973V71.6816C27.7104 72.4583 28.34 73.0877 29.1166 73.0877Z" fill="#1D73F8"/>
<path d="M45.595 71.8202C46.2065 71.3416 46.3146 70.458 45.836 69.8464C45.3574 69.2349 44.4736 69.1268 43.8621 69.6054C41.8097 71.2114 38.7498 69.7578 38.7498 67.1107V64.3682C38.7498 61.6827 41.8874 60.2423 43.927 61.9256C44.526 62.4197 45.4124 62.335 45.9065 61.7359C46.4009 61.1369 46.316 60.2507 45.717 59.7564C41.8545 56.5694 35.9375 59.3044 35.9375 64.3682V67.1107C35.9375 72.1094 41.7151 74.8559 45.595 71.8202Z" fill="#1D73F8"/>
<path d="M56.5414 73.0877C59.8372 73.0877 62.5186 70.4063 62.5186 67.1107V64.3682C62.5186 61.0726 59.8372 58.3912 56.5414 58.3912C53.2458 58.3912 50.5645 61.0726 50.5645 64.3682V67.1107C50.5645 70.4063 53.2458 73.0877 56.5414 73.0877V73.0877ZM53.3767 64.3682C53.3767 62.6232 54.7964 61.2035 56.5414 61.2035C58.2866 61.2035 59.7063 62.6232 59.7063 64.3682V67.1107C59.7063 68.8557 58.2866 70.2754 56.5414 70.2754C54.7964 70.2754 53.3767 68.8557 53.3767 67.1107V64.3682Z" fill="#1D73F8"/>
<path d="M18.5684 62.1804V69.2987C18.5684 75.4206 23.5489 80.4013 29.6709 80.4013H60.5577C66.6797 80.4013 71.6604 75.4208 71.6604 69.2987V62.1804C71.6604 56.0583 66.6797 51.0778 60.5577 51.0778H29.6709C23.5489 51.0778 18.5684 56.0583 18.5684 62.1804V62.1804ZM29.6709 53.89H60.5577C65.1291 53.89 68.8481 57.6091 68.8481 62.1804V69.2987C68.8481 73.87 65.1291 77.5891 60.5577 77.5891H29.6709C25.0995 77.5891 21.3806 73.87 21.3806 69.2987V62.1804C21.3806 57.6091 25.0995 53.89 29.6709 53.89Z" fill="#1D73F8"/>
</g>
<defs>
<clipPath id="clip0">
<rect width="90" height="90" fill="white"/>
</clipPath>
</defs>
</svg>
