<svg width="90" height="90" viewBox="0 0 90 90" fill="none" xmlns="http://www.w3.org/2000/svg">
<path d="M80.1562 42.1875H74.5312V23.9062C74.5312 22.7874 74.0868 21.7143 73.2956 20.9231C72.5044 20.132 71.4314 19.6875 70.3125 19.6875H63.2095C62.8604 15.0956 60.7894 10.8051 57.4112 7.67525C54.0331 4.54543 49.5972 2.80737 44.9921 2.80914C40.3869 2.81092 35.9524 4.55241 32.5767 7.68484C29.201 10.8173 27.1333 15.1094 26.7877 19.7016C26.7637 19.7016 26.7427 19.6875 26.7173 19.6875H18.2812C17.1624 19.6875 16.0893 20.132 15.2981 20.9231C14.507 21.7143 14.0625 22.7874 14.0625 23.9062V42.1875H9.84375C8.72487 42.1875 7.65181 42.632 6.86064 43.4231C6.06947 44.2143 5.625 45.2874 5.625 46.4062V75.9375H4.21875C3.84579 75.9375 3.4881 76.0856 3.22438 76.3494C2.96066 76.6131 2.8125 76.9708 2.8125 77.3437V80.1562C2.81473 82.0204 3.55624 83.8075 4.87437 85.1256C6.1925 86.4437 7.97963 87.1852 9.84375 87.1875H49.2188C51.0829 87.1852 52.87 86.4437 54.1881 85.1256C55.5063 83.8075 56.2478 82.0204 56.25 80.1562V77.3437C56.25 76.9708 56.1018 76.6131 55.8381 76.3494C55.5744 76.0856 55.2167 75.9375 54.8438 75.9375H53.4375V46.4062C53.4375 45.2874 52.993 44.2143 52.2019 43.4231C51.4107 42.632 50.3376 42.1875 49.2188 42.1875H16.875V23.9062C16.875 23.5333 17.0232 23.1756 17.2869 22.9119C17.5506 22.6482 17.9083 22.5 18.2812 22.5H26.7188C26.7441 22.5 26.7652 22.4873 26.7891 22.4859C27.1347 27.0781 29.2024 31.3702 32.5781 34.5026C35.9538 37.6351 40.3883 39.3766 44.9935 39.3783C49.5987 39.3801 54.0345 37.6421 57.4126 34.5122C60.7908 31.3824 62.8618 27.0919 63.2109 22.5H70.3125C70.6855 22.5 71.0431 22.6482 71.3069 22.9119C71.5706 23.1756 71.7188 23.5333 71.7188 23.9062V42.1875H66.0938C64.2296 42.1897 62.4425 42.9312 61.1244 44.2494C59.8062 45.5675 59.0647 47.3546 59.0625 49.2187V80.1562C59.0647 82.0204 59.8062 83.8075 61.1244 85.1256C62.4425 86.4437 64.2296 87.1852 66.0938 87.1875H80.1562C82.0204 87.1852 83.8075 86.4437 85.1256 85.1256C86.4438 83.8075 87.1853 82.0204 87.1875 80.1562V49.2187C87.1853 47.3546 86.4438 45.5675 85.1256 44.2494C83.8075 42.9312 82.0204 42.1897 80.1562 42.1875ZM53.4375 80.1562C53.4375 81.2751 52.993 82.3482 52.2019 83.1393C51.4107 83.9305 50.3376 84.375 49.2188 84.375H9.84375C8.72487 84.375 7.65181 83.9305 6.86064 83.1393C6.06947 82.3482 5.625 81.2751 5.625 80.1562V78.75H22.5C22.5 79.8689 22.9445 80.9419 23.7356 81.7331C24.5268 82.5243 25.5999 82.9687 26.7188 82.9687H32.3438C33.4626 82.9687 34.5357 82.5243 35.3269 81.7331C36.118 80.9419 36.5625 79.8689 36.5625 78.75H53.4375V80.1562ZM25.3125 78.75H33.75C33.75 79.1229 33.6018 79.4806 33.3381 79.7444C33.0744 80.0081 32.7167 80.1562 32.3438 80.1562H26.7188C26.3458 80.1562 25.9881 80.0081 25.7244 79.7444C25.4607 79.4806 25.3125 79.1229 25.3125 78.75ZM49.2188 45C49.5917 45 49.9494 45.1481 50.2131 45.4119C50.4768 45.6756 50.625 46.0333 50.625 46.4062V75.9375H8.4375V46.4062C8.4375 46.0333 8.58566 45.6756 8.84938 45.4119C9.1131 45.1481 9.47079 45 9.84375 45H49.2188ZM45 36.5625C41.9406 36.5625 38.9498 35.6553 36.406 33.9555C33.8622 32.2558 31.8795 29.8399 30.7087 27.0134C29.5379 24.1868 29.2316 21.0766 29.8285 18.0759C30.4253 15.0753 31.8986 12.319 34.0619 10.1557C36.2253 7.99235 38.9816 6.51909 41.9822 5.92223C44.9828 5.32536 48.0931 5.63169 50.9196 6.80249C53.7462 7.97328 56.1621 9.95595 57.8618 12.4998C59.5615 15.0436 60.4688 18.0343 60.4688 21.0937C60.4639 25.1948 58.8326 29.1266 55.9327 32.0265C53.0328 34.9264 49.1011 36.5577 45 36.5625ZM61.875 53.4375H84.375V75.9375H61.875V53.4375ZM66.0938 45H80.1562C81.2751 45 82.3482 45.4445 83.1394 46.2356C83.9305 47.0268 84.375 48.0999 84.375 49.2187V50.625H61.875V49.2187C61.875 48.0999 62.3195 47.0268 63.1106 46.2356C63.9018 45.4445 64.9749 45 66.0938 45ZM80.1562 84.375H66.0938C64.9749 84.375 63.9018 83.9305 63.1106 83.1393C62.3195 82.3482 61.875 81.2751 61.875 80.1562V78.75H84.375V80.1562C84.375 81.2751 83.9305 82.3482 83.1394 83.1393C82.3482 83.9305 81.2751 84.375 80.1562 84.375Z" fill="black"/>
<path d="M74.5312 80.1562H71.7188C71.3458 80.1562 70.9881 80.3044 70.7244 80.5681C70.4607 80.8318 70.3125 81.1895 70.3125 81.5625C70.3125 81.9354 70.4607 82.2931 70.7244 82.5569C70.9881 82.8206 71.3458 82.9687 71.7188 82.9687H74.5312C74.9042 82.9687 75.2619 82.8206 75.5256 82.5569C75.7893 82.2931 75.9375 81.9354 75.9375 81.5625C75.9375 81.1895 75.7893 80.8318 75.5256 80.5681C75.2619 80.3044 74.9042 80.1562 74.5312 80.1562Z" fill="black"/>
<path d="M12.6562 73.125H46.4062C46.7792 73.125 47.1369 72.9768 47.4006 72.7131C47.6643 72.4494 47.8125 72.0917 47.8125 71.7187V49.2187C47.8125 48.8458 47.6643 48.4881 47.4006 48.2244C47.1369 47.9606 46.7792 47.8125 46.4062 47.8125H12.6562C12.2833 47.8125 11.9256 47.9606 11.6619 48.2244C11.3982 48.4881 11.25 48.8458 11.25 49.2187V71.7187C11.25 72.0917 11.3982 72.4494 11.6619 72.7131C11.9256 72.9768 12.2833 73.125 12.6562 73.125ZM14.0625 50.625H45V70.3125H14.0625V50.625Z" fill="black"/>
<path d="M71.7188 49.2188H74.5312C74.9042 49.2188 75.2619 49.0706 75.5256 48.8069C75.7893 48.5431 75.9375 48.1855 75.9375 47.8125C75.9375 47.4395 75.7893 47.0819 75.5256 46.8181C75.2619 46.5544 74.9042 46.4062 74.5312 46.4062H71.7188C71.3458 46.4062 70.9881 46.5544 70.7244 46.8181C70.4607 47.0819 70.3125 47.4395 70.3125 47.8125C70.3125 48.1855 70.4607 48.5431 70.7244 48.8069C70.9881 49.0706 71.3458 49.2188 71.7188 49.2188Z" fill="black"/>
<path d="M49.9683 10.1573L49.2188 10.9069V9.84375C49.2188 9.47079 49.0706 9.1131 48.8069 8.84938C48.5431 8.58566 48.1855 8.4375 47.8125 8.4375H42.1875C41.8145 8.4375 41.4569 8.58566 41.1931 8.84938C40.9294 9.1131 40.7812 9.47079 40.7812 9.84375V10.9069L40.0317 10.1573C39.768 9.89371 39.4104 9.74561 39.0375 9.74561C38.6646 9.74561 38.307 9.89371 38.0433 10.1573L34.0636 14.137C33.8 14.4007 33.6519 14.7584 33.6519 15.1312C33.6519 15.5041 33.8 15.8618 34.0636 16.1255L34.8131 16.875H33.75C33.377 16.875 33.0194 17.0232 32.7556 17.2869C32.4919 17.5506 32.3438 17.9083 32.3438 18.2812V23.9062C32.3438 24.2792 32.4919 24.6369 32.7556 24.9006C33.0194 25.1643 33.377 25.3125 33.75 25.3125H34.8131L34.0636 26.062C33.8 26.3257 33.6519 26.6834 33.6519 27.0562C33.6519 27.4291 33.8 27.7868 34.0636 28.0505L38.0433 32.0302C38.307 32.2938 38.6646 32.4419 39.0375 32.4419C39.4104 32.4419 39.768 32.2938 40.0317 32.0302L40.7812 31.2806V32.3437C40.7812 32.7167 40.9294 33.0744 41.1931 33.3381C41.4569 33.6018 41.8145 33.75 42.1875 33.75H47.8125C48.1855 33.75 48.5431 33.6018 48.8069 33.3381C49.0706 33.0744 49.2188 32.7167 49.2188 32.3437V31.2806L49.9683 32.0302C50.232 32.2938 50.5896 32.4419 50.9625 32.4419C51.3354 32.4419 51.693 32.2938 51.9567 32.0302L55.9364 28.0505C56.2 27.7868 56.3481 27.4291 56.3481 27.0562C56.3481 26.6834 56.2 26.3257 55.9364 26.062L55.1869 25.3125H56.25C56.623 25.3125 56.9806 25.1643 57.2444 24.9006C57.5081 24.6369 57.6562 24.2792 57.6562 23.9062V18.2812C57.6562 17.9083 57.5081 17.5506 57.2444 17.2869C56.9806 17.0232 56.623 16.875 56.25 16.875H55.1869L55.9364 16.1255C56.2 15.8618 56.3481 15.5041 56.3481 15.1312C56.3481 14.7584 56.2 14.4007 55.9364 14.137L51.9567 10.1573C51.693 9.89371 51.3354 9.74561 50.9625 9.74561C50.5896 9.74561 50.232 9.89371 49.9683 10.1573ZM50.4928 18.8198C50.5993 19.0767 50.7796 19.2963 51.0109 19.4507C51.2422 19.6052 51.5141 19.6876 51.7922 19.6875H54.8438V22.5H51.7922C51.5141 22.5001 51.2423 22.5826 51.0111 22.7371C50.7799 22.8916 50.5997 23.1112 50.4933 23.3681C50.3869 23.6251 50.359 23.9078 50.4132 24.1805C50.4675 24.4533 50.6014 24.7038 50.798 24.9005L52.9537 27.0562L50.9625 29.0475L48.8067 26.8917C48.6101 26.6951 48.3595 26.5612 48.0868 26.507C47.814 26.4528 47.5313 26.4806 47.2744 26.587C47.0175 26.6934 46.7979 26.8736 46.6433 27.1048C46.4888 27.336 46.4063 27.6078 46.4062 27.8859V30.9375H43.5938V27.8859C43.5937 27.6078 43.5112 27.336 43.3567 27.1048C43.2021 26.8736 42.9825 26.6934 42.7256 26.587C42.4687 26.4806 42.186 26.4528 41.9132 26.507C41.6405 26.5612 41.3899 26.6951 41.1933 26.8917L39.0375 29.0475L37.0462 27.0562L39.202 24.9005C39.3986 24.7038 39.5325 24.4533 39.5868 24.1805C39.641 23.9078 39.6131 23.6251 39.5067 23.3681C39.4003 23.1112 39.2201 22.8916 38.9889 22.7371C38.7577 22.5826 38.4859 22.5001 38.2078 22.5H35.1562V19.6875H38.2078C38.4859 19.6874 38.7577 19.6049 38.9889 19.4504C39.2201 19.2959 39.4003 19.0763 39.5067 18.8194C39.6131 18.5624 39.641 18.2797 39.5868 18.007C39.5325 17.7342 39.3986 17.4837 39.202 17.287L37.0462 15.1312L39.0375 13.14L41.1933 15.2958C41.3899 15.4924 41.6405 15.6263 41.9132 15.6805C42.186 15.7347 42.4687 15.7069 42.7256 15.6005C42.9825 15.4941 43.2021 15.3139 43.3567 15.0827C43.5112 14.8515 43.5937 14.5796 43.5938 14.3016V11.25H46.4062V14.3016C46.4063 14.5796 46.4888 14.8515 46.6433 15.0827C46.7979 15.3139 47.0175 15.4941 47.2744 15.6005C47.5313 15.7069 47.814 15.7347 48.0868 15.6805C48.3595 15.6263 48.6101 15.4924 48.8067 15.2958L50.9625 13.14L52.9537 15.1312L50.798 17.287C50.6012 17.4837 50.4672 17.7343 50.4128 18.0071C50.3585 18.28 50.3864 18.5628 50.4928 18.8198Z" fill="#1D73F8"/>
<path d="M45 16.875C44.1656 16.875 43.35 17.1224 42.6562 17.586C41.9624 18.0495 41.4217 18.7084 41.1024 19.4793C40.7831 20.2502 40.6995 21.0984 40.8623 21.9168C41.0251 22.7351 41.4269 23.4869 42.0169 24.0769C42.6069 24.6669 43.3586 25.0687 44.177 25.2314C44.9953 25.3942 45.8436 25.3107 46.6145 24.9914C47.3853 24.6721 48.0442 24.1313 48.5078 23.4376C48.9713 22.7438 49.2188 21.9281 49.2188 21.0937C49.2188 19.9749 48.7743 18.9018 47.9831 18.1106C47.1919 17.3195 46.1189 16.875 45 16.875ZM45 22.5C44.7219 22.5 44.45 22.4175 44.2187 22.263C43.9875 22.1085 43.8072 21.8889 43.7008 21.6319C43.5944 21.3749 43.5665 21.0922 43.6208 20.8194C43.675 20.5466 43.809 20.296 44.0056 20.0994C44.2023 19.9027 44.4529 19.7688 44.7257 19.7145C44.9984 19.6603 45.2812 19.6881 45.5382 19.7945C45.7951 19.901 46.0147 20.0812 46.1693 20.3125C46.3238 20.5437 46.4063 20.8156 46.4063 21.0937C46.4063 21.4667 46.2581 21.8244 45.9944 22.0881C45.7307 22.3518 45.373 22.5 45 22.5Z" fill="#1D73F8"/>
<path d="M67.5 56.25H66.0938C65.7208 56.25 65.3631 56.3981 65.0994 56.6619C64.8357 56.9256 64.6875 57.2833 64.6875 57.6562C64.6875 58.0292 64.8357 58.3869 65.0994 58.6506C65.3631 58.9143 65.7208 59.0625 66.0938 59.0625H67.5C67.873 59.0625 68.2306 58.9143 68.4944 58.6506C68.7581 58.3869 68.9062 58.0292 68.9062 57.6562C68.9062 57.2833 68.7581 56.9256 68.4944 56.6619C68.2306 56.3981 67.873 56.25 67.5 56.25Z" fill="#1D73F8"/>
<path d="M71.7188 59.0625H80.1562C80.5292 59.0625 80.8869 58.9143 81.1506 58.6506C81.4143 58.3869 81.5625 58.0292 81.5625 57.6562C81.5625 57.2833 81.4143 56.9256 81.1506 56.6619C80.8869 56.3981 80.5292 56.25 80.1562 56.25H71.7188C71.3458 56.25 70.9881 56.3981 70.7244 56.6619C70.4607 56.9256 70.3125 57.2833 70.3125 57.6562C70.3125 58.0292 70.4607 58.3869 70.7244 58.6506C70.9881 58.9143 71.3458 59.0625 71.7188 59.0625Z" fill="#1D73F8"/>
<path d="M67.5 61.875H66.0938C65.7208 61.875 65.3631 62.0231 65.0994 62.2869C64.8357 62.5506 64.6875 62.9083 64.6875 63.2812C64.6875 63.6542 64.8357 64.0119 65.0994 64.2756C65.3631 64.5393 65.7208 64.6875 66.0938 64.6875H67.5C67.873 64.6875 68.2306 64.5393 68.4944 64.2756C68.7581 64.0119 68.9062 63.6542 68.9062 63.2812C68.9062 62.9083 68.7581 62.5506 68.4944 62.2869C68.2306 62.0231 67.873 61.875 67.5 61.875Z" fill="#1D73F8"/>
<path d="M80.1562 61.875H71.7188C71.3458 61.875 70.9881 62.0231 70.7244 62.2869C70.4607 62.5506 70.3125 62.9083 70.3125 63.2812C70.3125 63.6542 70.4607 64.0119 70.7244 64.2756C70.9881 64.5393 71.3458 64.6875 71.7188 64.6875H80.1562C80.5292 64.6875 80.8869 64.5393 81.1506 64.2756C81.4143 64.0119 81.5625 63.6542 81.5625 63.2812C81.5625 62.9083 81.4143 62.5506 81.1506 62.2869C80.8869 62.0231 80.5292 61.875 80.1562 61.875Z" fill="#1D73F8"/>
<path d="M67.5 67.5H66.0938C65.7208 67.5 65.3631 67.6481 65.0994 67.9119C64.8357 68.1756 64.6875 68.5333 64.6875 68.9062C64.6875 69.2792 64.8357 69.6369 65.0994 69.9006C65.3631 70.1643 65.7208 70.3125 66.0938 70.3125H67.5C67.873 70.3125 68.2306 70.1643 68.4944 69.9006C68.7581 69.6369 68.9062 69.2792 68.9062 68.9062C68.9062 68.5333 68.7581 68.1756 68.4944 67.9119C68.2306 67.6481 67.873 67.5 67.5 67.5Z" fill="#1D73F8"/>
<path d="M80.1562 67.5H71.7188C71.3458 67.5 70.9881 67.6481 70.7244 67.9119C70.4607 68.1756 70.3125 68.5333 70.3125 68.9062C70.3125 69.2792 70.4607 69.6369 70.7244 69.9006C70.9881 70.1643 71.3458 70.3125 71.7188 70.3125H80.1562C80.5292 70.3125 80.8869 70.1643 81.1506 69.9006C81.4143 69.6369 81.5625 69.2792 81.5625 68.9062C81.5625 68.5333 81.4143 68.1756 81.1506 67.9119C80.8869 67.6481 80.5292 67.5 80.1562 67.5Z" fill="#1D73F8"/>
<path d="M22.5 53.4375H21.0938C20.7208 53.4375 20.3631 53.5856 20.0994 53.8494C19.8357 54.1131 19.6875 54.4708 19.6875 54.8437C19.6875 55.2167 19.8357 55.5744 20.0994 55.8381C20.3631 56.1018 20.7208 56.25 21.0938 56.25H22.5C22.873 56.25 23.2306 56.1018 23.4944 55.8381C23.7581 55.5744 23.9062 55.2167 23.9062 54.8437C23.9062 54.4708 23.7581 54.1131 23.4944 53.8494C23.2306 53.5856 22.873 53.4375 22.5 53.4375Z" fill="#1D73F8"/>
<path d="M36.5625 53.4375H26.7188C26.3458 53.4375 25.9881 53.5856 25.7244 53.8494C25.4607 54.1131 25.3125 54.4708 25.3125 54.8437C25.3125 55.2167 25.4607 55.5744 25.7244 55.8381C25.9881 56.1018 26.3458 56.25 26.7188 56.25H36.5625C36.9355 56.25 37.2931 56.1018 37.5569 55.8381C37.8206 55.5744 37.9688 55.2167 37.9688 54.8437C37.9688 54.4708 37.8206 54.1131 37.5569 53.8494C37.2931 53.5856 36.9355 53.4375 36.5625 53.4375Z" fill="#1D73F8"/>
<path d="M22.5 59.0625H21.0938C20.7208 59.0625 20.3631 59.2106 20.0994 59.4744C19.8357 59.7381 19.6875 60.0958 19.6875 60.4687C19.6875 60.8417 19.8357 61.1994 20.0994 61.4631C20.3631 61.7268 20.7208 61.875 21.0938 61.875H22.5C22.873 61.875 23.2306 61.7268 23.4944 61.4631C23.7581 61.1994 23.9062 60.8417 23.9062 60.4687C23.9062 60.0958 23.7581 59.7381 23.4944 59.4744C23.2306 59.2106 22.873 59.0625 22.5 59.0625Z" fill="#1D73F8"/>
<path d="M36.5625 59.0625H26.7188C26.3458 59.0625 25.9881 59.2106 25.7244 59.4744C25.4607 59.7381 25.3125 60.0958 25.3125 60.4687C25.3125 60.8417 25.4607 61.1994 25.7244 61.4631C25.9881 61.7268 26.3458 61.875 26.7188 61.875H36.5625C36.9355 61.875 37.2931 61.7268 37.5569 61.4631C37.8206 61.1994 37.9688 60.8417 37.9688 60.4687C37.9688 60.0958 37.8206 59.7381 37.5569 59.4744C37.2931 59.2106 36.9355 59.0625 36.5625 59.0625Z" fill="#1D73F8"/>
<path d="M22.5 64.6875H21.0938C20.7208 64.6875 20.3631 64.8356 20.0994 65.0994C19.8357 65.3631 19.6875 65.7208 19.6875 66.0937C19.6875 66.4667 19.8357 66.8244 20.0994 67.0881C20.3631 67.3518 20.7208 67.5 21.0938 67.5H22.5C22.873 67.5 23.2306 67.3518 23.4944 67.0881C23.7581 66.8244 23.9062 66.4667 23.9062 66.0937C23.9062 65.7208 23.7581 65.3631 23.4944 65.0994C23.2306 64.8356 22.873 64.6875 22.5 64.6875Z" fill="#1D73F8"/>
<path d="M36.5625 64.6875H26.7188C26.3458 64.6875 25.9881 64.8356 25.7244 65.0994C25.4607 65.3631 25.3125 65.7208 25.3125 66.0937C25.3125 66.4667 25.4607 66.8244 25.7244 67.0881C25.9881 67.3518 26.3458 67.5 26.7188 67.5H36.5625C36.9355 67.5 37.2931 67.3518 37.5569 67.0881C37.8206 66.8244 37.9688 66.4667 37.9688 66.0937C37.9688 65.7208 37.8206 65.3631 37.5569 65.0994C37.2931 64.8356 36.9355 64.6875 36.5625 64.6875Z" fill="#1D73F8"/>
</svg>
