<?xml version="1.0" encoding="utf-8"?>
<!-- Generator: Adobe Illustrator 24.1.1, SVG Export Plug-In . SVG Version: 6.00 Build 0)  -->
<svg version="1.1" id="Layer_1" xmlns="http://www.w3.org/2000/svg" xmlns:xlink="http://www.w3.org/1999/xlink" x="0px" y="0px"
	 viewBox="0 0 80 80" style="enable-background:new 0 0 80 80;" xml:space="preserve">
<style type="text/css">
	.st0{fill:#1D73F8;}
</style>
<g>
	<g>
		<path class="st0" d="M47.5,1.9v55.7c-5.6,1-10,1.4-14.8,1.4c-14.6,0-22-6.3-22-18.7c0-12.1,7.8-19.6,20.3-19.6
			c2,0,3.5,0.2,5.1,0.6l2.5,0.6v-2.6V1.9H47.5 M32.6,53.1c1.6,0,2.8-0.1,4.7-0.3l1.7-0.2v-1.8V30.2v-1.5l-1.4-0.5
			c-1.7-0.5-3.1-0.8-5-0.8c-7.7,0-12.3,4.9-12.3,13C20.3,48.4,24.9,53.1,32.6,53.1 M49.5-0.1H36.6v19.5c-1.9-0.5-3.5-0.7-5.6-0.7
			c-13.5,0-22.3,8.5-22.3,21.6c0,13.6,8.2,20.6,24,20.7c5.3,0,10.2-0.5,16.8-1.7V-0.1L49.5-0.1z M32.6,51.1
			c-6.6,0-10.2-3.8-10.2-10.6c0-7,3.8-11,10.3-11c1.6,0,2.8,0.2,4.4,0.7v20.6C35.2,51,34,51.1,32.6,51.1L32.6,51.1z"/>
	</g>
	<g>
		<path d="M68.4,1.9v9.2h-8.9V1.9H68.4 M68.7,22.4v27.7c0,9.9-0.7,14.5-2.8,18.5c-1.8,3.6-4.2,5.8-8.8,8.2l-7.5-3.5
			c3.8-2.2,6-4.5,7.5-7.6c2.1-4.1,2.6-8.5,2.6-20V22.4L68.7,22.4 M70.4-0.1H57.4v13.2h12.9V-0.1L70.4-0.1z M70.7,20.4L70.7,20.4
			L70.7,20.4L70.7,20.4z M70.7,20.4H57.7v25.3c0,11.2-0.6,15.4-2.4,19.1c-1.8,3.6-4.5,5.9-10.2,8.6l12,5.7c5.7-2.8,8.5-5.4,10.6-9.5
			c2.2-4.2,3-9.2,3-19.4V20.4L70.7,20.4z"/>
	</g>
</g>
</svg>
