<?xml version="1.0" encoding="utf-8"?>
<!-- Generator: Adobe Illustrator 24.1.1, SVG Export Plug-In . SVG Version: 6.00 Build 0)  -->
<svg version="1.1" id="Layer_1" xmlns="http://www.w3.org/2000/svg" xmlns:xlink="http://www.w3.org/1999/xlink" x="0px" y="0px"
	 viewBox="0 0 80 80" style="enable-background:new 0 0 80 80;" xml:space="preserve">
<style type="text/css">
	.st0{fill:#1D73F8;}
	.st1{fill:#333333;}
</style>
<path class="st0" d="M39.1,70.5c-0.8,0-1.5,0.7-1.5,1.5c0,0.8,0.7,1.5,1.5,1.5c0.8,0,1.5-0.7,1.5-1.5C40.7,71.1,40,70.5,39.1,70.5z"
	/>
<path class="st1" d="M14.6,79.7h33.7c4.2,0,7.7-3.4,7.7-7.7V8.8c0-4.2-3.4-7.7-7.7-7.7H14.6C10.4,1.2,7,4.6,7,8.8V72
	C7,76.2,10.4,79.7,14.6,79.7z M52.9,10.4v53.9H10V10.4H52.9z M48.3,76.6H14.6c-2.5,0-4.6-2.1-4.6-4.6v-4.6h42.9V72
	C52.9,74.5,50.9,76.6,48.3,76.6z M14.6,4.2h33.7c2,0,3.7,1.3,4.3,3.1H10.3C10.9,5.5,12.6,4.2,14.6,4.2z"/>
<path class="st0" d="M33,70.5h-9.2c-0.8,0-1.5,0.7-1.5,1.5c0,0.8,0.7,1.5,1.5,1.5H33c0.8,0,1.5-0.7,1.5-1.5
	C34.5,71.1,33.9,70.5,33,70.5z"/>
<path class="st1" d="M66.9,78.8c0.3,0.5,0.8,0.8,1.4,0.8c0.6,0,1.1-0.3,1.4-0.8l4.6-9.2c0.1-0.2,0.2-0.4,0.2-0.7V8.8
	c0-2.5-2.1-4.6-4.6-4.6V2.7c0-0.8-0.7-1.5-1.5-1.5c-0.8,0-1.5,0.7-1.5,1.5v1.5c-2.5,0-4.6,2.1-4.6,4.6v60.1c0,0.2,0.1,0.5,0.2,0.7
	L66.9,78.8z M71.3,64.3h-6.1V16.5h6.1V64.3z M68.3,74.7l-3.1-6.1v-1.2h6.1v1.2L68.3,74.7z M66.7,7.3h3.1c0.8,0,1.5,0.7,1.5,1.5v4.6
	h-6.1V8.8C65.2,8,65.9,7.3,66.7,7.3z"/>
<path class="st0" d="M19.4,45.3h4v4c0,2.8,2.3,5,5,5h6c2.8,0,5-2.3,5-5v-4h4c2.8,0,5-2.3,5-5v-6c0-2.8-2.3-5-5-5h-4v-4
	c0-2.8-2.3-5-5-5h-6c-2.8,0-5,2.3-5,5v4h-4c-2.8,0-5,2.3-5,5v6C14.4,43,16.6,45.3,19.4,45.3z M43.6,31.2c1.7,0,3,1.4,3,3v6
	c0,1.7-1.4,3-3,3H31.5c-0.6,0-1,0.5-1,1c0,0.6,0.5,1,1,1h6v4c0,1.7-1.4,3-3,3h-6c-1.7,0-3-1.4-3-3v-8.1c0-1.7,1.4-3,3-3h6
	c2.8,0,5-2.3,5-5v-2H43.6z M16.4,34.2c0-1.7,1.4-3,3-3h12.1c0.6,0,1-0.5,1-1c0-0.6-0.5-1-1-1h-6v-4c0-1.7,1.4-3,3-3h6
	c1.7,0,3,1.4,3,3v8.1c0,1.7-1.4,3-3,3h-6c-2.8,0-5,2.3-5,5v2h-4c-1.7,0-3-1.4-3-3V34.2z"/>
<path class="st0" d="M29.5,27.2c0.6,0,1-0.5,1-1s-0.5-1-1-1s-1,0.5-1,1S28.9,27.2,29.5,27.2z"/>
<path class="st0" d="M33.5,49.3c0.6,0,1-0.5,1-1c0-0.6-0.5-1-1-1s-1,0.5-1,1C32.5,48.9,32.9,49.3,33.5,49.3z"/>
</svg>
