<svg width="90" height="90" viewBox="0 0 90 90" fill="none" xmlns="http://www.w3.org/2000/svg">
<g clip-path="url(#clip0)">
<path d="M21 90H75C79.1401 89.995 82.495 86.6401 82.5 82.5V13.5C82.4936 9.88817 79.9138 6.7939 76.362 6.138C75.7061 2.58622 72.6118 0.00640296 69 0H28.5C28.1022 8.496e-05 27.7207 0.158176 27.4395 0.4395L7.9395 19.9395C7.65818 20.2207 7.50008 20.6022 7.5 21V76.5C7.5064 80.1118 10.0862 83.2061 13.638 83.862C14.2939 87.4138 17.3882 89.9936 21 90ZM79.5 13.5V82.5C79.5 84.9853 77.4853 87 75 87H21C19.0998 86.9921 17.4094 85.7915 16.776 84H69C73.1401 83.995 76.495 80.6401 76.5 76.5V9.276C78.2915 9.90938 79.4921 11.5998 79.5 13.5V13.5ZM27 5.121V15C27 17.4853 24.9853 19.5 22.5 19.5H12.621L27 5.121ZM10.5 76.5V22.5H22.5C26.6401 22.495 29.995 19.1401 30 15V3H69C71.4853 3 73.5 5.01472 73.5 7.5V76.5C73.5 78.9853 71.4853 81 69 81H15C12.5147 81 10.5 78.9853 10.5 76.5Z" fill="black"/>
<path d="M51 9H60C60.8284 9 61.5 8.32843 61.5 7.5C61.5 6.67157 60.8284 6 60 6H51C50.1716 6 49.5 6.67157 49.5 7.5C49.5 8.32843 50.1716 9 51 9Z" fill="black"/>
<path d="M66 9H69C69.8284 9 70.5 8.32843 70.5 7.5C70.5 6.67157 69.8284 6 69 6H66C65.1716 6 64.5 6.67157 64.5 7.5C64.5 8.32843 65.1716 9 66 9Z" fill="black"/>
<path d="M16.5 76.5H18C18.8284 76.5 19.5 75.8284 19.5 75C19.5 74.1716 18.8284 73.5 18 73.5H16.5C15.6716 73.5 15 74.1716 15 75C15 75.8284 15.6716 76.5 16.5 76.5Z" fill="black"/>
<path d="M67.5 73.5H54C53.1716 73.5 52.5 74.1716 52.5 75C52.5 75.8284 53.1716 76.5 54 76.5H67.5C68.3284 76.5 69 75.8284 69 75C69 74.1716 68.3284 73.5 67.5 73.5Z" fill="black"/>
<path d="M46.5 73.5H24C23.1716 73.5 22.5 74.1716 22.5 75C22.5 75.8284 23.1716 76.5 24 76.5H46.5C47.3284 76.5 48 75.8284 48 75C48 74.1716 47.3284 73.5 46.5 73.5Z" fill="black"/>
<path d="M24 55.5H30V61.5C30.005 65.6401 33.3599 68.995 37.5 69H46.5C50.6401 68.995 53.995 65.6401 54 61.5V55.5H60C64.1401 55.495 67.495 52.1401 67.5 48V39C67.495 34.8599 64.1401 31.505 60 31.5H54V25.5C53.995 21.3599 50.6401 18.005 46.5 18H37.5C33.3599 18.005 30.005 21.3599 30 25.5V31.5H24C19.8599 31.505 16.505 34.8599 16.5 39V48C16.505 52.1401 19.8599 55.495 24 55.5ZM60 34.5C62.4853 34.5 64.5 36.5147 64.5 39V48C64.5 50.4853 62.4853 52.5 60 52.5H42C41.1716 52.5 40.5 53.1716 40.5 54C40.5 54.8284 41.1716 55.5 42 55.5H51V61.5C51 63.9853 48.9853 66 46.5 66H37.5C35.0147 66 33 63.9853 33 61.5V49.5C33 47.0147 35.0147 45 37.5 45H46.5C50.6401 44.995 53.995 41.6401 54 37.5V34.5H60ZM19.5 39C19.5 36.5147 21.5147 34.5 24 34.5H42C42.8284 34.5 43.5 33.8284 43.5 33C43.5 32.1716 42.8284 31.5 42 31.5H33V25.5C33 23.0147 35.0147 21 37.5 21H46.5C48.9853 21 51 23.0147 51 25.5V37.5C51 39.9853 48.9853 42 46.5 42H37.5C33.3599 42.005 30.005 45.3599 30 49.5V52.5H24C21.5147 52.5 19.5 50.4853 19.5 48V39Z" fill="#1D73F8"/>
<path d="M39 28.5C39.8284 28.5 40.5 27.8284 40.5 27C40.5 26.1716 39.8284 25.5 39 25.5C38.1716 25.5 37.5 26.1716 37.5 27C37.5 27.8284 38.1716 28.5 39 28.5Z" fill="#1D73F8"/>
<path d="M45 61.5C45.8284 61.5 46.5 60.8284 46.5 60C46.5 59.1716 45.8284 58.5 45 58.5C44.1716 58.5 43.5 59.1716 43.5 60C43.5 60.8284 44.1716 61.5 45 61.5Z" fill="#1D73F8"/>
</g>
<defs>
<clipPath id="clip0">
<rect width="90" height="90" fill="white"/>
</clipPath>
</defs>
</svg>
