<svg width="52" height="52" viewBox="0 0 52 52" fill="none" xmlns="http://www.w3.org/2000/svg">
<path d="M34.6983 5.85336H31.7778C31.2591 5.85336 30.8372 6.27536 30.8372 6.79414V10.2986C30.8372 10.8172 31.259 11.2392 31.7778 11.2392H34.6983C35.2169 11.2392 35.6389 10.8172 35.6389 10.2985V6.79414C35.6389 6.27546 35.2169 5.85336 34.6983 5.85336ZM34.1531 9.75347H32.3228V7.33912H34.1531V9.75347Z" fill="black"/>
<path d="M28.8916 14.5557H25.9712C25.4525 14.5557 25.0305 14.9777 25.0305 15.4965V19.0009C25.0304 19.5197 25.4524 19.9417 25.9712 19.9417H28.8916C29.4103 19.9417 29.8324 19.5197 29.8324 19.0009V15.4965C29.8324 14.9778 29.4104 14.5557 28.8916 14.5557ZM28.3465 18.456H26.5162V16.0417H28.3465V18.456Z" fill="black"/>
<path d="M40.5047 14.5557H37.5842C37.0655 14.5557 36.6436 14.9777 36.6436 15.4965V19.0009C36.6436 19.5197 37.0655 19.9417 37.5842 19.9417H40.5047C41.0233 19.9417 41.4454 19.5197 41.4454 19.0009V15.4965C41.4454 14.9778 41.0234 14.5557 40.5047 14.5557ZM39.9597 18.456H38.1293V16.0417H39.9597V18.456Z" fill="black"/>
<path d="M34.6983 23.2583H31.7778C31.2591 23.2583 30.8372 23.6803 30.8372 24.1991V27.7035C30.8372 28.2222 31.259 28.6443 31.7778 28.6443H34.6983C35.2169 28.6443 35.6389 28.2223 35.6389 27.7035V24.1991C35.6389 23.6804 35.2169 23.2583 34.6983 23.2583ZM34.1531 27.1585H32.3228V24.7442H34.1531V27.1585Z" fill="black"/>
<path d="M40.5047 31.9609H37.5842C37.0655 31.9609 36.6436 32.3829 36.6436 32.9016V36.406C36.6436 36.9246 37.0655 37.3467 37.5842 37.3467H40.5047C41.0233 37.3467 41.4454 36.9247 41.4454 36.406V32.9016C41.4454 32.3829 41.0234 31.9609 40.5047 31.9609ZM39.9597 35.8609H38.1293V33.4466H39.9597V35.8609Z" fill="black"/>
<path d="M50.2297 35.2714C49.2777 33.8723 47.3605 33.5019 45.957 34.4451L43.9145 35.8121V3.85562H44.0626C44.6005 3.85562 45.038 3.41809 45.038 2.88021V0.975406C45.038 0.437531 44.6005 0 44.0626 0H39.3188C38.9085 0 38.576 0.332617 38.576 0.742828C38.576 1.15304 38.9086 1.48566 39.3188 1.48566H43.5522V2.36976H22.6944V1.48566H34.6669C35.0773 1.48566 35.4098 1.15304 35.4098 0.742828C35.4098 0.332617 35.0772 0 34.6668 0H22.184C21.6461 0 21.2086 0.437531 21.2086 0.975406V2.88021C21.2086 3.41809 21.6461 3.85562 22.184 3.85562H22.5612V13.3975H21.0358V11.5639C21.0358 10.9255 20.5164 10.4061 19.8781 10.4061H14.269C13.6306 10.4061 13.1112 10.9255 13.1112 11.5639V13.3974H12.0438C11.3804 13.3974 10.8407 13.9371 10.8407 14.6005V31.6371C10.5263 31.6171 10.2109 31.6063 9.89484 31.6063H8.72403V31.2202C8.72403 29.7789 7.55149 28.6064 6.11011 28.6064H3.85146C2.41019 28.6064 1.23755 29.7789 1.23755 31.2202V41.8284C1.23755 42.2387 1.57017 42.5712 1.98038 42.5712C2.39059 42.5712 2.7232 42.2386 2.7232 41.8284V31.2202C2.7232 30.5982 3.22929 30.0922 3.85136 30.0922H6.11001C6.73208 30.0922 7.23817 30.5982 7.23817 31.2202V47.9351C7.23817 48.557 6.73208 49.0631 6.11001 49.0631H3.85146C3.22939 49.0631 2.72331 48.557 2.72331 47.9351V46.4775C2.72331 46.0672 2.39069 45.7347 1.98048 45.7347C1.57027 45.7347 1.23765 46.0673 1.23765 46.4775V47.9351C1.23765 49.3763 2.41019 50.5489 3.85156 50.5489H6.11021C7.55149 50.5489 8.72413 49.3762 8.72413 47.9351V47.8927L19.0107 51.788C19.0308 51.7957 19.0512 51.8024 19.0719 51.8083C19.5239 51.9359 19.9756 52 20.4233 52C20.6667 52 20.9088 51.981 21.1491 51.9431L21.1505 51.9429L36.3342 49.7542C36.338 49.7537 36.3416 49.7531 36.3454 49.7525C37.6433 49.5452 38.8677 48.9967 39.8862 48.166C39.8955 48.1585 39.9046 48.1507 39.9135 48.1427L49.7272 39.3162C50.8837 38.2891 51.0998 36.5503 50.2297 35.2714ZM24.047 3.85562H42.4289V36.8065L36.248 40.943L34.1757 40.8267L34.1229 40.2961C34.0842 39.9064 33.9968 39.5316 33.8668 39.1778C33.8235 39.0599 33.7754 38.9443 33.7229 38.8313C33.644 38.6618 33.555 38.4981 33.4566 38.3409C33.2239 37.9694 32.9386 37.6348 32.6105 37.3468H34.6982C35.2169 37.3468 35.6389 36.9248 35.6389 36.406V32.9016C35.6389 32.3829 35.2169 31.9609 34.6982 31.9609H31.7778C31.2591 31.9609 30.8371 32.3829 30.8371 32.9016V36.3893C30.6494 36.3375 30.4568 36.297 30.2596 36.2691C30.2533 36.2682 30.2469 36.2674 30.2405 36.2666L29.8323 36.2196V32.9015C29.8323 32.3828 29.4103 31.9607 28.8915 31.9607H25.9711C25.4524 31.9607 25.0304 32.3827 25.0304 32.9015V35.6668L24.047 35.5537V3.85562ZM32.3227 35.861V33.4468H34.1529V35.861H32.3227ZM28.3464 33.4467V35.861H26.7156L26.516 35.8381V33.4467H28.3464ZM14.597 11.8919H19.5501V13.3974H14.597V11.8919ZM12.3262 14.8832H22.5612V17.2063H14.1715C13.6912 17.2063 13.3005 17.597 13.3005 18.0773V20.3203C13.3005 20.8006 13.6912 21.1913 14.1715 21.1913H22.5612V23.2813H14.1715C13.6912 23.2813 13.3005 23.672 13.3005 24.1523V26.3952C13.3005 26.8755 13.6912 27.2662 14.1715 27.2662H22.5612V29.3561H14.1715C13.6912 29.3561 13.3005 29.7468 13.3005 30.2271V32.0007C13.1744 31.9714 13.0477 31.9439 12.9206 31.9177C12.8607 31.9054 12.8007 31.8936 12.7406 31.8819C12.6703 31.8683 12.5998 31.8555 12.5292 31.8429C12.4615 31.8307 12.3941 31.8177 12.3262 31.8065V14.8832ZM22.5612 18.6921V19.7056H14.7863V18.6921H22.5612ZM22.5612 24.7669V25.7804H14.7863V24.7669H22.5612ZM14.7863 31.8554V30.8419H22.5612V31.8554H14.7863ZM22.5612 33.3411V35.3826L22.3324 35.3562C21.8524 35.288 21.3795 35.1938 20.9141 35.0759C20.0117 34.8473 19.138 34.5268 18.3007 34.1152C18.1893 34.0604 18.0789 34.0037 17.969 33.9457C17.7894 33.8512 17.6115 33.753 17.4354 33.65C17.3059 33.5741 17.175 33.5012 17.0437 33.4295C17.0153 33.414 16.9868 33.3986 16.9583 33.3834C16.9322 33.3694 16.9062 33.355 16.8801 33.3411H22.5612ZM48.7372 38.2083L38.9337 47.0255C38.1219 47.6836 37.1483 48.1187 36.1163 48.2844L20.9325 50.4731C20.9292 50.4736 20.9154 50.4757 20.9121 50.4763C20.4578 50.5481 19.9847 50.5179 19.5053 50.3867L8.72403 46.304V33.0922H9.89474C10.4334 33.0922 10.97 33.1264 11.5021 33.1906C11.6101 33.2036 11.7178 33.2179 11.8252 33.2335C11.8409 33.2357 11.8564 33.2382 11.872 33.2405C12.1434 33.2807 12.4125 33.3296 12.6793 33.3856C12.7623 33.4032 12.8453 33.4209 12.928 33.44C12.9693 33.4495 13.0105 33.4596 13.0517 33.4694C13.1595 33.4954 13.267 33.5224 13.3742 33.5512C13.3935 33.5564 13.4129 33.5613 13.4322 33.5666C14.2715 33.7954 15.0886 34.1057 15.8711 34.4938C15.8944 34.5054 15.9177 34.5171 15.941 34.5289C16.0405 34.579 16.1393 34.6306 16.2376 34.6831C16.2676 34.6991 16.2976 34.7149 16.3275 34.7311C16.4458 34.7956 16.5635 34.8614 16.68 34.9296C16.6818 34.9306 16.6835 34.9315 16.6852 34.9325C17.001 35.1172 17.3219 35.2897 17.6478 35.4499C19.0599 36.144 20.5643 36.6068 22.1335 36.8288C22.1399 36.8297 22.1462 36.8305 22.1526 36.8312L23.2191 36.954L24.0877 37.0541L26.0908 37.2847L26.5879 37.342L30.0602 37.7417C31.4439 37.9416 32.5059 39.0513 32.6443 40.4433L32.6701 40.7022L18.7458 39.3451C18.3362 39.3052 17.9741 39.6041 17.9343 40.0125C17.8946 40.4209 18.1933 40.7842 18.6017 40.824L33.363 42.2627C33.394 42.2685 33.4254 42.2731 33.4576 42.2748L36.4128 42.4406C36.4267 42.4414 36.4406 42.4417 36.4544 42.4417C36.4692 42.4417 36.4836 42.4394 36.4983 42.4385C36.5152 42.4375 36.5319 42.4369 36.5486 42.4347C36.5699 42.432 36.5908 42.4273 36.6119 42.4228C36.6283 42.4192 36.6449 42.4164 36.6609 42.4117C36.6833 42.4052 36.7049 42.3965 36.7265 42.3878C36.7402 42.3824 36.7543 42.3782 36.7676 42.372C36.8021 42.3559 36.8356 42.3374 36.8676 42.3161L43.5848 37.8207L46.7846 35.6792C47.5131 35.1897 48.5076 35.3817 49.0013 36.1074C49.4526 36.7706 49.3406 37.6725 48.7372 38.2083Z" fill="black"/>
<path d="M34.8611 32H31.9407C31.422 32 31 32.422 31 32.9407V36.4451C31 36.9638 31.422 37.3859 31.9407 37.3859H34.8611C35.3798 37.3859 35.8019 36.9639 35.8019 36.4451V32.9407C35.8019 32.422 35.3799 32 34.8611 32ZM34.3161 35.9H32.4858V33.4858H34.3161V35.9Z" fill="#1D73F8"/>
<path d="M28.8916 5.85336H25.9712C25.4525 5.85336 25.0305 6.27536 25.0305 6.79414V10.2986C25.0304 10.8172 25.4524 11.2392 25.9712 11.2392H28.8916C29.4103 11.2392 29.8324 10.8172 29.8324 10.2985V6.79414C29.8324 6.27546 29.4104 5.85336 28.8916 5.85336ZM28.3465 9.75347H26.5162V7.33912H28.3465V9.75347Z" fill="#1D73F8"/>
<path d="M40.5047 5.85336H37.5842C37.0655 5.85336 36.6436 6.27536 36.6436 6.79414V10.2986C36.6436 10.8172 37.0655 11.2392 37.5842 11.2392H40.5047C41.0233 11.2392 41.4454 10.8172 41.4454 10.2985V6.79414C41.4454 6.27546 41.0234 5.85336 40.5047 5.85336ZM39.9597 9.75347H38.1293V7.33912H39.9597V9.75347Z" fill="#1D73F8"/>
<path d="M34.6983 14.5557H31.7778C31.2591 14.5557 30.8372 14.9777 30.8372 15.4965V19.0009C30.8372 19.5197 31.259 19.9417 31.7778 19.9417H34.6983C35.2169 19.9417 35.6389 19.5197 35.6389 19.0009V15.4965C35.6389 14.9778 35.2169 14.5557 34.6983 14.5557ZM34.1531 18.456H32.3228V16.0417H34.1531V18.456Z" fill="#1D73F8"/>
<path d="M28.8916 23.2583H25.9712C25.4525 23.2583 25.0305 23.6803 25.0305 24.1991V27.7035C25.0304 28.2222 25.4524 28.6443 25.9712 28.6443H28.8916C29.4103 28.6443 29.8324 28.2223 29.8324 27.7035V24.1991C29.8324 23.6804 29.4104 23.2583 28.8916 23.2583ZM28.3465 27.1585H26.5162V24.7442H28.3465V27.1585Z" fill="#1D73F8"/>
<path d="M40.5047 23.2583H37.5842C37.0655 23.2583 36.6436 23.6803 36.6436 24.1991V27.7035C36.6436 28.2222 37.0655 28.6443 37.5842 28.6443H40.5047C41.0233 28.6443 41.4454 28.2223 41.4454 27.7035V24.1991C41.4454 23.6804 41.0234 23.2583 40.5047 23.2583ZM39.9597 27.1585H38.1293V24.7442H39.9597V27.1585Z" fill="#1D73F8"/>
</svg>
