<?xml version="1.0" encoding="utf-8"?>
<!-- Generator: Adobe Illustrator 15.1.0, SVG Export Plug-In . SVG Version: 6.00 Build 0)  -->
<!DOCTYPE svg PUBLIC "-//W3C//DTD SVG 1.1//EN" "http://www.w3.org/Graphics/SVG/1.1/DTD/svg11.dtd">
<svg version="1.1" id="Layer_1" xmlns="http://www.w3.org/2000/svg" xmlns:xlink="http://www.w3.org/1999/xlink" x="0px" y="0px"
	 width="67px" height="67px" viewBox="0 0 67 67" enable-background="new 0 0 67 67" xml:space="preserve">
<path fill="#333333" d="M57.946,30.948c1.961-1.379,3.26-3.672,3.26-6.257c0-4.229-3.419-7.649-7.648-7.649s-7.648,3.42-7.648,7.649
	c0,2.585,1.285,4.878,3.26,6.257c-1.684,0.583-3.221,1.484-4.52,2.651c-1.79-1.525-3.898-2.691-6.205-3.38
	c2.797-1.697,4.681-4.786,4.681-8.299c0-5.356-4.336-9.691-9.691-9.691c-5.356,0-9.691,4.348-9.691,9.691
	c0,3.513,1.87,6.602,4.68,8.299c-2.28,0.689-4.362,1.842-6.139,3.34c-1.299-1.14-2.81-2.028-4.466-2.598
	c1.961-1.379,3.26-3.672,3.26-6.257c0-4.229-3.419-7.649-7.648-7.649c-4.229,0-7.649,3.42-7.649,7.649
	c0,2.585,1.286,4.878,3.261,6.257C3.778,32.777,0,37.774,0,43.648v0.874c0,0.026,0.026,0.053,0.053,0.053h16.213
	c-0.093,0.73-0.146,1.485-0.146,2.241v0.901c0,3.897,3.155,7.053,7.053,7.053h20.547c3.897,0,7.053-3.155,7.053-7.053v-0.901
	c0-0.756-0.053-1.511-0.146-2.241h16.32c0.026,0,0.053-0.026,0.053-0.053v-0.874C66.974,37.762,63.209,32.764,57.946,30.948z
	 M48.029,24.677c0-3.049,2.479-5.528,5.528-5.528s5.528,2.479,5.528,5.528c0,3.009-2.426,5.462-5.422,5.528c-0.04,0-0.066,0-0.106,0
	s-0.066,0-0.106,0C50.442,30.153,48.029,27.7,48.029,24.677z M25.838,21.92c0-4.176,3.393-7.57,7.569-7.57
	c4.176,0,7.569,3.394,7.569,7.57c0,4.03-3.168,7.331-7.131,7.556c-0.146,0-0.292,0-0.438,0s-0.292,0-0.438,0
	C29.005,29.251,25.838,25.951,25.838,21.92z M7.861,24.677c0-3.049,2.479-5.528,5.528-5.528c3.05,0,5.528,2.479,5.528,5.528
	c0,3.009-2.425,5.462-5.422,5.528c-0.04,0-0.066,0-0.106,0c-0.04,0-0.066,0-0.106,0C10.287,30.153,7.861,27.7,7.861,24.677z
	 M16.637,42.442H2.148c0.596-5.648,5.369-10.076,11.162-10.115c0.027,0,0.053,0,0.08,0c0.027,0,0.053,0,0.08,0
	c2.757,0.013,5.276,1.034,7.225,2.69C18.785,37.086,17.366,39.632,16.637,42.442z M48.627,47.718c0,2.718-2.215,4.932-4.933,4.932
	H23.147c-2.718,0-4.932-2.214-4.932-4.932v-0.901c0-8.231,6.575-14.967,14.755-15.206c0.146,0.014,0.305,0.014,0.451,0.014
	s0.305,0,0.451-0.014c8.179,0.239,14.755,6.974,14.755,15.206V47.718z M50.203,42.442c-0.729-2.798-2.121-5.303-4.017-7.372
	c1.962-1.696,4.507-2.717,7.291-2.743c0.027,0,0.054,0,0.08,0s0.053,0,0.079,0c5.794,0.039,10.566,4.467,11.163,10.115H50.203z"/>
<circle fill="none" stroke="#1D73F8" stroke-width="4" stroke-miterlimit="10" cx="33.5" cy="21.939" r="7.699"/>
</svg>
