<svg width="90" height="90" viewBox="0 0 90 90" fill="none" xmlns="http://www.w3.org/2000/svg">
<path d="M37.9688 78.75V72.0599C37.9707 71.321 37.8262 70.5889 37.5433 69.9062C37.2605 69.2235 36.8451 68.6036 36.3212 68.0825L28.2955 60.0569C28.1649 59.9263 28.0613 59.7713 27.9907 59.6007C27.92 59.43 27.8836 59.2472 27.8836 59.0625C27.8836 58.8778 27.92 58.695 27.9907 58.5243C28.0613 58.3537 28.1649 58.1987 28.2955 58.0681L36.3212 50.0425C36.8451 49.5214 37.2605 48.9015 37.5433 48.2188C37.8262 47.5361 37.9707 46.804 37.9688 46.0651V39.375C39.0876 39.375 40.1607 38.9305 40.9519 38.1394C41.743 37.3482 42.1875 36.2751 42.1875 35.1562C42.1875 34.0374 41.743 32.9643 40.9519 32.1731C40.1607 31.382 39.0876 30.9375 37.9688 30.9375H7.03125C5.91237 30.9375 4.83931 31.382 4.04814 32.1731C3.25697 32.9643 2.8125 34.0374 2.8125 35.1562C2.8125 36.2751 3.25697 37.3482 4.04814 38.1394C4.83931 38.9305 5.91237 39.375 7.03125 39.375V46.0651C7.02926 46.804 7.17385 47.5361 7.45666 48.2188C7.73947 48.9015 8.15488 49.5214 8.67885 50.0425L16.7045 58.0681C16.8351 58.1987 16.9387 58.3537 17.0093 58.5243C17.08 58.695 17.1164 58.8778 17.1164 59.0625C17.1164 59.2472 17.08 59.43 17.0093 59.6007C16.9387 59.7713 16.8351 59.9263 16.7045 60.0569L8.67885 68.0825C8.15488 68.6036 7.73947 69.2235 7.45666 69.9062C7.17385 70.5889 7.02926 71.321 7.03125 72.0599V78.75C5.91237 78.75 4.83931 79.1945 4.04814 79.9856C3.25697 80.7768 2.8125 81.8499 2.8125 82.9688C2.8125 84.0876 3.25697 85.1607 4.04814 85.9519C4.83931 86.743 5.91237 87.1875 7.03125 87.1875H37.9688C39.0876 87.1875 40.1607 86.743 40.9519 85.9519C41.743 85.1607 42.1875 84.0876 42.1875 82.9688C42.1875 81.8499 41.743 80.7768 40.9519 79.9856C40.1607 79.1945 39.0876 78.75 37.9688 78.75V78.75ZM5.625 35.1562C5.62542 34.7834 5.77371 34.426 6.03734 34.1623C6.30098 33.8987 6.65842 33.7504 7.03125 33.75H37.9688C38.3417 33.75 38.6994 33.8982 38.9631 34.1619C39.2268 34.4256 39.375 34.7833 39.375 35.1562C39.375 35.5292 39.2268 35.8869 38.9631 36.1506C38.6994 36.4143 38.3417 36.5625 37.9688 36.5625H7.03125C6.65842 36.5621 6.30098 36.4138 6.03734 36.1502C5.77371 35.8865 5.62542 35.5291 5.625 35.1562ZM9.84375 72.0599C9.84277 71.6905 9.91507 71.3244 10.0565 70.9831C10.1978 70.6417 10.4055 70.3317 10.6675 70.0712L18.6931 62.0455C19.4842 61.2543 19.9286 60.1813 19.9286 59.0625C19.9286 57.9437 19.4842 56.8707 18.6931 56.0795L10.6675 48.0538C10.4055 47.7933 10.1978 47.4833 10.0565 47.1419C9.91507 46.8006 9.84277 46.4345 9.84375 46.0651V39.375H35.1562V46.0651C35.1572 46.4345 35.0849 46.8006 34.9435 47.1419C34.8022 47.4833 34.5945 47.7933 34.3325 48.0538L26.3069 56.0795C25.5158 56.8707 25.0714 57.9437 25.0714 59.0625C25.0714 60.1813 25.5158 61.2543 26.3069 62.0455L34.3325 70.0712C34.5945 70.3317 34.8022 70.6417 34.9435 70.9831C35.0849 71.3244 35.1572 71.6905 35.1562 72.0599V78.75H34.3816L27.7611 71.302C27.1007 70.559 26.2905 69.9643 25.3837 69.5571C24.4768 69.1498 23.4941 68.9393 22.5 68.9393C21.5059 68.9393 20.5232 69.1498 19.6163 69.5571C18.7095 69.9643 17.8993 70.559 17.2389 71.302L10.6184 78.75H9.84375V72.0599ZM30.6185 78.75H14.3815L19.341 73.1705C19.7375 72.7244 20.2241 72.3673 20.7685 72.1228C21.313 71.8782 21.9031 71.7518 22.5 71.7518C23.0969 71.7518 23.687 71.8782 24.2315 72.1228C24.7759 72.3673 25.2625 72.7244 25.659 73.1705L30.6185 78.75ZM37.9688 84.375H7.03125C6.65829 84.375 6.3006 84.2268 6.03688 83.9631C5.77316 83.6994 5.625 83.3417 5.625 82.9688C5.625 82.5958 5.77316 82.2381 6.03688 81.9744C6.3006 81.7107 6.65829 81.5625 7.03125 81.5625H37.9688C38.3417 81.5625 38.6994 81.7107 38.9631 81.9744C39.2268 82.2381 39.375 82.5958 39.375 82.9688C39.375 83.3417 39.2268 83.6994 38.9631 83.9631C38.6994 84.2268 38.3417 84.375 37.9688 84.375Z" fill="#1D73F8"/>
<path d="M85.7812 9.84375H78.75V8.4375C78.75 6.94566 78.1574 5.51492 77.1025 4.46002C76.0476 3.40513 74.6168 2.8125 73.125 2.8125C71.6332 2.8125 70.2024 3.40513 69.1475 4.46002C68.0926 5.51492 67.5 6.94566 67.5 8.4375V9.84375H63.2812V8.4375C63.2812 6.94566 62.6886 5.51492 61.6337 4.46002C60.5788 3.40513 59.1481 2.8125 57.6562 2.8125C56.1644 2.8125 54.7337 3.40513 53.6788 4.46002C52.6239 5.51492 52.0312 6.94566 52.0312 8.4375V9.84375H47.8125V8.4375C47.8125 6.94566 47.2199 5.51492 46.165 4.46002C45.1101 3.40513 43.6793 2.8125 42.1875 2.8125C40.6957 2.8125 39.2649 3.40513 38.21 4.46002C37.1551 5.51492 36.5625 6.94566 36.5625 8.4375V9.84375H29.5312C29.1583 9.84375 28.8006 9.99191 28.5369 10.2556C28.2732 10.5194 28.125 10.877 28.125 11.25V14.0625H23.9062C23.5333 14.0625 23.1756 14.2107 22.9119 14.4744C22.6482 14.7381 22.5 15.0958 22.5 15.4688V28.125H25.3125V16.875H28.125V28.125H30.9375V12.6562H36.5625V16.875C36.5625 17.9939 37.007 19.0669 37.7981 19.8581C38.5893 20.6493 39.6624 21.0938 40.7812 21.0938C41.9001 21.0938 42.9732 20.6493 43.7644 19.8581C44.5555 19.0669 45 17.9939 45 16.875V15.4688H42.1875V16.875C42.1875 17.248 42.0393 17.6056 41.7756 17.8694C41.5119 18.1331 41.1542 18.2812 40.7812 18.2812C40.4083 18.2812 40.0506 18.1331 39.7869 17.8694C39.5232 17.6056 39.375 17.248 39.375 16.875V8.4375C39.375 7.69158 39.6713 6.97621 40.1988 6.44876C40.7262 5.92132 41.4416 5.625 42.1875 5.625C42.9334 5.625 43.6488 5.92132 44.1762 6.44876C44.7037 6.97621 45 7.69158 45 8.4375V9.84375H42.1875V12.6562H52.0312V16.875C52.0312 17.9939 52.4757 19.0669 53.2669 19.8581C54.0581 20.6493 55.1311 21.0938 56.25 21.0938C57.3689 21.0938 58.4419 20.6493 59.2331 19.8581C60.0243 19.0669 60.4688 17.9939 60.4688 16.875V15.4688H57.6562V16.875C57.6562 17.248 57.5081 17.6056 57.2444 17.8694C56.9806 18.1331 56.623 18.2812 56.25 18.2812C55.877 18.2812 55.5194 18.1331 55.2556 17.8694C54.9919 17.6056 54.8438 17.248 54.8438 16.875V8.4375C54.8438 7.69158 55.1401 6.97621 55.6675 6.44876C56.195 5.92132 56.9103 5.625 57.6562 5.625C58.4022 5.625 59.1175 5.92132 59.645 6.44876C60.1724 6.97621 60.4688 7.69158 60.4688 8.4375V9.84375H57.6562V12.6562H67.5V16.875C67.5 17.9939 67.9445 19.0669 68.7356 19.8581C69.5268 20.6493 70.5999 21.0938 71.7188 21.0938C72.8376 21.0938 73.9107 20.6493 74.7019 19.8581C75.493 19.0669 75.9375 17.9939 75.9375 16.875V15.4688H73.125V16.875C73.125 17.248 72.9768 17.6056 72.7131 17.8694C72.4494 18.1331 72.0917 18.2812 71.7188 18.2812C71.3458 18.2812 70.9881 18.1331 70.7244 17.8694C70.4607 17.6056 70.3125 17.248 70.3125 16.875V8.4375C70.3125 7.69158 70.6088 6.97621 71.1363 6.44876C71.6637 5.92132 72.3791 5.625 73.125 5.625C73.8709 5.625 74.5863 5.92132 75.1137 6.44876C75.6412 6.97621 75.9375 7.69158 75.9375 8.4375V9.84375H73.125V12.6562H84.375V73.125H40.7812V75.9375H78.75V78.75H45V81.5625H80.1562C80.5292 81.5625 80.8869 81.4143 81.1506 81.1506C81.4143 80.8869 81.5625 80.5292 81.5625 80.1562V75.9375H85.7812C86.1542 75.9375 86.5119 75.7893 86.7756 75.5256C87.0393 75.2619 87.1875 74.9042 87.1875 74.5312V11.25C87.1875 10.877 87.0393 10.5194 86.7756 10.2556C86.5119 9.99191 86.1542 9.84375 85.7812 9.84375Z" fill="black"/>
<path d="M65.1446 52.1754C68.1023 51.7702 71.0459 52.406 73.0185 53.8761L74.6991 51.621C72.1106 49.692 68.4886 48.8788 64.7628 49.3886C58.8192 50.2028 53.9589 55.2245 53.9735 60.2508L49.1548 60.4698L49.2824 63.2795L54.5193 63.0415C55.24 64.8169 56.6499 66.332 58.6234 67.4092C60.6284 68.4666 62.8657 69.0066 65.1322 68.9803C65.8555 68.9799 66.5779 68.9304 67.2944 68.8319C72.2085 68.1587 75.181 65.6941 75.616 62.0819L80.2215 61.8727L80.0939 59.0631L75.4471 59.274C74.6642 56.6814 71.379 54.8121 68.1346 55.2565L68.5162 58.043C70.0865 57.8287 71.6469 58.5282 72.3795 59.4141L56.7939 60.1225C56.8788 56.8106 60.2673 52.8436 65.1446 52.1754V52.1754ZM66.9117 66.0458C62.8863 66.5972 59.2084 65.2507 57.6181 62.9009L72.7423 62.2134C72.2637 64.2941 70.3113 65.5801 66.9119 66.0458H66.9117Z" fill="black"/>
<path d="M49.2188 26.7188H52.0312V29.5312H49.2188V26.7188Z" fill="black"/>
<path d="M54.8438 26.7188H78.75V29.5312H54.8438V26.7188Z" fill="black"/>
<path d="M46.4062 32.3438H78.75V35.1562H46.4062V32.3438Z" fill="black"/>
<path d="M46.4062 37.9688H78.75V40.7812H46.4062V37.9688Z" fill="black"/>
<path d="M46.4062 43.5938H59.0625V46.4062H46.4062V43.5938Z" fill="black"/>
<path d="M14.0625 46.4062H30.9375V49.2188H14.0625V46.4062Z" fill="black"/>
<path d="M21.0938 63.2812H23.9062V66.0938H21.0938V63.2812Z" fill="black"/>
</svg>
