<svg width="48" height="48" viewBox="0 0 48 48" fill="none" xmlns="http://www.w3.org/2000/svg">
<g clip-path="url(#clip0)">
<path d="M43.3486 9.80627C39.5563 4.63868 33.9787 1.25702 27.643 0.28446C21.3075 -0.688196 14.9723 0.864679 9.80464 4.65696C4.63705 8.44924 1.25539 14.0269 0.282831 20.3625C-0.561575 25.8634 0.498925 31.3632 3.27467 36.0995C3.27664 36.1031 3.2788 36.1065 3.28077 36.1101C3.7003 36.8252 4.15808 37.5233 4.65533 38.2009C8.03464 42.8059 12.9541 46.06 18.5072 47.3636C18.7603 47.423 19.0141 47.4772 19.2683 47.5283C19.3213 47.5433 19.3754 47.5533 19.4303 47.5589C20.9464 47.8526 22.4794 48.0003 24.0084 48.0003C25.5481 48.0003 27.0828 47.8503 28.5907 47.5579C28.6355 47.5526 28.6796 47.5443 28.7229 47.5327C30.8195 47.1138 32.8624 46.4159 34.7901 45.4431C35.2523 45.2098 35.438 44.6461 35.2046 44.1839C34.9714 43.7217 34.4076 43.5361 33.9455 43.7695C32.7844 44.3554 31.5941 44.8295 30.3877 45.1968L34.2747 38.4581L41.8848 37.0287C41.2233 37.941 40.4853 38.8103 39.6703 39.6256C39.3043 39.9918 39.3044 40.5853 39.6706 40.9512C40.0368 41.3173 40.6302 41.3171 40.9962 40.9511C42.4303 39.5164 43.6649 37.9111 44.6818 36.1817C44.6893 36.1692 44.6969 36.157 44.7038 36.1442C46.3618 33.3129 47.4337 30.149 47.8288 26.8485C47.8323 26.8256 47.8349 26.8026 47.8367 26.7795C47.8701 26.4938 47.8997 26.2073 47.9228 25.9196C48.385 20.1781 46.7605 14.4558 43.3486 9.80627ZM27.3587 2.13752C32.2155 2.88312 36.5881 5.16546 39.9338 8.65202L38.7901 18.4856L31.4411 20.1356L24.9623 15.4285V8.38783L26.4058 7.35321C26.8265 7.05162 26.9232 6.46596 26.6216 6.04521C26.3199 5.62446 25.7345 5.5279 25.3136 5.8294L23.963 6.79746L17.5053 2.84637C20.6541 1.8768 24.006 1.62293 27.3587 2.13752ZM17.873 21.501L20.9261 19.2829L23.9792 17.0648L30.0853 21.5011L27.753 28.6793H20.2054L17.873 21.501ZM10.9139 6.16849C12.2832 5.16358 13.7419 4.33024 15.2634 3.67277L23.0418 8.4319V15.4286L16.563 20.1357L9.18505 18.4793L7.67858 9.06293C8.64974 8.00637 9.73086 7.03662 10.9139 6.16849ZM2.1358 20.647C2.67955 17.105 4.04127 13.8208 6.09046 11.0041L7.3588 18.9326L1.87874 24.4606C1.85549 23.1969 1.94024 21.922 2.1358 20.647ZM2.06596 26.9347L8.66024 20.2827L16.0445 21.9406L18.4945 29.4809L13.8833 36.577L4.69733 34.8136C3.31696 32.3599 2.43064 29.6928 2.06596 26.9347ZM6.16677 37.0918C6.14221 37.0584 6.11886 37.0243 6.09449 36.9909L13.728 38.4562L17.6269 45.2144C13.1676 43.8701 9.11333 41.107 6.16677 37.0918ZM27.8724 45.8051C25.2888 46.2703 22.6709 46.2631 20.1369 45.8136L15.4248 37.6454L20.0331 30.554H27.9708L32.5791 37.6455L27.8724 45.8051ZM43.2692 34.861L34.122 36.5791L29.5093 29.4808L31.9594 21.9405L39.3382 20.2839L45.8792 27.0007C45.5091 29.7394 44.6355 32.4131 43.2692 34.861ZM46.0758 24.5156L40.6268 18.92L41.5953 10.5941C41.6765 10.7007 41.7576 10.8072 41.8371 10.9155C44.7976 14.9498 46.189 19.7571 46.0758 24.5156Z" fill="black"/>
<path d="M29.1426 4.04962C28.9682 3.87525 28.7264 3.77493 28.4799 3.77493C28.2333 3.77493 27.9915 3.87525 27.8172 4.04962C27.6428 4.224 27.5425 4.46578 27.5425 4.71234C27.5425 4.9589 27.6428 5.20068 27.8172 5.37506C27.9915 5.55037 28.2333 5.64975 28.4799 5.64975C28.7264 5.64975 28.9682 5.55037 29.1426 5.37506C29.317 5.20068 29.4173 4.9589 29.4173 4.71234C29.4173 4.46578 29.317 4.2239 29.1426 4.04962Z" fill="#1D73F8"/>
<path d="M38.1973 41.9665C38.0229 41.7922 37.7811 41.6918 37.5346 41.6918C37.288 41.6918 37.0462 41.7922 36.8719 41.9665C36.6975 42.1409 36.5972 42.3827 36.5972 42.6293C36.5972 42.8758 36.6975 43.1176 36.8719 43.292C37.0462 43.4673 37.2879 43.5667 37.5346 43.5667C37.7811 43.5667 38.0229 43.4673 38.1973 43.292C38.3717 43.1176 38.472 42.8758 38.472 42.6293C38.472 42.3827 38.3717 42.1409 38.1973 41.9665Z" fill="#1D73F8"/>
<path d="M17.894 21.4999L20.9471 19.2818L24.0002 17.0637L30.1063 21.5L27.774 28.6782H20.2264L17.894 21.4999Z" fill="#1D73F8"/>
</g>
<defs>
<clipPath id="clip0">
<rect width="48" height="48" fill="white"/>
</clipPath>
</defs>
</svg>
