<svg width="61" height="61" viewBox="0 0 61 61" fill="none" xmlns="http://www.w3.org/2000/svg">
<path d="M60.8383 34.525L51.6883 20.2917C51.5012 20.0008 51.1789 19.825 50.8332 19.825H39.6499C39.0877 19.825 38.6333 20.2805 38.6333 20.8416V46.2582C38.6333 46.8205 39.0877 47.2749 39.6499 47.2749H43.7166V45.2415H40.6666V21.8584H50.2781L58.9666 35.3739V45.2417H53.8832V47.275H59.9832C60.5454 47.275 60.9998 46.8206 60.9998 46.2584V35.075C60.9999 34.8808 60.9441 34.6886 60.8383 34.525Z" fill="black"/>
<path d="M44.7335 33.0416V25.925H52.8668V23.8916H43.7168C43.1546 23.8916 42.7002 24.3471 42.7002 24.9082V34.0582C42.7002 34.6205 43.1546 35.0749 43.7168 35.0749H58.9668V33.0415H44.7335V33.0416Z" fill="black"/>
<path d="M39.65 12.7084H1.01663C0.455475 12.7084 0 13.1638 0 13.725V46.2584C0 46.8206 0.455475 47.275 1.01663 47.275H9.15V45.2416H2.03337V14.7416H38.6334V45.2416H19.3166V47.275H39.65C40.2122 47.275 40.6666 46.8206 40.6666 46.2584V13.725C40.6666 13.1638 40.2122 12.7084 39.65 12.7084Z" fill="black"/>
<path d="M7.1166 41.175H1.0166V43.2084H7.1166V41.175Z" fill="black"/>
<path d="M38.6335 41.175H21.3501V43.2084H38.6335V41.175Z" fill="black"/>
<path d="M59.9831 41.175H55.9165V43.2084H59.9831V41.175Z" fill="black"/>
<path d="M39.65 16.775H4.06665V18.8084H39.65V16.775Z" fill="black"/>
<path d="M15.2499 45.2416H13.2166V47.275H15.2499V45.2416Z" fill="black"/>
<path d="M49.8168 45.2416H47.7834V47.275H49.8168V45.2416Z" fill="black"/>
<path d="M18.3 8.6416H4.06665V10.675H18.3V8.6416Z" fill="#1D73F8"/>
<path d="M2.03337 8.6416H0V10.675H2.03337V8.6416Z" fill="#1D73F8"/>
<path d="M48.8 40.1583C45.4358 40.1583 42.7 42.8942 42.7 46.2583C42.7 49.6225 45.4358 52.3583 48.8 52.3583C52.1641 52.3583 54.9 49.6225 54.9 46.2583C54.9 42.8942 52.1641 40.1583 48.8 40.1583ZM48.8 50.325C46.5571 50.325 44.7333 48.501 44.7333 46.2583C44.7333 44.0155 46.5573 42.1917 48.8 42.1917C51.0428 42.1917 52.8666 44.0156 52.8666 46.2583C52.8666 48.501 51.0428 50.325 48.8 50.325Z" fill="#1D73F8"/>
<path d="M14.2333 40.1583C10.8691 40.1583 8.1333 42.8942 8.1333 46.2583C8.1333 49.6225 10.8691 52.3583 14.2333 52.3583C17.5975 52.3583 20.3333 49.6225 20.3333 46.2583C20.3333 42.8942 17.5974 40.1583 14.2333 40.1583ZM14.2333 50.325C11.9905 50.325 10.1667 48.501 10.1667 46.2583C10.1667 44.0155 11.9906 42.1917 14.2333 42.1917C16.476 42.1917 18.2999 44.0156 18.2999 46.2583C18.2999 48.501 16.476 50.325 14.2333 50.325Z" fill="#1D73F8"/>
</svg>
