<svg width="51" height="51" viewBox="0 0 51 51" fill="none" xmlns="http://www.w3.org/2000/svg">
<g clip-path="url(#clip0)">
<path d="M49.4297 17.5897C45.2982 4.39247 31.2038 -2.98269 18.004 1.1471C4.80586 5.27859 -2.57021 19.3764 1.56049 32.5736L3.18232 32.0656C-0.668865 19.763 6.20765 6.62003 18.512 2.76804C24.4726 0.903261 30.8028 1.47073 36.3344 4.36528C41.8684 7.26151 45.9431 12.138 47.8087 18.0978C49.6735 24.0575 49.1068 30.3869 46.2115 35.9202C43.317 41.4543 38.4405 45.5289 32.4799 47.3946C22.5033 50.5167 11.5676 46.5739 5.87974 37.8046L4.45413 38.729C9.15569 45.9792 17.2028 50.154 25.5448 50.1531C28.0256 50.1531 30.5343 49.7844 32.9871 49.0147C39.3801 47.0139 44.611 42.6429 47.717 36.7078C50.823 30.7726 51.4304 23.9828 49.4297 17.5897Z" fill="black"/>
<path d="M20.5714 11.8941L21.0591 10.2663L12.5634 7.7176C12.266 7.62756 11.9406 7.70914 11.7189 7.93087L10.0197 9.63C9.82181 9.82792 9.73426 10.1108 9.78526 10.3861C9.83626 10.6614 10.0197 10.8933 10.2754 11.0072L17.9216 14.4055L18.6115 12.8525L12.0962 9.95622L12.5618 9.49065L20.5714 11.8941Z" fill="black"/>
<path d="M28.4629 6.83327C28.4629 6.36431 28.0831 5.9837 27.6134 5.9837C27.6125 5.9837 27.6125 5.9837 27.6117 5.9837C25.7426 5.9837 23.9848 6.71175 22.6629 8.03376L15.4586 15.2373L12.5267 14.5041C12.237 14.4319 11.9311 14.5159 11.7195 14.7275L10.0204 16.4266C9.83522 16.6118 9.74517 16.8718 9.77745 17.131C9.80972 17.3901 9.95923 17.6211 10.1836 17.7554L14.2496 20.1953L16.6895 24.2614C16.8238 24.4857 17.054 24.6352 17.314 24.6675C17.3479 24.6718 17.3828 24.6735 17.4177 24.6735C17.6411 24.6735 17.8577 24.5851 18.0192 24.4255L19.7183 22.7263C19.929 22.5147 20.014 22.209 19.9418 21.9192L19.2094 18.9907L26.5285 11.7438C27.7773 10.4362 28.4646 8.71847 28.4629 6.83327ZM17.6691 18.1224C17.4558 18.3331 17.3701 18.6406 17.4423 18.932L18.1755 21.8639L17.5859 22.4535L15.597 19.1385C15.5248 19.0187 15.4254 18.9185 15.3057 18.8471L11.9907 16.8582L12.5802 16.2687L15.5121 17.0019C15.8018 17.0741 16.1077 16.99 16.3193 16.7785L23.8635 9.23425C24.6451 8.45182 25.6289 7.94461 26.696 7.76023C26.5277 8.81031 26.0494 9.7839 25.3154 10.5528L17.6691 18.1224Z" fill="black"/>
<path d="M26.7273 21.9939L24.1786 13.3878L22.5491 13.8704L24.944 21.9567L24.4283 22.4121L21.5958 15.8415L20.0352 16.5143L23.3315 24.1605C23.4394 24.4103 23.6603 24.5938 23.9262 24.6533C23.9883 24.6668 24.0502 24.6737 24.1123 24.6737C24.3171 24.6737 24.5175 24.5998 24.6739 24.4613L26.475 22.8727C26.723 22.654 26.8207 22.3117 26.7273 21.9939Z" fill="black"/>
<path d="M16.5954 46.8449C10.5448 49.7121 5.7982 50.0826 3.57572 47.861C-0.276271 44.009 3.90701 32.8176 13.3058 21.8275L12.0145 20.723C1.70585 32.7767 -2.25909 44.4303 2.37363 49.0623C3.66755 50.3553 5.49499 51.0002 7.76159 51.0002C10.4037 51.0002 13.6423 50.1243 17.3227 48.38L16.5954 46.8449Z" fill="black"/>
<path d="M45.3541 29.3699C45.2063 29.0938 44.9183 28.9214 44.6047 28.9214H41.7315L39.4173 24.2937C39.2728 24.0057 38.9789 23.8239 38.6569 23.8239H30.1611C29.6912 23.8239 29.3115 24.2045 29.3115 24.6734V31.4701C29.3115 31.9399 29.6913 32.3196 30.1611 32.3196H32.7098V41.6649C32.7098 42.1348 33.0895 42.5145 33.5594 42.5145H37.8072C38.0323 42.5145 38.2482 42.4253 38.4087 42.2647L41.807 38.8664C41.9667 38.7076 42.0559 38.4918 42.0559 38.2658V35.1249L45.3114 30.2416C45.4849 29.9816 45.5019 29.646 45.3541 29.3699ZM40.4987 34.3969C40.4061 34.5362 40.356 34.701 40.356 34.8684V37.915L37.4556 40.8154H34.409H34.4081V31.4701C34.4081 31.0002 34.0284 30.6205 33.5586 30.6205H31.0099V25.5231H38.131L40.4452 30.1507C40.5897 30.4387 40.8836 30.6206 41.2056 30.6206H43.0168L40.4987 34.3969Z" fill="black"/>
<path d="M45.9466 22.1247L42.793 16.6059C42.6418 16.3408 42.3597 16.1776 42.0556 16.1776H36.9582C36.6744 16.1776 36.4094 16.3195 36.2514 16.5557L34.8045 18.7263H32.7104V14.4785H36.9582C37.1842 14.4785 37.3992 14.3893 37.5588 14.2296L40.7082 11.0802H44.6043V9.3811H40.3565C40.1305 9.3811 39.9155 9.47035 39.7558 9.63003L36.6065 12.7794H31.8608C31.3909 12.7794 31.0112 13.16 31.0112 13.6289V19.5759C31.0112 20.0449 31.391 20.4255 31.8608 20.4255H35.2591C35.5429 20.4255 35.8079 20.2836 35.9659 20.0475L37.4127 17.8768H41.5629L44.7166 23.3956C44.8678 23.6607 45.1499 23.8238 45.454 23.8238H48.8522V22.1247H45.9466Z" fill="black"/>
<path d="M25.0638 30.6205H20.3181L18.0184 28.3207C17.8595 28.1609 17.6428 28.0718 17.4177 28.0718H13.1699C12.7009 28.0718 12.3203 28.4516 12.3203 28.9213V34.8683C12.3203 35.3382 12.7009 35.7179 13.1699 35.7179H16.5681V44.2136C16.5681 44.5357 16.7499 44.8296 17.038 44.974C17.1578 45.0334 17.2886 45.0632 17.4178 45.0632C17.5979 45.0632 17.7772 45.0063 17.9275 44.8933L21.3258 42.3446C21.5398 42.184 21.6657 41.9317 21.6657 41.6649V39.524L25.5949 36.3815C25.7963 36.2201 25.9135 35.9763 25.9135 35.718V31.4701C25.9134 31.0003 25.5328 30.6205 25.0638 30.6205ZM24.2143 35.3102L20.285 38.4528C20.0837 38.6142 19.9664 38.858 19.9664 39.1162V41.2402L18.2673 42.5146V34.8684C18.2673 34.3986 17.8867 34.0188 17.4177 34.0188H14.0194V29.771H17.066L19.3658 32.0708C19.5247 32.2305 19.7413 32.3197 19.9664 32.3197H24.2143V35.3102Z" fill="black"/>
<path d="M7.95099 18.2889L5.40229 14.0411C5.24939 13.7854 4.97238 13.629 4.67425 13.629H3.82468V15.3282H4.19343L6.15344 18.5948L4.0737 20.6745C3.91393 20.8334 3.82478 21.05 3.82478 21.2751V23.8238H1.27588V25.523H4.67415C5.14311 25.523 5.52371 25.1424 5.52371 24.6734V21.6269L7.82349 19.3271C8.09881 19.051 8.1515 18.6236 7.95099 18.2889Z" fill="black"/>
<path d="M26.764 0.885437V1.92187L24.0088 2.61087C23.9145 2.63467 23.8244 2.67462 23.7437 2.72811L21.6053 4.15371L16.9488 1.82505L16.1885 3.34489L21.2859 5.89359C21.4057 5.95305 21.5357 5.98284 21.6657 5.98284C21.8305 5.98284 21.9945 5.93443 22.1363 5.8401L24.5627 4.22254L27.8191 3.40864C28.1972 3.31431 28.4631 2.97454 28.4631 2.58457V0.885437H26.764Z" fill="black"/>
</g>
<path d="M20.8004 11.9104L21.2881 10.2826L12.7924 7.7339C12.495 7.64385 12.1696 7.72543 11.9479 7.94716L10.2487 9.6463C10.0508 9.84422 9.96326 10.1271 10.0143 10.4024C10.0653 10.6776 10.2487 10.9096 10.5044 11.0235L18.1506 14.4218L18.8405 12.8688L12.3252 9.97252L12.7908 9.50694L20.8004 11.9104Z" fill="#1D73F8"/>
<path d="M28.6919 6.84957C28.6919 6.38061 28.3121 6 27.8424 6C27.8415 6 27.8415 6 27.8407 6C25.9716 6 24.2138 6.72804 22.8919 8.05006L15.6876 15.2536L12.7557 14.5204C12.466 14.4482 12.1601 14.5322 11.9485 14.7438L10.2494 16.4429C10.0642 16.6281 9.97418 16.8881 10.0065 17.1473C10.0387 17.4063 10.1882 17.6374 10.4126 17.7717L14.4786 20.2116L16.9185 24.2777C17.0528 24.502 17.283 24.6515 17.543 24.6838C17.5769 24.6881 17.6118 24.6898 17.6467 24.6898C17.8701 24.6898 18.0867 24.6014 18.2482 24.4417L19.9473 22.7426C20.158 22.531 20.243 22.2252 20.1708 21.9355L19.4384 19.007L26.7575 11.7601C28.0063 10.4525 28.6936 8.73477 28.6919 6.84957ZM17.8981 18.1387C17.6848 18.3494 17.5991 18.6569 17.6713 18.9483L18.4045 21.8802L17.8149 22.4698L15.826 19.1548C15.7538 19.035 15.6544 18.9348 15.5347 18.8634L12.2197 16.8745L12.8093 16.2849L15.7412 17.0182C16.0308 17.0904 16.3367 17.0063 16.5483 16.7947L24.0925 9.25055C24.8741 8.46812 25.8579 7.96091 26.925 7.77653C26.7567 8.82661 26.2784 9.80019 25.5444 10.5691L17.8981 18.1387Z" fill="#1D73F8"/>
<path d="M26.9563 22.0102L24.4076 13.4041L22.7781 13.8867L25.173 21.973L24.6573 22.4284L21.8248 15.8578L20.2642 16.5306L23.5605 24.1768C23.6684 24.4266 23.8893 24.6101 24.1552 24.6696C24.2173 24.6831 24.2792 24.69 24.3413 24.69C24.5461 24.69 24.7465 24.6161 24.9029 24.4776L26.704 22.889C26.952 22.6703 27.0497 22.328 26.9563 22.0102Z" fill="#1D73F8"/>
<path d="M45.3541 29.3699C45.2063 29.0938 44.9183 28.9214 44.6047 28.9214H41.7315L39.4173 24.2937C39.2728 24.0057 38.9789 23.8239 38.6569 23.8239H30.1611C29.6912 23.8239 29.3115 24.2045 29.3115 24.6734V31.4701C29.3115 31.9399 29.6913 32.3196 30.1611 32.3196H32.7098V41.6649C32.7098 42.1348 33.0895 42.5145 33.5594 42.5145H37.8072C38.0323 42.5145 38.2482 42.4253 38.4087 42.2647L41.807 38.8664C41.9667 38.7076 42.0559 38.4918 42.0559 38.2658V35.1249L45.3114 30.2416C45.4849 29.9816 45.5019 29.646 45.3541 29.3699ZM40.4987 34.3969C40.4061 34.5362 40.356 34.701 40.356 34.8684V37.915L37.4556 40.8154H34.409H34.4081V31.4701C34.4081 31.0002 34.0284 30.6205 33.5586 30.6205H31.0099V25.5231H38.131L40.4452 30.1507C40.5897 30.4387 40.8836 30.6206 41.2056 30.6206H43.0168L40.4987 34.3969Z" fill="#1D73F8"/>
<defs>
<clipPath id="clip0">
<rect width="51" height="51" fill="white"/>
</clipPath>
</defs>
</svg>
